<?xml version="1.0" encoding="UTF-8"?>
<!DOCTYPE svg PUBLIC "-//W3C//DTD SVG 1.1//EN" "http://www.w3.org/Graphics/SVG/1.1/DTD/svg11.dtd">
<!-- Creator: CorelDRAW X5 -->
<svg xmlns="http://www.w3.org/2000/svg" xml:space="preserve" width="1528px" height="1080px" style="shape-rendering:geometricPrecision; text-rendering:geometricPrecision; image-rendering:optimizeQuality; fill-rule:evenodd; clip-rule:evenodd"
viewBox="0 0 1528 1080.4"
 xmlns:xlink="http://www.w3.org/1999/xlink">
 <defs>
  <style type="text/css">
   <![CDATA[
    .str0 {stroke:#373435;stroke-width:0.907539}
    .fil7 {fill:none}
    .fil1 {fill:black}
    .fil5 {fill:#B3B3B3}
    .fil0 {fill:#CCCCCC}
    .fil6 {fill:black;fill-rule:nonzero}
    .fil4 {fill:#B3B3B3;fill-rule:nonzero}
    .fil2 {fill:white;fill-rule:nonzero}
    .fil3 {fill:url(#id1);fill-rule:nonzero}
    .fil8 {fill:url(#id2);fill-rule:nonzero}
   ]]>
  </style>
   <clipPath id="id0">
    <path d="M-0 0l1528 0 0 1080.4 -1528 0 0 -1080.4z"/>
   </clipPath>
  <linearGradient id="id1" gradientUnits="userSpaceOnUse" x1="125.874" y1="553.408" x2="1402.13" y2="553.408">
   <stop offset="0" style="stop-color:white"/>
   <stop offset="1" style="stop-color:#D2D3D5"/>
  </linearGradient>
  <linearGradient id="id2" gradientUnits="userSpaceOnUse" x1="694.99" y1="692.293" x2="844.766" y2="692.293">
   <stop offset="0" style="stop-color:white"/>
   <stop offset="1" style="stop-color:#E6E7E8"/>
  </linearGradient>
 </defs>
 <g id="Layer_x0020_1">
  <metadata id="CorelCorpID_0Corel-Layer"/>
  <polygon class="fil0" points="-0,0 1528,0 1528,1080.4 -0,1080.4 "/>
  <g style="clip-path:url(#id0)">
   <g id="_206331032">
    <rect id="_205961480" class="fil1 str0" x="-2.41072e-005" y="931.735" width="1528" height="148.669"/>
    <rect id="_67910656" class="fil1 str0" y="308.268" width="1528" height="463.868"/>
    <path id="_67911184" class="fil2" d="M325.289 1033.45l0 -37.7539 3.83646 0 0 15.7384c0.749595,-1.02896 1.56041,-1.82228 2.42371,-2.39798 0.87204,-0.566955 1.74408,-0.993972 2.60738,-1.29031 0.871526,-0.287593 1.69984,-0.462001 2.49368,-0.53197 0.793325,-0.069969 1.48221,-0.104439 2.07489,-0.104439 1.48221,0 2.91246,0.278847 4.29846,0.845802 1.37777,0.557694 2.58988,1.39475 3.63582,2.50191 1.04645,1.10767 1.8835,2.48493 2.51991,4.15029 0.627663,1.65662 0.941495,3.60135 0.941495,5.80691 0,2.04917 -0.252609,3.88894 -0.749595,5.51932 -0.505732,1.63913 -1.26407,3.03439 -2.27554,4.19403 -1.01146,1.15963 -2.27605,2.04917 -3.79325,2.66808 -1.51668,0.618917 -3.27825,0.932749 -5.29244,0.932749 -0.740848,0 -1.53417,-0.0519623 -2.36248,-0.165662 -0.819564,-0.113185 -1.6309,-0.296339 -2.42422,-0.56644 -0.793325,-0.261869 -1.54343,-0.610686 -2.2493,-1.04645 -0.706378,-0.435763 -1.31655,-0.976479 -1.84852,-1.62164l0 3.12134 -3.83646 0zm12.4159 -3.14758c1.55218,0 2.86873,-0.270101 3.96714,-0.802071 1.09018,-0.540716 1.9792,-1.26459 2.66808,-2.1711 0.688886,-0.915771 1.18587,-1.96171 1.49096,-3.15632 0.305086,-1.19462 0.462001,-2.4412 0.462001,-3.75826 0,-1.3078 -0.14817,-2.55438 -0.444509,-3.749 -0.296339,-1.19462 -0.784579,-2.24055 -1.45597,-3.15632 -0.68014,-0.90651 -1.56093,-1.63038 -2.65934,-2.1711 -1.09841,-0.53197 -2.44994,-0.802071 -4.0546,-0.802071 -1.00272,0 -2.02241,0.183154 -3.05137,0.558209 -1.02896,0.37454 -1.97045,0.950241 -2.80751,1.72607 -0.845802,0.776347 -1.53469,1.77032 -2.0754,2.97317 -0.53197,1.21211 -0.802071,2.65934 -0.802071,4.3422 0,1.5172 0.156916,2.89497 0.470747,4.14155 0.313832,1.23835 0.819564,2.31052 1.50845,3.20005 0.688886,0.898279 1.5954,1.58665 2.71181,2.08364 1.1159,0.496986 2.47618,0.741363 4.07158,0.741363z"/>
    <path id="_679111841" class="fil2" d="M359.058 1017.21l13.9244 0c0,-1.14214 -0.1137,-2.14486 -0.331324,-2.99941 -0.218139,-0.863294 -0.584447,-1.57842 -1.07269,-2.16235 -0.496986,-0.575701 -1.15963,-1.01146 -1.9792,-1.29906 -0.82831,-0.288108 -1.83977,-0.436277 -3.02565,-0.436277 -1.15963,0 -2.20557,0.131192 -3.13008,0.392547 -0.932749,0.270101 -1.71733,0.68014 -2.37174,1.23835 -0.645156,0.56644 -1.14214,1.28156 -1.49096,2.15361 -0.348302,0.86278 -0.52271,1.90048 -0.52271,3.11259zm0.0257239 3.42642c0,1.63038 0.183154,3.05188 0.540716,4.25525 0.357562,1.1941 0.915771,2.18808 1.68286,2.98192 0.767087,0.793325 1.75231,1.37726 2.95568,1.76106 1.19462,0.383801 2.6331,0.575701 4.29846,0.575701 1.29957,0 2.38924,-0.0787152 3.27002,-0.226885 0.889018,-0.156916 1.63038,-0.322578 2.21431,-0.514478 0.584447,-0.183154 1.05519,-0.357562 1.40401,-0.523224 0.348816,-0.165662 0.645156,-0.261355 0.880787,-0.296339l0.48824 2.48493c-0.235631,0.14817 -0.662648,0.366308 -1.26459,0.636409 -0.601425,0.270615 -1.3253,0.549463 -2.16235,0.82831 -0.82831,0.278847 -1.72607,0.523224 -2.67683,0.732617 -0.958987,0.200646 -1.89174,0.305086 -2.81625,0.305086 -1.14214,0 -2.18808,-0.0874613 -3.15632,-0.270101 -0.958987,-0.174408 -1.85675,-0.462516 -2.69381,-0.854548 -0.82831,-0.392547 -1.62215,-0.907025 -2.363,-1.56093 -0.741363,-0.645156 -1.45597,-1.42973 -2.15361,-2.34551 -0.392547,-0.514478 -0.732617,-1.1159 -1.01146,-1.80479 -0.278847,-0.688886 -0.523224,-1.41224 -0.715125,-2.15361 -0.200646,-0.749595 -0.34007,-1.4997 -0.435763,-2.2493 -0.0962074,-0.750109 -0.139424,-1.44774 -0.139424,-2.10164 0,-1.86601 0.200132,-3.61832 0.610171,-5.24871 0.409525,-1.62164 1.07217,-3.04314 1.99669,-4.25525 0.915257,-1.20285 2.11862,-2.16235 3.60083,-2.85947 1.48221,-0.697632 3.29575,-1.04645 5.44061,-1.04645 1.56967,0 2.90371,0.235631 4.00213,0.706378 1.09893,0.462001 2.01418,1.08092 2.7468,1.83977 0.732102,0.758341 1.3078,1.62164 1.71784,2.58937 0.418271,0.976479 0.732102,1.97045 0.950241,2.99066 0.209393,1.02021 0.34007,2.02293 0.392032,3.00815 0.0524768,0.976479 0.0787152,1.84852 0.0787152,2.61561l-17.6826 0z"/>
    <path id="_6791118412" class="fil2" d="M381.928 1020.34c0,-2.01418 0.305086,-3.85396 0.915257,-5.51932 0.618917,-1.67411 1.4997,-3.10385 2.64185,-4.28972 1.15089,-1.19462 2.56364,-2.12737 4.22901,-2.79001 1.67411,-0.662648 3.5571,-0.993972 5.67624,-0.993972 0.270101,0 0.653902,0.0174923 1.14214,0.0607084 0.496986,0.0437306 1.02844,0.122446 1.58665,0.218139 0.558209,0.104439 1.1159,0.235631 1.65662,0.383801 0.549463,0.156916 0.993972,0.331324 1.33404,0.540716l-1.28156 3.12134c-0.915771,-0.348816 -1.72659,-0.575701 -2.42422,-0.706378 -0.697118,-0.130677 -1.25533,-0.1919 -1.65662,-0.1919 -3.26076,0 -5.73695,0.802071 -7.4373,2.41547 -1.70035,1.60414 -2.55438,4.02785 -2.55438,7.26289 -0.0349845,1.56916 0.139424,2.99941 0.52271,4.28972 0.383801,1.29031 0.968248,2.39798 1.76157,3.32199 0.793325,0.915771 1.7873,1.62164 2.98192,2.11862 1.18587,0.496986 2.58937,0.723871 4.21152,0.688886 0.52271,0.0349845 1.06343,0 1.60414,-0.0869468 0.549463,-0.0962074 1.08966,-0.218139 1.63913,-0.375055 0.540716,-0.14817 1.08092,-0.322578 1.61289,-0.523224 0.523224,-0.1919 1.02896,-0.383801 1.4997,-0.575187l0.924517 3.01639c-0.34007,0.375055 -0.837056,0.688886 -1.4997,0.933263 -0.653902,0.252609 -1.35153,0.453255 -2.0929,0.601425 -0.740848,0.156916 -1.45597,0.261869 -2.14486,0.331324 -0.688886,0.069969 -1.22034,0.104439 -1.5954,0.104439 -2.12737,0 -4.01087,-0.322578 -5.65874,-0.958987 -1.63913,-0.636409 -3.02565,-1.53469 -4.15029,-2.69432 -1.12465,-1.15963 -1.9792,-2.55438 -2.56364,-4.20226 -0.583933,-1.63913 -0.880272,-3.4789 -0.880272,-5.50183z"/>
    <path id="_67911184123" class="fil2" d="M411.73 1026.14c0,0.505732 0.0612229,1.01146 0.183154,1.4997 0.113185,0.496986 0.322578,0.941495 0.610171,1.34279 0.287593,0.400778 0.671394,0.723871 1.15089,0.958987 0.479494,0.235631 1.06394,0.357562 1.76157,0.357562 1.7873,0 3.26076,-0.278847 4.4204,-0.82831 1.15963,-0.558209 2.08364,-1.29031 2.76378,-2.20608 0.68014,-0.924003 1.15089,-1.9792 1.4215,-3.17382 0.261355,-1.18587 0.392032,-2.43245 0.392032,-3.72276l0 -0.0262384c-0.732102,0.0174923 -1.55167,0.0869468 -2.46744,0.200646 -0.90651,0.121931 -1.83103,0.296339 -2.77252,0.531456 -0.932749,0.226885 -1.85727,0.505732 -2.7468,0.828824 -0.897764,0.322578 -1.69109,0.688372 -2.38872,1.10716 -0.697632,0.418271 -1.26459,0.889018 -1.6916,1.42099 -0.427017,0.523224 -0.636409,1.09018 -0.636409,1.7091zm-3.82772 0.183154c0,-1.14214 0.278847,-2.15361 0.82831,-3.04314 0.558209,-0.880272 1.29031,-1.65662 2.21483,-2.31927 0.915257,-0.671394 1.96171,-1.23783 3.13008,-1.71733 1.16838,-0.471262 2.363,-0.87204 3.58334,-1.19462 1.2296,-0.322578 2.43297,-0.593193 3.60958,-0.810818 1.16838,-0.209393 2.23232,-0.383801 3.16507,-0.523224l0 -2.19734c0,-0.523224 -0.165662,-1.0377 -0.48824,-1.52594 -0.322578,-0.496986 -0.784579,-0.932749 -1.4035,-1.3078 -0.610686,-0.366308 -1.35153,-0.671394 -2.22357,-0.889533 -0.863294,-0.217624 -1.84852,-0.331324 -2.93818,-0.331324 -0.68014,0 -1.37777,0.0962074 -2.0929,0.296854 -0.71461,0.191386 -1.386,0.427017 -2.00492,0.688372 -0.619432,0.261869 -1.15963,0.523224 -1.62215,0.776347 -0.462001,0.252609 -0.767087,0.435763 -0.915257,0.540716l-1.20336 -2.79053c0.270101,-0.392032 0.688886,-0.767087 1.23835,-1.12465 0.557694,-0.357562 1.2116,-0.671394 1.97045,-0.932749 0.758341,-0.261869 1.58665,-0.479494 2.48493,-0.636409 0.90651,-0.165662 1.83977,-0.244377 2.81625,-0.244377 0.557694,0.0174923 1.19462,0.0869468 1.90923,0.200646 0.715125,0.121931 1.44774,0.305086 2.19734,0.540716 0.750109,0.235116 1.48221,0.531456 2.19734,0.880272 0.715125,0.348816 1.36028,0.758855 1.91797,1.2296 0.566955,0.462001 1.01146,0.993972 1.35153,1.5779 0.34007,0.593193 0.514478,1.23835 0.514478,1.95347l0 7.18417 0 12.8434 -3.47015 0 -0.48824 -3.65331c-0.558209,0.645156 -1.20336,1.21211 -1.92672,1.70035 -0.723871,0.48824 -1.50845,0.889018 -2.33676,1.22034 -0.837056,0.34007 -1.7091,0.584447 -2.62487,0.758855 -0.90651,0.165662 -1.83103,0.252609 -2.77252,0.252609 -1.05519,0 -1.99669,-0.208878 -2.825,-0.627663 -0.82831,-0.418271 -1.5172,-0.967733 -2.08364,-1.65662 -0.558209,-0.688886 -0.985226,-1.48221 -1.27333,-2.363 -0.287593,-0.889018 -0.435763,-1.80479 -0.435763,-2.75503z"/>
    <path id="_679111841234" class="fil2" d="M453.966 1033.45l-0.688886 -2.48493c-0.819564,0.601425 -1.57842,1.07269 -2.2848,1.42973 -0.705864,0.357562 -1.4035,0.636924 -2.07489,0.819564 -0.671394,0.1919 -1.35153,0.314346 -2.03167,0.383801 -0.68014,0.069969 -1.386,0.104439 -2.11862,0.104439 -3.06938,0 -5.32742,-0.810818 -6.78339,-2.4412 -1.45597,-1.62164 -2.18859,-4.00213 -2.18859,-7.14096l0 -17.0107 3.82772 0 0 17.3158c0,1.19462 0.209393,2.1711 0.636409,2.92995 0.427531,0.749595 0.967733,1.35153 1.63038,1.7873 0.653902,0.427017 1.36903,0.732617 2.14486,0.889533 0.776347,0.165662 1.5172,0.243863 2.23232,0.243863 0.87204,0 1.72659,-0.113185 2.56313,-0.348816 0.837056,-0.22637 1.58716,-0.583933 2.24981,-1.07217 0.662648,-0.479494 1.19462,-1.09018 1.5954,-1.82228 0.401293,-0.732617 0.601939,-1.60466 0.601939,-2.60738l0 -17.3158 3.82772 0 0 26.3403 -3.13883 0z"/>
    <path id="_6791118412345" class="fil2" d="M465.074 1028.23c0.375055,0.253123 0.758341,0.505732 1.15963,0.750109 0.401293,0.243863 0.82831,0.470747 1.28156,0.662648 0.45377,0.200646 0.933263,0.357562 1.45649,0.470747 0.513964,0.121931 1.08966,0.174408 1.72607,0.156916 0.575701,0 1.15963,-0.0524768 1.74408,-0.165662 0.592679,-0.113185 1.12465,-0.287593 1.5954,-0.540716 0.479494,-0.243863 0.863294,-0.56644 1.15089,-0.967733 0.287593,-0.400778 0.436277,-0.897764 0.436277,-1.49096 0,-0.819564 -0.131192,-1.5172 -0.392547,-2.10987 -0.270101,-0.584447 -0.627663,-1.10716 -1.09018,-1.56093 -0.462001,-0.444509 -0.993972,-0.863294 -1.5954,-1.23783 -0.601425,-0.375055 -1.24658,-0.758855 -1.92672,-1.16838 -0.715125,-0.462001 -1.43025,-0.950756 -2.14486,-1.47347 -0.715125,-0.514478 -1.36028,-1.11642 -1.91849,-1.79656 -0.56644,-0.679626 -1.02021,-1.45597 -1.36903,-2.32801 -0.348816,-0.86278 -0.52271,-1.8655 -0.52271,-2.98192 0,-0.924003 0.208878,-1.73482 0.627663,-2.43245 0.418271,-0.697632 0.976479,-1.27282 1.6916,-1.73482 0.71461,-0.462516 1.55167,-0.811332 2.5194,-1.04645 0.959502,-0.235631 1.99669,-0.357562 3.10436,-0.357562 0.252609,0 0.618917,0.0174923 1.10716,0.0524768 0.48824,0.03447 0.993972,0.104439 1.53469,0.200132 0.53197,0.104954 1.05468,0.244377 1.56041,0.410039 0.496986,0.174408 0.907025,0.383801 1.21211,0.645156l-1.45597 2.83375c-0.601939,-0.183154 -1.17713,-0.348816 -1.75283,-0.48824 -0.56644,-0.130677 -1.1941,-0.209393 -1.87424,-0.226885 -0.619432,0 -1.18587,0.0437306 -1.72659,0.139424 -0.540716,0.0962074 -1.00272,0.244377 -1.4035,0.445024 -0.401293,0.209393 -0.723871,0.470747 -0.959502,0.793325 -0.235116,0.322578 -0.357562,0.706378 -0.357562,1.15089 0,0.819564 0.148684,1.4997 0.436277,2.05791 0.287593,0.548948 0.671394,1.03719 1.15963,1.45597 0.48824,0.418271 1.0377,0.793325 1.66537,1.15089 0.618917,0.348816 1.26407,0.723871 1.92672,1.1334 0.715125,0.410039 1.41276,0.863294 2.0929,1.37777 0.68014,0.514478 1.29031,1.09841 1.83103,1.77855 0.531456,0.671394 0.967733,1.439 1.29906,2.31052 0.331324,0.863294 0.514478,1.86601 0.548948,3.00815 0,1.10716 -0.243863,2.0754 -0.723356,2.90371 -0.48824,0.819564 -1.14214,1.50845 -1.95296,2.0574 -0.819564,0.540716 -1.77907,0.950756 -2.87748,1.22086 -1.09841,0.270101 -2.25804,0.409525 -3.48765,0.409525 -0.410039,0 -0.837056,-0.0257239 -1.29906,-0.0782007 -0.462001,-0.0524768 -0.967733,-0.14817 -1.5172,-0.305086 -0.558209,-0.156916 -1.16838,-0.383801 -1.83977,-0.688886 -0.671394,-0.305086 -1.42973,-0.715125 -2.26679,-1.2296l1.58665 -3.16507z"/>
    <path id="_67911184123456" class="fil2" d="M488.389 1017.21l13.9244 0c0,-1.14214 -0.1137,-2.14486 -0.331324,-2.99941 -0.218139,-0.863294 -0.584447,-1.57842 -1.07269,-2.16235 -0.496986,-0.575701 -1.15963,-1.01146 -1.9792,-1.29906 -0.82831,-0.288108 -1.83977,-0.436277 -3.02565,-0.436277 -1.15963,0 -2.20557,0.131192 -3.13008,0.392547 -0.932749,0.270101 -1.71733,0.68014 -2.37174,1.23835 -0.645156,0.56644 -1.14214,1.28156 -1.49096,2.15361 -0.348302,0.86278 -0.52271,1.90048 -0.52271,3.11259zm0.0257239 3.42642c0,1.63038 0.183154,3.05188 0.540716,4.25525 0.357562,1.1941 0.915771,2.18808 1.68286,2.98192 0.767087,0.793325 1.75231,1.37726 2.95568,1.76106 1.19462,0.383801 2.6331,0.575701 4.29846,0.575701 1.29957,0 2.38924,-0.0787152 3.27002,-0.226885 0.889018,-0.156916 1.63038,-0.322578 2.21431,-0.514478 0.584447,-0.183154 1.05519,-0.357562 1.40401,-0.523224 0.348816,-0.165662 0.645156,-0.261355 0.880787,-0.296339l0.48824 2.48493c-0.235631,0.14817 -0.662648,0.366308 -1.26459,0.636409 -0.601425,0.270615 -1.3253,0.549463 -2.16235,0.82831 -0.82831,0.278847 -1.72607,0.523224 -2.67683,0.732617 -0.958987,0.200646 -1.89174,0.305086 -2.81625,0.305086 -1.14214,0 -2.18808,-0.0874613 -3.15632,-0.270101 -0.958987,-0.174408 -1.85675,-0.462516 -2.69381,-0.854548 -0.82831,-0.392547 -1.62215,-0.907025 -2.363,-1.56093 -0.741363,-0.645156 -1.45597,-1.42973 -2.15361,-2.34551 -0.392547,-0.514478 -0.732617,-1.1159 -1.01146,-1.80479 -0.278847,-0.688886 -0.523224,-1.41224 -0.715125,-2.15361 -0.200646,-0.749595 -0.34007,-1.4997 -0.435763,-2.2493 -0.0962074,-0.750109 -0.139424,-1.44774 -0.139424,-2.10164 0,-1.86601 0.200132,-3.61832 0.610171,-5.24871 0.409525,-1.62164 1.07217,-3.04314 1.99669,-4.25525 0.915257,-1.20285 2.11862,-2.16235 3.60083,-2.85947 1.48221,-0.697632 3.29575,-1.04645 5.44061,-1.04645 1.56967,0 2.90371,0.235631 4.00213,0.706378 1.09893,0.462001 2.01418,1.08092 2.7468,1.83977 0.732102,0.758341 1.3078,1.62164 1.71784,2.58937 0.418271,0.976479 0.732102,1.97045 0.950241,2.99066 0.209393,1.02021 0.34007,2.02293 0.392032,3.00815 0.0524768,0.976479 0.0787152,1.84852 0.0787152,2.61561l-17.6826 0z"/>
    <path id="_679111841234567" class="fil2" d="M539.762 1026.14c0,0.505732 0.0612229,1.01146 0.183154,1.4997 0.113185,0.496986 0.322578,0.941495 0.610171,1.34279 0.287593,0.400778 0.671394,0.723871 1.15089,0.958987 0.479494,0.235631 1.06394,0.357562 1.76157,0.357562 1.7873,0 3.26076,-0.278847 4.4204,-0.82831 1.15963,-0.558209 2.08364,-1.29031 2.76378,-2.20608 0.68014,-0.924003 1.15089,-1.9792 1.4215,-3.17382 0.261355,-1.18587 0.392032,-2.43245 0.392032,-3.72276l0 -0.0262384c-0.732102,0.0174923 -1.55167,0.0869468 -2.46744,0.200646 -0.90651,0.121931 -1.83103,0.296339 -2.77252,0.531456 -0.932749,0.226885 -1.85727,0.505732 -2.7468,0.828824 -0.897764,0.322578 -1.69109,0.688372 -2.38872,1.10716 -0.697632,0.418271 -1.26459,0.889018 -1.6916,1.42099 -0.427017,0.523224 -0.636409,1.09018 -0.636409,1.7091zm-3.82772 0.183154c0,-1.14214 0.278847,-2.15361 0.82831,-3.04314 0.558209,-0.880272 1.29031,-1.65662 2.21483,-2.31927 0.915257,-0.671394 1.96171,-1.23783 3.13008,-1.71733 1.16838,-0.471262 2.363,-0.87204 3.58334,-1.19462 1.2296,-0.322578 2.43297,-0.593193 3.60958,-0.810818 1.16838,-0.209393 2.23232,-0.383801 3.16507,-0.523224l0 -2.19734c0,-0.523224 -0.165662,-1.0377 -0.48824,-1.52594 -0.322578,-0.496986 -0.784579,-0.932749 -1.4035,-1.3078 -0.610686,-0.366308 -1.35153,-0.671394 -2.22357,-0.889533 -0.863294,-0.217624 -1.84852,-0.331324 -2.93818,-0.331324 -0.68014,0 -1.37777,0.0962074 -2.0929,0.296854 -0.71461,0.191386 -1.386,0.427017 -2.00492,0.688372 -0.619432,0.261869 -1.15963,0.523224 -1.62215,0.776347 -0.462001,0.252609 -0.767087,0.435763 -0.915257,0.540716l-1.20336 -2.79053c0.270101,-0.392032 0.688886,-0.767087 1.23835,-1.12465 0.557694,-0.357562 1.2116,-0.671394 1.97045,-0.932749 0.758341,-0.261869 1.58665,-0.479494 2.48493,-0.636409 0.90651,-0.165662 1.83977,-0.244377 2.81625,-0.244377 0.557694,0.0174923 1.19462,0.0869468 1.90923,0.200646 0.715125,0.121931 1.44774,0.305086 2.19734,0.540716 0.750109,0.235116 1.48221,0.531456 2.19734,0.880272 0.715125,0.348816 1.36028,0.758855 1.91797,1.2296 0.566955,0.462001 1.01146,0.993972 1.35153,1.5779 0.34007,0.593193 0.514478,1.23835 0.514478,1.95347l0 7.18417 0 12.8434 -3.47015 0 -0.48824 -3.65331c-0.558209,0.645156 -1.20336,1.21211 -1.92672,1.70035 -0.723871,0.48824 -1.50845,0.889018 -2.33676,1.22034 -0.837056,0.34007 -1.7091,0.584447 -2.62487,0.758855 -0.90651,0.165662 -1.83103,0.252609 -2.77252,0.252609 -1.05519,0 -1.99669,-0.208878 -2.825,-0.627663 -0.82831,-0.418271 -1.5172,-0.967733 -2.08364,-1.65662 -0.558209,-0.688886 -0.985226,-1.48221 -1.27333,-2.363 -0.287593,-0.889018 -0.435763,-1.80479 -0.435763,-2.75503z"/>
    <polygon id="_6791118412345678" class="fil2" points="563.835,995.695 567.663,995.695 567.663,1033.45 563.835,1033.45 "/>
    <polygon id="_67911184123456789" class="fil2" points="575.327,995.695 579.155,995.695 579.155,1033.45 575.327,1033.45 "/>
    <polygon id="_6791118412345678910" class="fil2" points="611.215,995.695 615.043,995.695 615.043,1033.45 611.215,1033.45 "/>
    <path id="_679111841234567891011" class="fil2" d="M640.869 1033.45l-0.688886 -2.48493c-0.819564,0.601425 -1.57842,1.07269 -2.2848,1.42973 -0.705864,0.357562 -1.4035,0.636924 -2.07489,0.819564 -0.671394,0.1919 -1.35153,0.314346 -2.03167,0.383801 -0.68014,0.069969 -1.386,0.104439 -2.11862,0.104439 -3.06938,0 -5.32742,-0.810818 -6.78339,-2.4412 -1.45597,-1.62164 -2.18859,-4.00213 -2.18859,-7.14096l0 -17.0107 3.82772 0 0 17.3158c0,1.19462 0.209393,2.1711 0.636409,2.92995 0.427531,0.749595 0.967733,1.35153 1.63038,1.7873 0.653902,0.427017 1.36903,0.732617 2.14486,0.889533 0.776347,0.165662 1.5172,0.243863 2.23232,0.243863 0.87204,0 1.72659,-0.113185 2.56313,-0.348816 0.837056,-0.22637 1.58716,-0.583933 2.24981,-1.07217 0.662648,-0.479494 1.19462,-1.09018 1.5954,-1.82228 0.401293,-0.732617 0.601939,-1.60466 0.601939,-2.60738l0 -17.3158 3.82772 0 0 26.3403 -3.13883 0z"/>
    <path id="_67911184123456789101112" class="fil2" d="M650.39 1020.34c0,-2.01418 0.305086,-3.85396 0.915257,-5.51932 0.618917,-1.67411 1.4997,-3.10385 2.64185,-4.28972 1.15089,-1.19462 2.56364,-2.12737 4.22901,-2.79001 1.67411,-0.662648 3.5571,-0.993972 5.67624,-0.993972 0.270101,0 0.653902,0.0174923 1.14214,0.0607084 0.496986,0.0437306 1.02844,0.122446 1.58665,0.218139 0.558209,0.104439 1.1159,0.235631 1.65662,0.383801 0.549463,0.156916 0.993972,0.331324 1.33404,0.540716l-1.28156 3.12134c-0.915771,-0.348816 -1.72659,-0.575701 -2.42422,-0.706378 -0.697118,-0.130677 -1.25533,-0.1919 -1.65662,-0.1919 -3.26076,0 -5.73695,0.802071 -7.4373,2.41547 -1.70035,1.60414 -2.55438,4.02785 -2.55438,7.26289 -0.0349845,1.56916 0.139424,2.99941 0.52271,4.28972 0.383801,1.29031 0.968248,2.39798 1.76157,3.32199 0.793325,0.915771 1.7873,1.62164 2.98192,2.11862 1.18587,0.496986 2.58937,0.723871 4.21152,0.688886 0.52271,0.0349845 1.06343,0 1.60414,-0.0869468 0.549463,-0.0962074 1.08966,-0.218139 1.63913,-0.375055 0.540716,-0.14817 1.08092,-0.322578 1.61289,-0.523224 0.523224,-0.1919 1.02896,-0.383801 1.4997,-0.575187l0.924517 3.01639c-0.34007,0.375055 -0.837056,0.688886 -1.4997,0.933263 -0.653902,0.252609 -1.35153,0.453255 -2.0929,0.601425 -0.740848,0.156916 -1.45597,0.261869 -2.14486,0.331324 -0.688886,0.069969 -1.22034,0.104439 -1.5954,0.104439 -2.12737,0 -4.01087,-0.322578 -5.65874,-0.958987 -1.63913,-0.636409 -3.02565,-1.53469 -4.15029,-2.69432 -1.12465,-1.15963 -1.9792,-2.55438 -2.56364,-4.20226 -0.583933,-1.63913 -0.880272,-3.4789 -0.880272,-5.50183z"/>
    <polygon id="_6791118412345678910111213" class="fil2" points="678.945,1033.45 678.945,995.695 682.773,995.695 682.773,1018.02 693.628,1007.11 698.432,1007.11 686.583,1019.01 698.947,1033.45 694.448,1033.45 684.098,1021.34 682.773,1022.74 682.773,1033.45 "/>
    <path id="_679111841234567891011121314" class="fil2" d="M727.049 998.938c0,-0.305086 0.0519623,-0.601939 0.165662,-0.880787 0.113185,-0.287593 0.261355,-0.523224 0.462001,-0.732102 0.1919,-0.200646 0.427017,-0.366308 0.697632,-0.4975 0.278847,-0.130677 0.575187,-0.191386 0.897764,-0.191386 0.322578,0 0.627663,0.0607084 0.915771,0.191386 0.296339,0.131192 0.540202,0.296854 0.758341,0.4975 0.209393,0.208878 0.375055,0.444509 0.496986,0.732102 0.121931,0.278847 0.174408,0.575701 0.174408,0.880787 0,0.662648 -0.218139,1.22909 -0.671394,1.6916 -0.453255,0.470747 -1.01146,0.705864 -1.67411,0.705864 -0.645156,0 -1.17713,-0.235116 -1.5954,-0.705864 -0.418785,-0.462516 -0.627663,-1.02896 -0.627663,-1.6916zm4.15853 8.16991l0 26.3403 -3.8272 0 0 -26.3403 3.8272 0z"/>
    <path id="_67911184123456789101112131415" class="fil2" d="M738.828 1028.23c0.375055,0.253123 0.758341,0.505732 1.15963,0.750109 0.401293,0.243863 0.82831,0.470747 1.28156,0.662648 0.45377,0.200646 0.933263,0.357562 1.45649,0.470747 0.513964,0.121931 1.08966,0.174408 1.72607,0.156916 0.575701,0 1.15963,-0.0524768 1.74408,-0.165662 0.592679,-0.113185 1.12465,-0.287593 1.5954,-0.540716 0.479494,-0.243863 0.863294,-0.56644 1.15089,-0.967733 0.287593,-0.400778 0.436277,-0.897764 0.436277,-1.49096 0,-0.819564 -0.131192,-1.5172 -0.392547,-2.10987 -0.270101,-0.584447 -0.627663,-1.10716 -1.09018,-1.56093 -0.462001,-0.444509 -0.993972,-0.863294 -1.5954,-1.23783 -0.601425,-0.375055 -1.24658,-0.758855 -1.92672,-1.16838 -0.715125,-0.462001 -1.43025,-0.950756 -2.14486,-1.47347 -0.715125,-0.514478 -1.36028,-1.11642 -1.91849,-1.79656 -0.56644,-0.679626 -1.02021,-1.45597 -1.36903,-2.32801 -0.348816,-0.86278 -0.52271,-1.8655 -0.52271,-2.98192 0,-0.924003 0.208878,-1.73482 0.627663,-2.43245 0.418271,-0.697632 0.976479,-1.27282 1.6916,-1.73482 0.71461,-0.462516 1.55167,-0.811332 2.5194,-1.04645 0.959502,-0.235631 1.99669,-0.357562 3.10436,-0.357562 0.252609,0 0.618917,0.0174923 1.10716,0.0524768 0.48824,0.03447 0.993972,0.104439 1.53469,0.200132 0.53197,0.104954 1.05468,0.244377 1.56041,0.410039 0.496986,0.174408 0.907025,0.383801 1.21211,0.645156l-1.45597 2.83375c-0.601939,-0.183154 -1.17713,-0.348816 -1.75283,-0.48824 -0.56644,-0.130677 -1.1941,-0.209393 -1.87424,-0.226885 -0.619432,0 -1.18587,0.0437306 -1.72659,0.139424 -0.540716,0.0962074 -1.00272,0.244377 -1.4035,0.445024 -0.401293,0.209393 -0.723871,0.470747 -0.959502,0.793325 -0.235116,0.322578 -0.357562,0.706378 -0.357562,1.15089 0,0.819564 0.148684,1.4997 0.436277,2.05791 0.287593,0.548948 0.671394,1.03719 1.15963,1.45597 0.48824,0.418271 1.0377,0.793325 1.66537,1.15089 0.618917,0.348816 1.26407,0.723871 1.92672,1.1334 0.715125,0.410039 1.41276,0.863294 2.0929,1.37777 0.68014,0.514478 1.29031,1.09841 1.83103,1.77855 0.531456,0.671394 0.967733,1.439 1.29906,2.31052 0.331324,0.863294 0.514478,1.86601 0.548948,3.00815 0,1.10716 -0.243863,2.0754 -0.723356,2.90371 -0.48824,0.819564 -1.14214,1.50845 -1.95296,2.0574 -0.819564,0.540716 -1.77907,0.950756 -2.87748,1.22086 -1.09841,0.270101 -2.25804,0.409525 -3.48765,0.409525 -0.410039,0 -0.837056,-0.0257239 -1.29906,-0.0782007 -0.462001,-0.0524768 -0.967733,-0.14817 -1.5172,-0.305086 -0.558209,-0.156916 -1.16838,-0.383801 -1.83977,-0.688886 -0.671394,-0.305086 -1.42973,-0.715125 -2.26679,-1.2296l1.58665 -3.16507z"/>
    <path id="_6791118412345678910111213141516" class="fil2" d="M786.539 1017.21l13.9244 0c0,-1.14214 -0.1137,-2.14486 -0.331324,-2.99941 -0.218139,-0.863294 -0.584447,-1.57842 -1.07269,-2.16235 -0.496986,-0.575701 -1.15963,-1.01146 -1.9792,-1.29906 -0.82831,-0.288108 -1.83977,-0.436277 -3.02565,-0.436277 -1.15963,0 -2.20557,0.131192 -3.13008,0.392547 -0.932749,0.270101 -1.71733,0.68014 -2.37174,1.23835 -0.645156,0.56644 -1.14214,1.28156 -1.49096,2.15361 -0.348302,0.86278 -0.52271,1.90048 -0.52271,3.11259zm0.0257239 3.42642c0,1.63038 0.183154,3.05188 0.540716,4.25525 0.357562,1.1941 0.915771,2.18808 1.68286,2.98192 0.767087,0.793325 1.75231,1.37726 2.95568,1.76106 1.19462,0.383801 2.6331,0.575701 4.29846,0.575701 1.29957,0 2.38924,-0.0787152 3.27002,-0.226885 0.889018,-0.156916 1.63038,-0.322578 2.21431,-0.514478 0.584447,-0.183154 1.05519,-0.357562 1.40401,-0.523224 0.348816,-0.165662 0.645156,-0.261355 0.880787,-0.296339l0.48824 2.48493c-0.235631,0.14817 -0.662648,0.366308 -1.26459,0.636409 -0.601425,0.270615 -1.3253,0.549463 -2.16235,0.82831 -0.82831,0.278847 -1.72607,0.523224 -2.67683,0.732617 -0.958987,0.200646 -1.89174,0.305086 -2.81625,0.305086 -1.14214,0 -2.18808,-0.0874613 -3.15632,-0.270101 -0.958987,-0.174408 -1.85675,-0.462516 -2.69381,-0.854548 -0.82831,-0.392547 -1.62215,-0.907025 -2.363,-1.56093 -0.741363,-0.645156 -1.45597,-1.42973 -2.15361,-2.34551 -0.392547,-0.514478 -0.732617,-1.1159 -1.01146,-1.80479 -0.278847,-0.688886 -0.523224,-1.41224 -0.715125,-2.15361 -0.200646,-0.749595 -0.34007,-1.4997 -0.435763,-2.2493 -0.0962074,-0.750109 -0.139424,-1.44774 -0.139424,-2.10164 0,-1.86601 0.200132,-3.61832 0.610171,-5.24871 0.409525,-1.62164 1.07217,-3.04314 1.99669,-4.25525 0.915257,-1.20285 2.11862,-2.16235 3.60083,-2.85947 1.48221,-0.697632 3.29575,-1.04645 5.44061,-1.04645 1.56967,0 2.90371,0.235631 4.00213,0.706378 1.09893,0.462001 2.01418,1.08092 2.7468,1.83977 0.732102,0.758341 1.3078,1.62164 1.71784,2.58937 0.418271,0.976479 0.732102,1.97045 0.950241,2.99066 0.209393,1.02021 0.34007,2.02293 0.392032,3.00815 0.0524768,0.976479 0.0787152,1.84852 0.0787152,2.61561l-17.6826 0z"/>
    <path id="_679111841234567891011121314151617" class="fil2" d="M813.516 1026.14c0,0.505732 0.0612229,1.01146 0.183154,1.4997 0.113185,0.496986 0.322578,0.941495 0.610171,1.34279 0.287593,0.400778 0.671394,0.723871 1.15089,0.958987 0.479494,0.235631 1.06394,0.357562 1.76157,0.357562 1.7873,0 3.26076,-0.278847 4.4204,-0.82831 1.15963,-0.558209 2.08364,-1.29031 2.76378,-2.20608 0.68014,-0.924003 1.15089,-1.9792 1.4215,-3.17382 0.261355,-1.18587 0.392032,-2.43245 0.392032,-3.72276l0 -0.0262384c-0.732102,0.0174923 -1.55167,0.0869468 -2.46744,0.200646 -0.90651,0.121931 -1.83103,0.296339 -2.77252,0.531456 -0.932749,0.226885 -1.85727,0.505732 -2.7468,0.828824 -0.897764,0.322578 -1.69109,0.688372 -2.38872,1.10716 -0.697632,0.418271 -1.26459,0.889018 -1.6916,1.42099 -0.427017,0.523224 -0.636409,1.09018 -0.636409,1.7091zm-3.82772 0.183154c0,-1.14214 0.278847,-2.15361 0.82831,-3.04314 0.558209,-0.880272 1.29031,-1.65662 2.21483,-2.31927 0.915257,-0.671394 1.96171,-1.23783 3.13008,-1.71733 1.16838,-0.471262 2.363,-0.87204 3.58334,-1.19462 1.2296,-0.322578 2.43297,-0.593193 3.60958,-0.810818 1.16838,-0.209393 2.23232,-0.383801 3.16507,-0.523224l0 -2.19734c0,-0.523224 -0.165662,-1.0377 -0.48824,-1.52594 -0.322578,-0.496986 -0.784579,-0.932749 -1.4035,-1.3078 -0.610686,-0.366308 -1.35153,-0.671394 -2.22357,-0.889533 -0.863294,-0.217624 -1.84852,-0.331324 -2.93818,-0.331324 -0.68014,0 -1.37777,0.0962074 -2.0929,0.296854 -0.71461,0.191386 -1.386,0.427017 -2.00492,0.688372 -0.619432,0.261869 -1.15963,0.523224 -1.62215,0.776347 -0.462001,0.252609 -0.767087,0.435763 -0.915257,0.540716l-1.20336 -2.79053c0.270101,-0.392032 0.688886,-0.767087 1.23835,-1.12465 0.557694,-0.357562 1.2116,-0.671394 1.97045,-0.932749 0.758341,-0.261869 1.58665,-0.479494 2.48493,-0.636409 0.90651,-0.165662 1.83977,-0.244377 2.81625,-0.244377 0.557694,0.0174923 1.19462,0.0869468 1.90923,0.200646 0.715125,0.121931 1.44774,0.305086 2.19734,0.540716 0.750109,0.235116 1.48221,0.531456 2.19734,0.880272 0.715125,0.348816 1.36028,0.758855 1.91797,1.2296 0.566955,0.462001 1.01146,0.993972 1.35153,1.5779 0.34007,0.593193 0.514478,1.23835 0.514478,1.95347l0 7.18417 0 12.8434 -3.47015 0 -0.48824 -3.65331c-0.558209,0.645156 -1.20336,1.21211 -1.92672,1.70035 -0.723871,0.48824 -1.50845,0.889018 -2.33676,1.22034 -0.837056,0.34007 -1.7091,0.584447 -2.62487,0.758855 -0.90651,0.165662 -1.83103,0.252609 -2.77252,0.252609 -1.05519,0 -1.99669,-0.208878 -2.825,-0.627663 -0.82831,-0.418271 -1.5172,-0.967733 -2.08364,-1.65662 -0.558209,-0.688886 -0.985226,-1.48221 -1.27333,-2.363 -0.287593,-0.889018 -0.435763,-1.80479 -0.435763,-2.75503z"/>
    <path id="_67911184123456789101112131415161718" class="fil2" d="M837.589 1007.11l3.82772 0 0 3.33073c1.15963,-1.2296 2.22306,-2.1711 3.2088,-2.825 0.976479,-0.654416 1.90923,-0.98574 2.79001,-0.98574 0.331324,0 0.688886,0.0349845 1.08966,0.104954 0.401293,0.0694545 0.775833,0.183154 1.1334,0.357562 0.357562,0.165662 0.662648,0.400778 0.907025,0.688886 0.252609,0.287593 0.375055,0.645156 0.375055,1.07217 0,0.322578 -0.156916,0.645156 -0.471262,0.967733 -0.313832,0.331324 -0.670879,0.549463 -1.06343,0.671394 -0.183154,0.0524768 -0.427531,0.0874613 -0.723871,0.121931 -0.305086,0.0349845 -0.610171,0.0612229 -0.932749,0.0787152 -0.322578,0.0174923 -0.636409,0.0349845 -0.924517,0.0437306 -0.287593,0.00874613 -0.513964,0.00874613 -0.688372,0.00874613 -0.68014,0 -1.26459,0.174408 -1.75283,0.523224 -0.479494,0.348302 -0.897764,0.802071 -1.24658,1.36851 -0.348816,0.558209 -0.636924,1.17713 -0.854548,1.84852 -0.226885,0.671394 -0.401293,1.33404 -0.523224,1.9792 -0.130677,0.645156 -0.218139,1.24709 -0.261869,1.78781 -0.0432162,0.548948 -0.0607084,0.958987 -0.0607084,1.22909l0 13.9681 -3.82772 0 0 -26.3403z"/>
    <path id="_6791118412345678910111213141516171819" class="fil2" d="M856.022 1007.11l3.82772 0 0 3.0951c0.375055,-0.34007 0.767087,-0.697632 1.18587,-1.06394 0.418271,-0.365794 0.958987,-0.697118 1.62164,-0.993972 0.671394,-0.296339 1.4997,-0.548948 2.49368,-0.740848 1.00272,-0.200646 2.25804,-0.296339 3.77524,-0.296339 1.34279,0 2.58114,0.217624 3.71453,0.653902 1.1334,0.435763 2.10987,1.04593 2.92944,1.84852 0.819564,0.802071 1.45597,1.76106 1.901,2.88571 0.453255,1.12465 0.68014,2.38924 0.68014,3.78399l0 17.1681 -3.82772 0 0 -16.985c0,-0.261355 -0.00874613,-0.583933 -0.0349845,-0.976479 -0.0262384,-0.392032 -0.104439,-0.802071 -0.235631,-1.24658 -0.121931,-0.445024 -0.34007,-0.880787 -0.636409,-1.31655 -0.296339,-0.436277 -0.71461,-0.82831 -1.25533,-1.18587 -0.53197,-0.357562 -1.22086,-0.653902 -2.04042,-0.87204 -0.82831,-0.218139 -1.84852,-0.331324 -3.06063,-0.331324 -0.985226,0 -1.91797,0.209393 -2.79001,0.636409 -0.863294,0.427531 -1.63038,0.950241 -2.28428,1.56093 -0.653902,0.610171 -1.17713,1.26407 -1.56093,1.97045 -0.383286,0.697632 -0.575187,1.3253 -0.575187,1.8835l0 16.8625 -3.82772 0 0 -26.3403z"/>
    <path id="_679111841234567891011121314151617181920" class="fil2" d="M887.088 1017.21l13.9244 0c0,-1.14214 -0.1137,-2.14486 -0.331324,-2.99941 -0.218139,-0.863294 -0.584447,-1.57842 -1.07269,-2.16235 -0.496986,-0.575701 -1.15963,-1.01146 -1.9792,-1.29906 -0.82831,-0.288108 -1.83977,-0.436277 -3.02565,-0.436277 -1.15963,0 -2.20557,0.131192 -3.13008,0.392547 -0.932749,0.270101 -1.71733,0.68014 -2.37174,1.23835 -0.645156,0.56644 -1.14214,1.28156 -1.49096,2.15361 -0.348302,0.86278 -0.52271,1.90048 -0.52271,3.11259zm0.0257239 3.42642c0,1.63038 0.183154,3.05188 0.540716,4.25525 0.357562,1.1941 0.915771,2.18808 1.68286,2.98192 0.767087,0.793325 1.75231,1.37726 2.95568,1.76106 1.19462,0.383801 2.6331,0.575701 4.29846,0.575701 1.29957,0 2.38924,-0.0787152 3.27002,-0.226885 0.889018,-0.156916 1.63038,-0.322578 2.21431,-0.514478 0.584447,-0.183154 1.05519,-0.357562 1.40401,-0.523224 0.348816,-0.165662 0.645156,-0.261355 0.880787,-0.296339l0.48824 2.48493c-0.235631,0.14817 -0.662648,0.366308 -1.26459,0.636409 -0.601425,0.270615 -1.3253,0.549463 -2.16235,0.82831 -0.82831,0.278847 -1.72607,0.523224 -2.67683,0.732617 -0.958987,0.200646 -1.89174,0.305086 -2.81625,0.305086 -1.14214,0 -2.18808,-0.0874613 -3.15632,-0.270101 -0.958987,-0.174408 -1.85675,-0.462516 -2.69381,-0.854548 -0.82831,-0.392547 -1.62215,-0.907025 -2.363,-1.56093 -0.741363,-0.645156 -1.45597,-1.42973 -2.15361,-2.34551 -0.392547,-0.514478 -0.732617,-1.1159 -1.01146,-1.80479 -0.278847,-0.688886 -0.523224,-1.41224 -0.715125,-2.15361 -0.200646,-0.749595 -0.34007,-1.4997 -0.435763,-2.2493 -0.0962074,-0.750109 -0.139424,-1.44774 -0.139424,-2.10164 0,-1.86601 0.200132,-3.61832 0.610171,-5.24871 0.409525,-1.62164 1.07217,-3.04314 1.99669,-4.25525 0.915257,-1.20285 2.11862,-2.16235 3.60083,-2.85947 1.48221,-0.697632 3.29575,-1.04645 5.44061,-1.04645 1.56967,0 2.90371,0.235631 4.00213,0.706378 1.09893,0.462001 2.01418,1.08092 2.7468,1.83977 0.732102,0.758341 1.3078,1.62164 1.71784,2.58937 0.418271,0.976479 0.732102,1.97045 0.950241,2.99066 0.209393,1.02021 0.34007,2.02293 0.392032,3.00815 0.0524768,0.976479 0.0787152,1.84852 0.0787152,2.61561l-17.6826 0z"/>
    <path id="_67911184123456789101112131415161718192021" class="fil2" d="M931.538 1033.45l-0.584447 -3.12134c-0.53197,0.645156 -1.14214,1.18587 -1.84852,1.62164 -0.705864,0.435763 -1.45597,0.784579 -2.2493,1.0377 -0.793325,0.252609 -1.60414,0.435763 -2.42422,0.548948 -0.82831,0.1137 -1.62164,0.165662 -2.36248,0.165662 -2.03167,0 -3.79273,-0.313832 -5.30118,-0.932749 -1.50845,-0.618917 -2.77304,-1.50845 -3.7845,-2.65934 -1.01146,-1.14214 -1.7698,-2.53741 -2.27554,-4.17653 -0.496986,-1.63038 -0.749595,-3.47015 -0.749595,-5.51932 0,-1.5779 0.165662,-3.00764 0.496986,-4.28972 0.331324,-1.27282 0.775833,-2.40621 1.34279,-3.39144 0.557694,-0.993972 1.22034,-1.83977 1.96171,-2.54615 0.749595,-0.706378 1.55167,-1.29031 2.38872,-1.75231 0.845802,-0.45377 1.71784,-0.79384 2.60738,-1.00272 0.897764,-0.218139 1.76106,-0.322578 2.59811,-0.322578 0.575701,0 1.26407,0.03447 2.06666,0.104439 0.802071,0.069969 1.63038,0.244377 2.50191,0.53197 0.863294,0.296339 1.73533,0.723356 2.60738,1.29031 0.863294,0.575701 1.67411,1.36903 2.42371,2.39798l0 -15.7384 3.82772 0 0 37.7539 -3.24327 0zm-17.7521 -13.0353c0,1.31706 0.156916,2.56364 0.462001,3.75826 0.305086,1.19462 0.802071,2.24055 1.49096,3.13883 0.688886,0.90651 1.5779,1.62164 2.65934,2.16235 1.08092,0.53197 2.39747,0.802071 3.96714,0.802071 1.7698,0 3.24327,-0.278847 4.4029,-0.82831 1.16838,-0.558209 2.0929,-1.29906 2.77304,-2.22357 0.68014,-0.924003 1.15963,-2.00492 1.42973,-3.23452 0.270101,-1.22086 0.410039,-2.51117 0.410039,-3.85396 0,-1.18587 -0.209393,-2.363 -0.628178,-3.50514 -0.418271,-1.15089 -1.01146,-2.17984 -1.7873,-3.07761 -0.775833,-0.907025 -1.71733,-1.63038 -2.81625,-2.18859 -1.10716,-0.549463 -2.363,-0.82831 -3.75775,-0.82831 -1.60466,0 -2.94745,0.270101 -4.04586,0.802071 -1.09841,0.540716 -1.98794,1.26459 -2.65934,2.1711 -0.671394,0.915771 -1.15963,1.96171 -1.45597,3.15632 -0.296339,1.19462 -0.444509,2.4412 -0.444509,3.749z"/>
    <path id="_6791118412345678910111213141516171819202122" class="fil2" d="M966.074 998.938c0,-0.305086 0.0519623,-0.601939 0.165662,-0.880787 0.113185,-0.287593 0.261355,-0.523224 0.462001,-0.732102 0.1919,-0.200646 0.427017,-0.366308 0.697632,-0.4975 0.278847,-0.130677 0.575187,-0.191386 0.897764,-0.191386 0.322578,0 0.627663,0.0607084 0.915771,0.191386 0.296339,0.131192 0.540202,0.296854 0.758341,0.4975 0.209393,0.208878 0.375055,0.444509 0.496986,0.732102 0.121931,0.278847 0.174408,0.575701 0.174408,0.880787 0,0.662648 -0.218139,1.22909 -0.671394,1.6916 -0.453255,0.470747 -1.01146,0.705864 -1.67411,0.705864 -0.645156,0 -1.17713,-0.235116 -1.5954,-0.705864 -0.418785,-0.462516 -0.627663,-1.02896 -0.627663,-1.6916zm4.15853 8.16991l0 26.3403 -3.8272 0 0 -26.3403 3.8272 0z"/>
    <path id="_679111841234567891011121314151617181920212223" class="fil2" d="M977.54 1007.11l3.82772 0 0 3.0951c0.375055,-0.34007 0.767087,-0.697632 1.18587,-1.06394 0.418271,-0.365794 0.958987,-0.697118 1.62164,-0.993972 0.671394,-0.296339 1.4997,-0.548948 2.49368,-0.740848 1.00272,-0.200646 2.25804,-0.296339 3.77524,-0.296339 1.34279,0 2.58114,0.217624 3.71453,0.653902 1.1334,0.435763 2.10987,1.04593 2.92944,1.84852 0.819564,0.802071 1.45597,1.76106 1.901,2.88571 0.453255,1.12465 0.68014,2.38924 0.68014,3.78399l0 17.1681 -3.82772 0 0 -16.985c0,-0.261355 -0.00874613,-0.583933 -0.0349845,-0.976479 -0.0262384,-0.392032 -0.104439,-0.802071 -0.235631,-1.24658 -0.121931,-0.445024 -0.34007,-0.880787 -0.636409,-1.31655 -0.296339,-0.436277 -0.71461,-0.82831 -1.25533,-1.18587 -0.53197,-0.357562 -1.22086,-0.653902 -2.04042,-0.87204 -0.82831,-0.218139 -1.84852,-0.331324 -3.06063,-0.331324 -0.985226,0 -1.91797,0.209393 -2.79001,0.636409 -0.863294,0.427531 -1.63038,0.950241 -2.28428,1.56093 -0.653902,0.610171 -1.17713,1.26407 -1.56093,1.97045 -0.383286,0.697632 -0.575187,1.3253 -0.575187,1.8835l0 16.8625 -3.82772 0 0 -26.3403z"/>
    <path id="_67911184123456789101112131415161718192021222324" class="fil2" d="M1038.96 1033.45c-2.38049,0 -4.20277,-0.671394 -5.4581,-2.01418 -1.26459,-1.35153 -1.89225,-3.36572 -1.89225,-6.05952l0 -14.8401 -3.70579 0 0 -3.42642 3.70579 0 0 -5.86814 3.82772 -1.09841 0 6.96655 6.72217 0 0 3.42642 -6.72217 0 0 15.8079c0,0.601425 0.069969,1.12465 0.200646,1.56916 0.139424,0.45377 0.366308,0.837056 0.697632,1.15089 0.322578,0.314346 0.749595,0.558209 1.28156,0.715125 0.540716,0.165662 1.20336,0.244377 1.98794,0.244377 0.218139,-0.0174923 0.479494,-0.0437306 0.784579,-0.0787152l0.924517 -0.104439c0.305086,-0.0349845 0.583933,-0.069969 0.845288,-0.104954l0.53197 -0.0956929 0.383801 3.24327c-0.592679,0.156916 -1.25584,0.288108 -1.97045,0.401293 -0.715125,0.113185 -1.43025,0.165662 -2.14486,0.165662z"/>
    <path id="_6791118412345678910111213141516171819202122232425" class="fil2" d="M1048.17 995.695l3.82772 0 0 14.5088c0.375055,-0.34007 0.767087,-0.697632 1.18587,-1.06394 0.418271,-0.365794 0.958987,-0.697118 1.62164,-0.993972 0.671394,-0.296339 1.4997,-0.548948 2.49368,-0.740848 1.00272,-0.200646 2.25804,-0.296339 3.77524,-0.296339 1.34279,0 2.58114,0.217624 3.71453,0.653902 1.1334,0.435763 2.10987,1.04593 2.92944,1.84852 0.819564,0.802071 1.45597,1.76106 1.901,2.88571 0.453255,1.12465 0.68014,2.38924 0.68014,3.78399l0 17.1681 -3.82772 0 0 -16.985c0,-0.261355 -0.00874613,-0.583933 -0.0349845,-0.976479 -0.0262384,-0.392032 -0.104439,-0.802071 -0.235631,-1.24658 -0.121931,-0.445024 -0.34007,-0.880787 -0.636409,-1.31655 -0.296339,-0.436277 -0.71461,-0.82831 -1.25533,-1.18587 -0.53197,-0.357562 -1.22086,-0.653902 -2.04042,-0.87204 -0.82831,-0.218139 -1.84852,-0.331324 -3.06063,-0.331324 -0.985226,0 -1.91797,0.209393 -2.79001,0.636409 -0.863294,0.427531 -1.63038,0.950241 -2.28428,1.56093 -0.653902,0.610171 -1.17713,1.26407 -1.56093,1.97045 -0.383286,0.697632 -0.575187,1.3253 -0.575187,1.8835l0 16.8625 -3.82772 0 0 -37.7539z"/>
    <path id="_679111841234567891011121314151617181920212223242526" class="fil2" d="M1079.24 1017.21l13.9244 0c0,-1.14214 -0.1137,-2.14486 -0.331324,-2.99941 -0.218139,-0.863294 -0.584447,-1.57842 -1.07269,-2.16235 -0.496986,-0.575701 -1.15963,-1.01146 -1.9792,-1.29906 -0.82831,-0.288108 -1.83977,-0.436277 -3.02565,-0.436277 -1.15963,0 -2.20557,0.131192 -3.13008,0.392547 -0.932749,0.270101 -1.71733,0.68014 -2.37174,1.23835 -0.645156,0.56644 -1.14214,1.28156 -1.49096,2.15361 -0.348302,0.86278 -0.52271,1.90048 -0.52271,3.11259zm0.0257239 3.42642c0,1.63038 0.183154,3.05188 0.540716,4.25525 0.357562,1.1941 0.915771,2.18808 1.68286,2.98192 0.767087,0.793325 1.75231,1.37726 2.95568,1.76106 1.19462,0.383801 2.6331,0.575701 4.29846,0.575701 1.29957,0 2.38924,-0.0787152 3.27002,-0.226885 0.889018,-0.156916 1.63038,-0.322578 2.21431,-0.514478 0.584447,-0.183154 1.05519,-0.357562 1.40401,-0.523224 0.348816,-0.165662 0.645156,-0.261355 0.880787,-0.296339l0.48824 2.48493c-0.235631,0.14817 -0.662648,0.366308 -1.26459,0.636409 -0.601425,0.270615 -1.3253,0.549463 -2.16235,0.82831 -0.82831,0.278847 -1.72607,0.523224 -2.67683,0.732617 -0.958987,0.200646 -1.89174,0.305086 -2.81625,0.305086 -1.14214,0 -2.18808,-0.0874613 -3.15632,-0.270101 -0.958987,-0.174408 -1.85675,-0.462516 -2.69381,-0.854548 -0.82831,-0.392547 -1.62215,-0.907025 -2.363,-1.56093 -0.741363,-0.645156 -1.45597,-1.42973 -2.15361,-2.34551 -0.392547,-0.514478 -0.732617,-1.1159 -1.01146,-1.80479 -0.278847,-0.688886 -0.523224,-1.41224 -0.715125,-2.15361 -0.200646,-0.749595 -0.34007,-1.4997 -0.435763,-2.2493 -0.0962074,-0.750109 -0.139424,-1.44774 -0.139424,-2.10164 0,-1.86601 0.200132,-3.61832 0.610171,-5.24871 0.409525,-1.62164 1.07217,-3.04314 1.99669,-4.25525 0.915257,-1.20285 2.11862,-2.16235 3.60083,-2.85947 1.48221,-0.697632 3.29575,-1.04645 5.44061,-1.04645 1.56967,0 2.90371,0.235631 4.00213,0.706378 1.09893,0.462001 2.01418,1.08092 2.7468,1.83977 0.732102,0.758341 1.3078,1.62164 1.71784,2.58937 0.418271,0.976479 0.732102,1.97045 0.950241,2.99066 0.209393,1.02021 0.34007,2.02293 0.392032,3.00815 0.0524768,0.976479 0.0787152,1.84852 0.0787152,2.61561l-17.6826 0z"/>
    <path id="_67911184123456789101112131415161718192021222324252627" class="fil2" d="M1130.33 1017.21l13.9244 0c0,-1.14214 -0.1137,-2.14486 -0.331324,-2.99941 -0.218139,-0.863294 -0.584447,-1.57842 -1.07269,-2.16235 -0.496986,-0.575701 -1.15963,-1.01146 -1.9792,-1.29906 -0.82831,-0.288108 -1.83977,-0.436277 -3.02565,-0.436277 -1.15963,0 -2.20557,0.131192 -3.13008,0.392547 -0.932749,0.270101 -1.71733,0.68014 -2.37174,1.23835 -0.645156,0.56644 -1.14214,1.28156 -1.49096,2.15361 -0.348302,0.86278 -0.52271,1.90048 -0.52271,3.11259zm0.0257239 3.42642c0,1.63038 0.183154,3.05188 0.540716,4.25525 0.357562,1.1941 0.915771,2.18808 1.68286,2.98192 0.767087,0.793325 1.75231,1.37726 2.95568,1.76106 1.19462,0.383801 2.6331,0.575701 4.29846,0.575701 1.29957,0 2.38924,-0.0787152 3.27002,-0.226885 0.889018,-0.156916 1.63038,-0.322578 2.21431,-0.514478 0.584447,-0.183154 1.05519,-0.357562 1.40401,-0.523224 0.348816,-0.165662 0.645156,-0.261355 0.880787,-0.296339l0.48824 2.48493c-0.235631,0.14817 -0.662648,0.366308 -1.26459,0.636409 -0.601425,0.270615 -1.3253,0.549463 -2.16235,0.82831 -0.82831,0.278847 -1.72607,0.523224 -2.67683,0.732617 -0.958987,0.200646 -1.89174,0.305086 -2.81625,0.305086 -1.14214,0 -2.18808,-0.0874613 -3.15632,-0.270101 -0.958987,-0.174408 -1.85675,-0.462516 -2.69381,-0.854548 -0.82831,-0.392547 -1.62215,-0.907025 -2.363,-1.56093 -0.741363,-0.645156 -1.45597,-1.42973 -2.15361,-2.34551 -0.392547,-0.514478 -0.732617,-1.1159 -1.01146,-1.80479 -0.278847,-0.688886 -0.523224,-1.41224 -0.715125,-2.15361 -0.200646,-0.749595 -0.34007,-1.4997 -0.435763,-2.2493 -0.0962074,-0.750109 -0.139424,-1.44774 -0.139424,-2.10164 0,-1.86601 0.200132,-3.61832 0.610171,-5.24871 0.409525,-1.62164 1.07217,-3.04314 1.99669,-4.25525 0.915257,-1.20285 2.11862,-2.16235 3.60083,-2.85947 1.48221,-0.697632 3.29575,-1.04645 5.44061,-1.04645 1.56967,0 2.90371,0.235631 4.00213,0.706378 1.09893,0.462001 2.01418,1.08092 2.7468,1.83977 0.732102,0.758341 1.3078,1.62164 1.71784,2.58937 0.418271,0.976479 0.732102,1.97045 0.950241,2.99066 0.209393,1.02021 0.34007,2.02293 0.392032,3.00815 0.0524768,0.976479 0.0787152,1.84852 0.0787152,2.61561l-17.6826 0z"/>
    <path id="_6791118412345678910111213141516171819202122232425262728" class="fil2" d="M1154.48 1007.11l3.82772 0 0 3.0951c0.375055,-0.34007 0.767087,-0.697632 1.18587,-1.06394 0.418271,-0.365794 0.958987,-0.697118 1.62164,-0.993972 0.671394,-0.296339 1.4997,-0.548948 2.49368,-0.740848 1.00272,-0.200646 2.25804,-0.296339 3.77524,-0.296339 1.34279,0 2.58114,0.217624 3.71453,0.653902 1.1334,0.435763 2.10987,1.04593 2.92944,1.84852 0.819564,0.802071 1.45597,1.76106 1.901,2.88571 0.453255,1.12465 0.68014,2.38924 0.68014,3.78399l0 17.1681 -3.82772 0 0 -16.985c0,-0.261355 -0.00874613,-0.583933 -0.0349845,-0.976479 -0.0262384,-0.392032 -0.104439,-0.802071 -0.235631,-1.24658 -0.121931,-0.445024 -0.34007,-0.880787 -0.636409,-1.31655 -0.296339,-0.436277 -0.71461,-0.82831 -1.25533,-1.18587 -0.53197,-0.357562 -1.22086,-0.653902 -2.04042,-0.87204 -0.82831,-0.218139 -1.84852,-0.331324 -3.06063,-0.331324 -0.985226,0 -1.91797,0.209393 -2.79001,0.636409 -0.863294,0.427531 -1.63038,0.950241 -2.28428,1.56093 -0.653902,0.610171 -1.17713,1.26407 -1.56093,1.97045 -0.383286,0.697632 -0.575187,1.3253 -0.575187,1.8835l0 16.8625 -3.82772 0 0 -26.3403z"/>
    <path id="_679111841234567891011121314151617181920212223242526272829" class="fil2" d="M1203.29 1033.45l-0.584447 -3.12134c-0.53197,0.645156 -1.14214,1.18587 -1.84852,1.62164 -0.705864,0.435763 -1.45597,0.784579 -2.2493,1.0377 -0.793325,0.252609 -1.60414,0.435763 -2.42422,0.548948 -0.82831,0.1137 -1.62164,0.165662 -2.36248,0.165662 -2.03167,0 -3.79273,-0.313832 -5.30118,-0.932749 -1.50845,-0.618917 -2.77304,-1.50845 -3.7845,-2.65934 -1.01146,-1.14214 -1.7698,-2.53741 -2.27554,-4.17653 -0.496986,-1.63038 -0.749595,-3.47015 -0.749595,-5.51932 0,-1.5779 0.165662,-3.00764 0.496986,-4.28972 0.331324,-1.27282 0.775833,-2.40621 1.34279,-3.39144 0.557694,-0.993972 1.22034,-1.83977 1.96171,-2.54615 0.749595,-0.706378 1.55167,-1.29031 2.38872,-1.75231 0.845802,-0.45377 1.71784,-0.79384 2.60738,-1.00272 0.897764,-0.218139 1.76106,-0.322578 2.59811,-0.322578 0.575701,0 1.26407,0.03447 2.06666,0.104439 0.802071,0.069969 1.63038,0.244377 2.50191,0.53197 0.863294,0.296339 1.73533,0.723356 2.60738,1.29031 0.863294,0.575701 1.67411,1.36903 2.42371,2.39798l0 -15.7384 3.82772 0 0 37.7539 -3.24327 0zm-17.7521 -13.0353c0,1.31706 0.156916,2.56364 0.462001,3.75826 0.305086,1.19462 0.802071,2.24055 1.49096,3.13883 0.688886,0.90651 1.5779,1.62164 2.65934,2.16235 1.08092,0.53197 2.39747,0.802071 3.96714,0.802071 1.7698,0 3.24327,-0.278847 4.4029,-0.82831 1.16838,-0.558209 2.0929,-1.29906 2.77304,-2.22357 0.68014,-0.924003 1.15963,-2.00492 1.42973,-3.23452 0.270101,-1.22086 0.410039,-2.51117 0.410039,-3.85396 0,-1.18587 -0.209393,-2.363 -0.628178,-3.50514 -0.418271,-1.15089 -1.01146,-2.17984 -1.7873,-3.07761 -0.775833,-0.907025 -1.71733,-1.63038 -2.81625,-2.18859 -1.10716,-0.549463 -2.363,-0.82831 -3.75775,-0.82831 -1.60466,0 -2.94745,0.270101 -4.04586,0.802071 -1.09841,0.540716 -1.98794,1.26459 -2.65934,2.1711 -0.671394,0.915771 -1.15963,1.96171 -1.45597,3.15632 -0.296339,1.19462 -0.444509,2.4412 -0.444509,3.749z"/>
    <path id="_206226648" class="fil2" d="M257.487 1005.13l0 23.8996 -22.1035 0 0 -18.8618c0,-10.2319 1.21057,-17.6126 3.6708,-22.2208 3.20263,-6.09194 8.27898,-10.7001 15.2306,-13.824l4.99867 8.00528c-4.17859,1.75746 -7.26392,4.37409 -9.25546,7.84939 -1.99154,3.43671 -3.08533,8.51358 -3.31941,15.1524l10.7783 0zm35.4594 0l0 23.8996 -22.1035 0 0 -18.8618c0,-10.2319 1.24967,-17.6126 3.6708,-22.2208 3.20211,-6.09194 8.27898,-10.7001 15.2301,-13.824l5.03777 8.00528c-4.21769,1.75746 -7.3025,4.37409 -9.29405,7.84939 -1.95296,3.43671 -3.08533,8.51358 -3.31941,15.1524l10.7783 0z"/>
    <path id="_204666112" class="fil2" d="M1234.25 998.59l0 -23.8996 22.0644 0 0 18.9009c0,10.1928 -1.17147,17.5735 -3.5144,22.0649 -3.28031,6.17014 -8.39628,10.8174 -15.3479,13.9413l-5.03726 -8.12258c4.10039,-1.67926 7.1852,-4.29589 9.21585,-7.92759 2.03116,-3.63222 3.12443,-8.59178 3.35851,-14.9574l-10.7392 0zm35.4594 0l0 -23.8996 22.1035 0 0 18.9009c0,10.1928 -1.21057,17.5735 -3.5535,22.0649 -3.28031,6.17014 -8.39628,10.8174 -15.3474,13.9413l-5.03777 -8.12258c4.13949,-1.67926 7.1852,-4.29589 9.21636,-7.92759 2.03065,-3.63222 3.16301,-8.59178 3.35851,-14.9574l-10.7397 0z"/>
    <rect id="_203902368" class="fil1 str0" x="0.000490371" width="1528" height="255.778"/>
    <path id="_205805352" class="fil3" d="M242.304 587.823c0,2.56827 -0.925546,4.74812 -2.74731,6.47985 -1.85109,1.76209 -4.15081,2.62795 -6.86828,2.62795l-88.8977 0c-2.80699,0 -5.1062,-0.865867 -6.95729,-2.62795 -1.82177,-1.73173 -2.74731,-3.91158 -2.74731,-6.47985l0 -109.681c0,-2.12016 0.806187,-3.91209 2.41856,-5.43495 1.58253,-1.52286 3.52366,-2.26936 5.79302,-2.26936l91.7644 0c2.29972,0 4.24033,0.746508 5.82338,2.26936 1.61237,1.52286 2.41856,3.31478 2.41856,5.43495l0 109.681zm-87.0461 -5.58415l56.0797 0c2.09032,0 3.49382,-0.358077 4.15081,-1.04491 0.686828,-0.716668 1.01507,-2.5086 1.01507,-5.43495l0 -23.9788c0,-0.208878 -0.0596795,-0.865867 -0.179038,-1.91129 -0.119359,-1.04491 -0.179038,-2.00081 -0.179038,-2.89651 0,-1.61237 0.238718,-3.34462 0.716668,-5.1062 0.44811,-1.79193 1.19462,-3.67286 2.17984,-5.64382l4.27017 -8.6597c1.22446,-2.44892 1.91129,-4.09113 2.09032,-4.89732 0.179038,-0.806187 0.268558,-2.62795 0.268558,-5.43495l0 -27.8009c0,-2.3594 -0.358077,-3.85241 -1.04491,-4.5094 -0.686828,-0.686828 -2.15,-1.01507 -4.35969,-1.01507l-65.0084 0c-1.97097,0 -3.31478,0.358077 -3.97177,1.10458 -0.686828,0.716668 -1.01507,2.17984 -1.01507,4.41988l0 86.3294c0,3.16507 0.298397,5.01668 0.925546,5.61399 0.597309,0.567469 1.97097,0.865867 4.06129,0.865867z"/>
    <path id="_2058053521" class="fil3" d="M324.722 509.885c3.1059,0 5.61399,0.865867 7.52527,2.56776 1.94113,1.73225 2.89651,3.97177 2.89651,6.68924l0 68.6813c0,2.92635 -0.776347,5.16587 -2.32904,6.74892 -1.52337,1.58253 -3.70321,2.35888 -6.51021,2.35888l-38.4912 0c-1.76209,0 -3.07606,0.298397 -4.00161,0.865867 -0.895706,0.597309 -1.34382,1.43334 -1.34382,2.53844l0 31.8323c0,1.58253 -0.387916,2.68763 -1.13442,3.28494 -0.746508,0.626634 -2.12016,0.925546 -4.12097,0.925546l-13.1989 0c-1.97097,0 -3.46398,-0.358591 -4.44921,-1.04542 -0.98574,-0.716668 -1.49302,-1.76157 -1.49302,-3.16507l0 -113.892c0,-2.38872 0.836027,-4.38953 2.53792,-6.0019 1.70241,-1.58253 3.76289,-2.38872 6.21129,-2.38872l57.9014 0zm-44.4339 72.8619l33.8629 0c2.65779,0 4.27017,-0.298912 4.8078,-0.865867 0.50779,-0.597309 0.776347,-2.15 0.776347,-4.6586l0 -48.8831c0,-1.58253 -0.298397,-2.65779 -0.925546,-3.2551 -0.597309,-0.567469 -2.06048,-0.865867 -4.32985,-0.865867l-1.73225 0 -33.8629 0c-2.26936,0 -3.7027,0.328237 -4.24033,0.955386 -0.567469,0.656989 -0.836027,2.06048 -0.836027,4.21049l0 48.0173c0,2.44892 0.268558,3.97177 0.836027,4.5094 0.53763,0.567469 2.41908,0.836027 5.64382,0.836027z"/>
    <path id="_20580535212" class="fil3" d="M416.845 509.885c3.1059,0 5.61399,0.865867 7.52527,2.56776 1.94113,1.73225 2.89651,3.97177 2.89651,6.68924l0 68.6813c0,2.92635 -0.776347,5.16587 -2.32904,6.74892 -1.52337,1.58253 -3.70321,2.35888 -6.51021,2.35888l-38.4912 0c-1.76209,0 -3.07606,0.298397 -4.00161,0.865867 -0.895706,0.597309 -1.34382,1.43334 -1.34382,2.53844l0 31.8323c0,1.58253 -0.387916,2.68763 -1.13442,3.28494 -0.746508,0.626634 -2.12016,0.925546 -4.12097,0.925546l-13.1989 0c-1.97097,0 -3.46398,-0.358591 -4.44921,-1.04542 -0.98574,-0.716668 -1.49302,-1.76157 -1.49302,-3.16507l0 -113.892c0,-2.38872 0.836027,-4.38953 2.53792,-6.0019 1.70241,-1.58253 3.76289,-2.38872 6.21129,-2.38872l57.9014 0zm-44.4339 72.8619l33.8629 0c2.65779,0 4.27017,-0.298912 4.8078,-0.865867 0.50779,-0.597309 0.776347,-2.15 0.776347,-4.6586l0 -48.8831c0,-1.58253 -0.298397,-2.65779 -0.925546,-3.2551 -0.597309,-0.567469 -2.06048,-0.865867 -4.32985,-0.865867l-1.73225 0 -33.8629 0c-2.26936,0 -3.7027,0.328237 -4.24033,0.955386 -0.567469,0.656989 -0.836027,2.06048 -0.836027,4.21049l0 48.0173c0,2.44892 0.268558,3.97177 0.836027,4.5094 0.53763,0.567469 2.41908,0.836027 5.64382,0.836027z"/>
    <path id="_205805352123" class="fil3" d="M520.793 591.138c0,2.06048 -0.47795,3.52366 -1.4035,4.44921 -0.925546,0.895706 -2.5086,1.34382 -4.71828,1.34382l-66.2329 0c-2.09032,0 -3.64302,-0.418271 -4.62825,-1.22446 -0.98574,-0.806187 -1.49302,-2.06048 -1.49302,-3.76238l0 -76.5353c0,-2.00029 0.566955,-3.40379 1.70189,-4.24033 1.13494,-0.865867 3.07555,-1.28362 5.82286,-1.28362l64.2918 0c2.26988,0 3.97177,0.507275 5.04703,1.52286 1.07474,1.04491 1.61237,2.5976 1.61237,4.68792l0 75.0423zm-25.8006 -11.6164l0 -15.05c0,-3.43414 0.269072,-6.21129 0.836541,-8.27178 0.537115,-2.06048 1.46318,-4.15081 2.7468,-6.24113l4.09113 -6.74841c0.119359,-0.179038 0.298912,-0.418271 0.53763,-0.776347 1.46318,-2.20968 2.17984,-4.30001 2.17984,-6.21129l0 -9.01829c0,-1.16426 -0.208878,-2.00081 -0.597309,-2.47824 -0.417756,-0.50779 -1.13442,-0.746508 -2.12016,-0.746508l-42.5823 0c-0.925546,0 -1.58253,0.238718 -1.97097,0.686828 -0.387916,0.477436 -0.567469,1.31346 -0.567469,2.53792l0 52.3173c0,1.28414 0.179553,2.12016 0.567469,2.56827 0.388431,0.44811 1.04542,0.656989 1.97097,0.656989l32.3699 0c0.925546,0 1.58253,-0.208878 1.97097,-0.656989 0.387916,-0.44811 0.566955,-1.28414 0.566955,-2.56827z"/>
    <path id="_2058053521234" class="fil3" d="M535.844 590.451l0 -73.0415c0,-2.20968 0.776347,-4.03094 2.32904,-5.43443 1.52286,-1.4035 3.5535,-2.09032 6.0621,-2.09032l50.227 0c2.09032,0 3.8519,0.626634 5.25539,1.91077 1.4035,1.28414 2.09032,2.89651 2.09032,4.83764l0 13.9753c0,2.2992 -0.358077,3.82206 -1.04491,4.59841 -0.716668,0.806702 -2.00081,1.19462 -3.85241,1.19462l-7.34572 0c-1.64273,0 -2.80699,-0.328237 -3.46398,-0.955386 -0.686828,-0.656989 -1.01558,-1.70241 -1.01558,-3.16558l0 -5.61399c0,-1.43334 -0.179038,-2.35888 -0.537115,-2.68712 -0.328752,-0.358591 -1.13494,-0.53763 -2.3594,-0.53763l-26.8455 0c-1.16426,0.0596795 -1.94061,0.328237 -2.35888,0.776347 -0.388431,0.47795 -0.627149,1.52286 -0.686828,3.16507l0 8.83925c0,1.82177 0.149199,3.43414 0.47795,4.86748 0.328237,1.43334 0.836027,2.71747 1.52286,3.88174l5.16587 9.88415c0.806187,1.58305 1.4035,3.07606 1.79193,4.5094 0.387916,1.43334 0.566955,3.01587 0.566955,4.77796l0 1.13442 0 25.8901c0,1.97097 -0.477436,3.43414 -1.43334,4.35969 -0.955386,0.925546 -2.47824,1.4035 -4.50889,1.4035l-13.9156 0c-1.73173,0 -3.19491,-0.627149 -4.35969,-1.85161 -1.16426,-1.22394 -1.76157,-2.74731 -1.76157,-4.62825z"/>
    <path id="_20580535212345" class="fil3" d="M624.533 596.931c-1.67257,0 -3.1059,-0.597309 -4.24084,-1.76157 -1.13442,-1.16478 -1.70189,-2.59811 -1.70189,-4.3602l0 -66.4119 -6.65889 0c-0.866381,0 -1.61289,-0.358077 -2.26988,-1.04491 -0.626634,-0.716668 -0.955386,-1.49302 -0.955386,-2.3594l0 -7.88335c0,-0.925546 0.298397,-1.70189 0.925546,-2.2992 0.597309,-0.627149 1.37366,-0.925546 2.29972,-0.925546l6.65889 0 0 -20.9928c0,-1.70241 0.418271,-2.95619 1.22446,-3.76238 0.806187,-0.806702 2.06048,-1.22446 3.76238,-1.22446l6.98764 0c1.46318,0 2.53844,0.417756 3.2551,1.22446 0.686828,0.806187 1.04491,2.05997 1.04491,3.76238l0 20.9928 18.1261 0c1.55269,0 2.77715,0.507275 3.58334,1.49302 0.806187,0.985226 1.22446,2.38872 1.22446,4.18065l0 15.9457c0,1.49302 -0.418271,2.62795 -1.22446,3.4043 -0.806187,0.746508 -2.03065,1.13494 -3.58334,1.13494l-18.1261 0 0 43.478c0,1.76209 0.149199,2.80699 0.44811,3.19542 0.268558,0.387916 1.10458,0.567469 2.4484,0.567469l0.865867 0 6.98764 0c1.64273,0 2.74731,0.268558 3.28494,0.836027 0.567469,0.53763 0.836027,1.52286 0.836027,2.92635l0 5.43495c0,1.97045 -0.238718,3.22475 -0.746508,3.7027 -0.47795,0.50779 -1.61237,0.746508 -3.37446,0.746508l-21.0818 0z"/>
    <path id="_205805352123456" class="fil3" d="M734.154 583.105c0.926061,0 1.58305,-0.208878 1.91129,-0.656989 0.358591,-0.447596 0.53763,-1.28362 0.53763,-2.56776l0 -66.4119c0,-1.16478 0.238718,-2.06048 0.746508,-2.65779 0.47795,-0.627149 1.13442,-0.925546 1.97097,-0.925546l10.3914 0c0.836541,0 1.49353,0.298397 1.97097,0.925546 0.50779,0.597309 0.746508,1.49302 0.746508,2.65779l0 78.834c0,1.49353 -0.507275,2.65779 -1.52286,3.43414 -1.01507,0.806187 -2.56827,1.19462 -4.59841,1.19462l-68.5923 0c-2.09032,0 -3.64302,-0.388431 -4.62825,-1.13494 -0.98574,-0.746508 -1.49302,-1.94061 -1.49302,-3.49382l0 -78.834c0,-1.16478 0.208878,-2.06048 0.656989,-2.65779 0.447596,-0.627149 1.07474,-0.925546 1.88093,-0.925546l11.7954 0c0.925546,0 1.61237,0.268558 2.06048,0.836027 0.44811,0.53763 0.656989,1.46318 0.656989,2.74731l0 27.5621c0,1.10458 0.0596795,2.03065 0.208878,2.80699 0.149199,0.746508 0.44811,1.4035 0.836027,2.00081l4.83764 7.88335c1.28414,2.15 2.20968,4.27017 2.74731,6.39033 0.567469,2.09032 0.836027,4.86748 0.836027,8.30162l0 1.31346 0 11.1086c0,0.746508 0.149199,1.31398 0.44811,1.70241 0.268558,0.387916 0.746508,0.566955 1.4035,0.566955l34.1912 0z"/>
    <path id="_2058053521234567" class="fil3" d="M785.576 523.621c-0.627149,0 -1.13442,0.208878 -1.46318,0.627149 -0.358077,0.388431 -0.53763,0.985226 -0.53763,1.73173l0 11.1086c0,1.1051 0.0900337,2.06048 0.269072,2.80699 0.179038,0.746508 0.44811,1.43334 0.865867,2.00081l4.98684 8.06239c1.22446,1.97097 2.09032,3.91209 2.62795,5.82338 0.50779,1.88093 0.776347,4.38953 0.776347,7.46508l0 2.53844 0 27.5621c0,0.985226 -0.268558,1.82177 -0.776347,2.53844 -0.53763,0.686314 -1.1051,1.04491 -1.76209,1.04491l-20.5447 0c-0.656989,0 -1.22394,-0.358591 -1.76157,-1.04491 -0.50779,-0.716668 -0.776347,-1.55321 -0.776347,-2.53844l0 -78.8345c0,-1.67205 0.537115,-2.86667 1.58253,-3.58334 1.04491,-0.686828 2.83683,-1.04491 5.40511,-1.04491l66.6805 0c2.5086,0 4.32985,0.537115 5.46479,1.58253 1.13442,1.04491 1.70189,2.71747 1.70189,4.98684l0 76.8934c0,1.10458 -0.238718,1.97097 -0.746508,2.62795 -0.477436,0.627149 -1.13442,0.955386 -1.97097,0.955386l-10.3914 0c-0.656989,0 -1.2543,-0.358591 -1.85161,-1.1051 -0.567469,-0.716668 -0.865867,-1.55269 -0.865867,-2.47824l0 -66.5014c0,-1.28414 -0.179038,-2.12016 -0.53763,-2.56827 -0.328237,-0.44811 -0.985226,-0.656989 -1.91129,-0.656989l-44.4638 0z"/>
    <path id="_20580535212345678" class="fil3" d="M861.962 488.533c0,-2.5976 0.895706,-4.83764 2.71747,-6.62905 1.79141,-1.82177 4.0011,-2.71747 6.56937,-2.71747 2.59811,0 4.83764,0.895706 6.62905,2.71747 1.82177,1.79141 2.71747,4.03145 2.71747,6.62905 0,2.62795 -0.895706,4.83764 -2.71747,6.62956 -1.79141,1.76157 -4.03094,2.65728 -6.62905,2.65728 -2.56827,0 -4.77796,-0.895706 -6.56937,-2.65728 -1.82177,-1.79193 -2.71747,-4.00161 -2.71747,-6.62956zm13.378 21.3514c1.16426,0 2.09032,0.328237 2.74731,1.01507 0.686828,0.656989 1.01507,1.58253 1.01507,2.74731l0 22.2167c0,2.32956 0.50779,4.3602 1.49302,6.03226 0.238718,0.418271 0.418271,0.746508 0.53763,0.955386l6.8086 13.1393c0.477436,0.925546 0.806187,2.00081 1.04491,3.22526 0.238718,1.22394 0.358077,3.10539 0.358077,5.61347l0 26.3382c0,1.79141 -0.447596,3.22475 -1.31346,4.24033 -0.866381,1.01507 -2.03065,1.52286 -3.49382,1.52286l-14.692 0c-2.12016,0 -3.7027,-0.47795 -4.8078,-1.4035 -1.1051,-0.925546 -1.67205,-2.23952 -1.67205,-3.94193l0 -77.9383c0,-1.28414 0.298397,-2.23952 0.865867,-2.83683 0.597309,-0.627149 1.49302,-0.925546 2.71747,-0.925546l8.39114 0z"/>
    <path id="_205805352123456789" class="fil3" d="M916.101 596.931c-1.67257,0 -3.1059,-0.597309 -4.24084,-1.76157 -1.13442,-1.16478 -1.70189,-2.59811 -1.70189,-4.3602l0 -66.4119 -6.65889 0c-0.866381,0 -1.61289,-0.358077 -2.26988,-1.04491 -0.626634,-0.716668 -0.955386,-1.49302 -0.955386,-2.3594l0 -7.88335c0,-0.925546 0.298397,-1.70189 0.925546,-2.2992 0.597309,-0.627149 1.37366,-0.925546 2.29972,-0.925546l6.65889 0 0 -20.9928c0,-1.70241 0.418271,-2.95619 1.22446,-3.76238 0.806187,-0.806702 2.06048,-1.22446 3.76238,-1.22446l6.98764 0c1.46318,0 2.53844,0.417756 3.2551,1.22446 0.686828,0.806187 1.04491,2.05997 1.04491,3.76238l0 20.9928 18.1261 0c1.55269,0 2.77715,0.507275 3.58334,1.49302 0.806187,0.985226 1.22446,2.38872 1.22446,4.18065l0 15.9457c0,1.49302 -0.418271,2.62795 -1.22446,3.4043 -0.806187,0.746508 -2.03065,1.13494 -3.58334,1.13494l-18.1261 0 0 43.478c0,1.76209 0.149199,2.80699 0.44811,3.19542 0.268558,0.387916 1.10458,0.567469 2.4484,0.567469l0.865867 0 6.98764 0c1.64273,0 2.74731,0.268558 3.28494,0.836027 0.567469,0.53763 0.836027,1.52286 0.836027,2.92635l0 5.43495c0,1.97045 -0.238718,3.22475 -0.746508,3.7027 -0.47795,0.50779 -1.61237,0.746508 -3.37446,0.746508l-21.0818 0z"/>
    <path id="_20580535212345678910" class="fil3" d="M973.047 596.931c-2.62795,0 -4.92716,-0.836027 -6.89812,-2.53844 -2.00081,-1.70189 -2.98603,-3.58334 -2.98603,-5.67366l0 -75.2507c0,-1.22446 0.387916,-2.12016 1.1941,-2.71747 0.776347,-0.567469 1.97097,-0.865867 3.61318,-0.865867l6.30081 0c1.52337,0 2.59811,0.387916 3.19542,1.13442 0.627149,0.746508 0.925546,2.03065 0.925546,3.85241l0 62.7391c0,1.85109 0.328752,3.13523 1.01558,3.79222 0.656989,0.686828 2.23952,1.01507 4.7476,1.01507l37.8049 0c2.26936,0 3.67286,-0.238718 4.21049,-0.686828 0.50779,-0.477436 0.776347,-1.85109 0.776347,-4.12046l0 -64.1426c0,-0.806187 0.44811,-1.61289 1.31398,-2.38924 0.865867,-0.806187 1.73173,-1.1941 2.62795,-1.1941l7.67447 0c1.22394,0 2.23952,0.328237 2.98603,1.01507 0.746508,0.656989 1.13442,1.52286 1.13442,2.56827l0 117.147c0,2.03065 -0.417756,3.49382 -1.22394,4.41937 -0.806187,0.895706 -2.17984,1.34382 -4.12097,1.34382l-13.9753 0c-1.76157,0 -3.13523,-0.44811 -4.18065,-1.34382 -1.01507,-0.925546 -1.52286,-2.15 -1.52286,-3.73254l0 -29.0253c0,-2.12016 -0.298397,-3.52366 -0.925546,-4.24033 -0.597309,-0.746508 -2.26988,-1.1051 -5.01668,-1.1051l-0.866381 0 -37.8044 0z"/>
    <path id="_2058053521234567891011" class="fil3" d="M1228.3 498.418c0,1.70241 -0.44811,2.98655 -1.31398,3.85241 -0.865867,0.865867 -2.15,1.31398 -3.8519,1.31398l-16.185 0c-1.4035,0 -2.62795,-0.50779 -3.64302,-1.52286 -1.01558,-1.01558 -1.52337,-2.24004 -1.52337,-3.64353l0 -8.98793c0,-2.29972 -0.358077,-3.76289 -1.10458,-4.47956 -0.716668,-0.686828 -2.17984,-1.04491 -4.41937,-1.04491l-55.0049 0c-1.97097,0 -3.31478,0.358077 -3.97177,1.10458 -0.686828,0.716668 -1.01507,2.17984 -1.01507,4.41988l0 86.3294c0,3.16507 0.298397,5.01668 0.925546,5.61399 0.597309,0.567469 1.97097,0.865867 4.06129,0.865867l66.8297 0c2.09032,0 3.49382,-0.358077 4.15081,-1.04491 0.686828,-0.716668 1.01558,-2.5086 1.01558,-5.43495l0 -20.2164c0,-2.32904 0.417756,-4.03094 1.25378,-5.13604 0.866381,-1.1051 2.18036,-1.67205 4.00161,-1.67205l4.8078 0c1.70189,0 2.95619,0.566955 3.76238,1.70189 0.806187,1.13494 1.22446,2.83683 1.22446,5.1062l0 32.2804c0,2.56827 -0.925546,4.74812 -2.74731,6.47985 -1.85109,1.76209 -4.15081,2.62795 -6.86828,2.62795l-88.8977 0c-2.80699,0 -5.1062,-0.865867 -6.95729,-2.62795 -1.82177,-1.73173 -2.74731,-3.91158 -2.74731,-6.47985l0 -109.681c0,-2.12016 0.806187,-3.91209 2.41856,-5.43495 1.58253,-1.52286 3.52366,-2.26936 5.79302,-2.26936l91.7942 0c2.26988,0 4.21049,0.746508 5.79354,2.26936 1.61237,1.52286 2.41856,3.31478 2.41856,5.43495l0 20.2756z"/>
    <path id="_205805352123456789101112" class="fil3" d="M1270.32 523.442c-1.19462,0 -1.97097,0.149199 -2.41908,0.477436 -0.447596,0.328752 -0.656474,1.01558 -0.656474,2.06048l0 12.5121c0,1.22446 0.179038,2.03065 0.537115,2.35888 0.328752,0.358591 0.98574,0.53763 1.91129,0.53763l34.2812 0c1.13442,0 1.88093,-0.179038 2.32904,-0.567469 0.44811,-0.387916 0.656989,-1.10458 0.656989,-2.15l0 -11.6457c0,-1.28414 -0.208878,-2.20968 -0.656989,-2.74731 -0.44811,-0.567469 -1.19462,-0.836027 -2.32904,-0.836027l-33.6541 0zm-20.8436 73.4891c-1.85109,0 -3.58334,-0.746508 -5.16587,-2.26936 -1.58253,-1.52286 -2.35888,-3.16558 -2.35888,-4.89732l0 -73.31c0,-2.00081 0.746508,-3.58334 2.26936,-4.77796 1.52286,-1.19462 3.5535,-1.79141 6.12178,-1.79141l64.7394 0c2.24004,0 4.12097,0.656989 5.7035,1.97045 1.58305,1.31398 2.3594,2.83683 2.3594,4.59892l0 32.6385c0,1.67257 -0.597309,3.04622 -1.76209,4.06129 -1.16426,1.01507 -2.71747,1.52286 -4.71776,1.52286l-45.8374 0c-1.4035,0 -2.3594,0.238718 -2.83683,0.746508 -0.50779,0.50779 -0.746508,1.61237 -0.746508,3.37446l0 19.6788c0,1.82125 0.119359,2.92635 0.358077,3.31478 0.238718,0.417756 0.865867,0.626634 1.91129,0.626634l1.85109 0 33.1463 0c1.1051,0 1.79193,-0.179038 2.06048,-0.537115 0.269072,-0.328752 0.388431,-1.07526 0.388431,-2.17984l0 -7.34623c0,-0.806187 0.179038,-1.4035 0.567469,-1.73173 0.387916,-0.358591 1.22394,-0.53763 2.50808,-0.53763l9.70512 0c1.34382,0 2.23952,0.268558 2.71747,0.776347 0.447596,0.53763 0.686828,1.52286 0.686828,2.98603l0 15.9164c0,2.74731 -0.50779,4.62825 -1.52286,5.64382 -1.01558,1.01507 -2.83683,1.52286 -5.46479,1.52286l-66.681 0z"/>
    <path id="_20580535212345678910111213" class="fil3" d="M1336.7 474.2c0,-1.28414 0.298397,-2.23952 0.865867,-2.83683 0.597309,-0.627149 1.49302,-0.925546 2.71747,-0.925546l8.39114 0c1.16426,0 2.09032,0.328237 2.74731,1.01507 0.686828,0.656989 1.01507,1.58253 1.01507,2.74731l0 61.6638c0,2.32956 0.50779,4.3602 1.49302,6.03226 0.238718,0.418271 0.418271,0.746508 0.50779,0.985226l6.83844 13.1094c0.477436,0.925546 0.806187,2.00081 1.04491,3.22526 0.238718,1.22394 0.358077,3.10539 0.358077,5.61347l0 26.3382c0,1.79141 -0.447596,3.22475 -1.31346,4.24033 -0.866381,1.01507 -2.03065,1.52286 -3.49382,1.52286l-14.692 0c-2.12016,0 -3.7027,-0.47795 -4.8078,-1.4035 -1.1051,-0.925546 -1.67205,-2.23952 -1.67205,-3.94193l0 -117.385z"/>
    <path id="_2058053521234567891011121314" class="fil3" d="M1376.15 474.2c0,-1.28414 0.298397,-2.23952 0.865867,-2.83683 0.597309,-0.627149 1.49302,-0.925546 2.71747,-0.925546l8.39114 0c1.16426,0 2.09032,0.328237 2.74731,1.01507 0.686828,0.656989 1.01507,1.58253 1.01507,2.74731l0 61.6638c0,2.32956 0.50779,4.3602 1.49302,6.03226 0.238718,0.418271 0.418271,0.746508 0.50779,0.985226l6.83844 13.1094c0.477436,0.925546 0.806187,2.00081 1.04491,3.22526 0.238718,1.22394 0.358077,3.10539 0.358077,5.61347l0 26.3382c0,1.79141 -0.447596,3.22475 -1.31346,4.24033 -0.866381,1.01507 -2.03065,1.52286 -3.49382,1.52286l-14.692 0c-2.12016,0 -3.7027,-0.47795 -4.8078,-1.4035 -1.1051,-0.925546 -1.67205,-2.23952 -1.67205,-3.94193l0 -117.385z"/>
    <path id="_21764048" class="fil4" d="M694.39 404.226l0 -31.2386 3.48456 0 0 2.93304c0.820593,-1.14729 1.74974,-2.01109 2.78796,-2.58474 1.03101,-0.573643 2.28686,-0.863809 3.76032,-0.863809 1.93135,0 3.63016,0.500587 5.10362,1.48839 1.48118,0.994486 2.59194,2.39541 3.33948,4.20329 0.755254,1.80736 1.13288,3.78965 1.13288,5.94582 0,2.30846 -0.414155,4.3921 -1.24864,6.24319 -0.827795,1.85109 -2.0327,3.26694 -3.61575,4.25422 -1.58253,0.980081 -3.24481,1.47398 -4.98735,1.47398 -1.27745,0 -2.41753,-0.268558 -3.43363,-0.806187 -1.01661,-0.537115 -1.8444,-1.21931 -2.49779,-2.03991l0 10.9913 -3.82566 0zm3.46295 -19.8192c0,2.90423 0.588048,5.0532 1.76415,6.44693 1.1761,1.38652 2.60635,2.08364 4.27583,2.08364 1.69881,0 3.15838,-0.718726 4.37049,-2.16338 1.21262,-1.43745 1.82228,-3.66617 1.82228,-6.68667 0,-2.88211 -0.595251,-5.03108 -1.77855,-6.46853 -1.1833,-1.42973 -2.59914,-2.14846 -4.23981,-2.14846 -1.63347,0 -3.07812,0.761942 -4.33396,2.28686 -1.25636,1.5244 -1.88042,3.74592 -1.88042,6.64963z"/>
    <path id="_217640481" class="fil4" d="M718.572 395.572l0 -22.5851 3.44134 0 0 3.41922c0.878214,-1.59694 1.6916,-2.65728 2.43914,-3.16507 0.740848,-0.508304 1.56093,-0.769659 2.45406,-0.769659 1.29185,0 2.59863,0.41364 3.93473,1.23423l-1.32118 3.5571c-0.929662,-0.558723 -1.86601,-0.834998 -2.80236,-0.834998 -0.842201,0 -1.58974,0.254152 -2.25804,0.755254 -0.667793,0.508304 -1.13957,1.20491 -1.42253,2.09804 -0.42856,1.35771 -0.638982,2.84558 -0.638982,4.46464l0 11.8263 -3.82617 0z"/>
    <path id="_2176404812" class="fil4" d="M748.576 388.298l3.95685 0.486182c-0.624576,2.31618 -1.77855,4.10914 -3.46295,5.3871 -1.6916,1.27025 -3.84778,1.90923 -6.46853,1.90923 -3.30346,0 -5.92422,-1.01661 -7.85505,-3.04931 -1.93855,-2.0327 -2.90423,-4.886 -2.90423,-8.55937 0,-3.80405 0.980081,-6.7515 2.93304,-8.84954 1.96016,-2.09804 4.49397,-3.15066 7.61582,-3.15066 3.01999,0 5.48845,1.03101 7.39768,3.08533 1.91643,2.05431 2.8749,4.95134 2.8749,8.67564 0,0.23203 -0.00720269,0.573129 -0.0221226,1.0233l-16.8425 0c0.13788,2.48287 0.842201,4.3849 2.10524,5.69887 1.26304,1.32169 2.83117,1.98228 4.71879,1.98228 1.40144,0 2.59914,-0.370424 3.59363,-1.11076 0.994486,-0.733131 1.77855,-1.90923 2.3594,-3.52829zm-12.5666 -6.19277l12.6104 0c-0.167205,-1.89482 -0.653387,-3.32507 -1.44465,-4.26862 -1.21983,-1.47398 -2.80236,-2.21431 -4.74092,-2.21431 -1.75643,0 -3.23761,0.588048 -4.43532,1.76415 -1.19822,1.1761 -1.85881,2.75143 -1.98949,4.71879z"/>
    <path id="_21764048123" class="fil4" d="M755.815 388.828l3.78193 -0.595251c0.210936,1.5172 0.806187,2.67889 1.77907,3.49176 0.965161,0.805673 2.32287,1.21262 4.07261,1.21262 1.75694,0 3.06372,-0.363222 3.91312,-1.07474 0.849403,-0.718726 1.27745,-1.56093 1.27745,-2.51888 0,-0.871526 -0.377627,-1.54652 -1.13237,-2.04762 -0.52271,-0.341099 -1.82948,-0.769145 -3.91312,-1.29185 -2.80236,-0.711523 -4.75532,-1.32169 -5.83675,-1.84389 -1.08195,-0.515507 -1.90923,-1.23423 -2.46847,-2.14898 -0.558723,-0.914742 -0.842201,-1.92415 -0.842201,-3.0277 0,-1.00889 0.232544,-1.93804 0.697118,-2.79465 0.457371,-0.864323 1.08864,-1.57533 1.88042,-2.14177 0.595251,-0.435763 1.40813,-0.81339 2.43194,-1.11796 1.03101,-0.305086 2.13406,-0.457371 3.31015,-0.457371 1.77135,0 3.32507,0.261355 4.66837,0.769659 1.34279,0.50779 2.33007,1.19771 2.96905,2.06872 0.638982,0.878729 1.07474,2.03991 1.31398,3.49948l-3.73871 0.515507c-0.174408,-1.16169 -0.667793,-2.06923 -1.48118,-2.72262 -0.812875,-0.653387 -1.96736,-0.980081 -3.45524,-0.980081 -1.75694,0 -3.01278,0.290166 -3.76084,0.871011 -0.754739,0.580846 -1.13237,1.26356 -1.13237,2.03991 0,0.501102 0.159488,0.944067 0.471776,1.3433 0.312288,0.41364 0.79847,0.747537 1.46626,1.02381 0.38483,0.13788 1.51051,0.464574 3.38321,0.972878 2.70821,0.725929 4.59532,1.31398 5.66286,1.77855 1.07423,0.457371 1.91643,1.13237 2.52609,2.01058 0.610171,0.878729 0.914742,1.96788 0.914742,3.27465 0,1.27745 -0.377112,2.47515 -1.11796,3.60804 -0.747537,1.12516 -1.82228,1.99618 -3.22321,2.61355 -1.40092,0.616859 -2.99118,0.921945 -4.76252,0.921945 -2.94024,0 -5.17616,-0.610171 -6.71548,-1.82948 -1.5388,-1.21983 -2.51888,-3.02719 -2.93973,-5.42311z"/>
    <path id="_217640481234" class="fil4" d="M794.582 388.298l3.95685 0.486182c-0.624576,2.31618 -1.77855,4.10914 -3.46295,5.3871 -1.6916,1.27025 -3.84778,1.90923 -6.46853,1.90923 -3.30346,0 -5.92422,-1.01661 -7.85505,-3.04931 -1.93855,-2.0327 -2.90423,-4.886 -2.90423,-8.55937 0,-3.80405 0.980081,-6.7515 2.93304,-8.84954 1.96016,-2.09804 4.49397,-3.15066 7.61582,-3.15066 3.01999,0 5.48845,1.03101 7.39768,3.08533 1.91643,2.05431 2.8749,4.95134 2.8749,8.67564 0,0.23203 -0.00720269,0.573129 -0.0221226,1.0233l-16.8425 0c0.13788,2.48287 0.842201,4.3849 2.10524,5.69887 1.26304,1.32169 2.83117,1.98228 4.71879,1.98228 1.40144,0 2.59914,-0.370424 3.59363,-1.11076 0.994486,-0.733131 1.77855,-1.90923 2.3594,-3.52829zm-12.5666 -6.19277l12.6104 0c-0.167205,-1.89482 -0.653387,-3.32507 -1.44465,-4.26862 -1.21983,-1.47398 -2.80236,-2.21431 -4.74092,-2.21431 -1.75643,0 -3.23761,0.588048 -4.43532,1.76415 -1.19822,1.1761 -1.85881,2.75143 -1.98949,4.71879z"/>
    <path id="_2176404812345" class="fil4" d="M803.351 395.572l0 -22.5851 3.44134 0 0 3.2088c1.66228,-2.48287 4.0582,-3.72431 7.18674,-3.72431 1.36491,0 2.61355,0.246949 3.75363,0.733131 1.14677,0.493899 1.99618,1.13237 2.56262,1.93135 0.573643,0.791267 0.965675,1.73482 1.19771,2.82397 0.13788,0.711523 0.210936,1.95296 0.210936,3.72431l0 13.8878 -3.83338 0 0 -13.7427c0,-1.55372 -0.145083,-2.72262 -0.442966,-3.49948 -0.297368,-0.769145 -0.827281,-1.38652 -1.58253,-1.84389 -0.762457,-0.464574 -1.64787,-0.696603 -2.67168,-0.696603 -1.63347,0 -3.03439,0.52271 -4.22489,1.55321 -1.18381,1.03822 -1.77186,2.99838 -1.77186,5.89489l0 12.3346 -3.82566 0z"/>
    <path id="_21764048123456" class="fil4" d="M835.933 392.146l0.551521 3.38269c-1.07423,0.225341 -2.03991,0.341613 -2.88931,0.341613 -1.39372,0 -2.46847,-0.218139 -3.23813,-0.661104 -0.761942,-0.435248 -1.29906,-1.01609 -1.61135,-1.73482 -0.312288,-0.711523 -0.471776,-2.22152 -0.471776,-4.51557l0 -12.9952 -2.80956 0 0 -2.97626 2.80956 0 0 -5.59752 3.81125 -2.29406 0 7.89158 3.84778 0 0 2.97626 -3.84778 0 0 13.2056c0,1.09635 0.0653387,1.79347 0.196016,2.10524 0.13788,0.312288 0.355504,0.559238 0.66059,0.748051 0.305086,0.181096 0.740334,0.27576 1.30677,0.27576 0.42856,0 0.987284,-0.0509333 1.6844,-0.152286z"/>
    <rect id="_67907896" class="fil5 str0" x="455.402" y="57.4947" width="617.196" height="140.788"/>
    <polygon id="_205961384" class="fil6" points="526.551,167.384 536.834,167.384 536.834,188.007 533.407,188.007 533.407,170.84 529.979,170.84 529.979,173.84 526.551,173.84 "/>
    <polygon id="_2059613841" class="fil6" points="546.546,167.384 546.546,175.982 543.118,175.982 543.118,167.384 539.691,167.384 539.691,188.007 543.118,188.007 543.118,179.409 546.546,179.409 546.546,188.007 549.974,188.007 549.974,167.384 "/>
    <path id="_20596138412" class="fil6" d="M563.113 174.268l0 -5.16999c0,-0.476407 -0.166691,-0.880787 -0.499558,-1.21417 -0.333382,-0.333382 -0.738276,-0.499558 -1.21417,-0.499558l-6.85542 0c-0.475892,0 -0.880787,0.166176 -1.21365,0.499558 -0.333382,0.333382 -0.500073,0.737762 -0.500073,1.21417l0 17.1954c0,0.475892 0.166691,0.880787 0.500073,1.21365 0.332867,0.333382 0.737762,0.500073 1.21365,0.500073l6.85542 0c0.475892,0 0.880787,-0.166691 1.21417,-0.500073 0.332867,-0.332867 0.499558,-0.737762 0.499558,-1.21365l0 -5.16999 -3.42745 0 0 3.42745 -3.42797 0 0 -5.34131 6.85542 0 0 -4.94156zm-3.42745 1.91386l-3.42797 0 0 -5.34183 3.42797 0 0 5.34183z"/>
    <path id="_205961384123" class="fil6" d="M582.878 167.384l-7.76913 0 0 20.6229 7.59781 0c0.933263,-0.323607 1.52337,-0.609142 1.77135,-0.857121 0.247464,-0.247464 0.532999,-0.83757 0.856606,-1.77083l0 -15.3104c-0.228428,-0.894677 -0.475892,-1.52337 -0.742392,-1.88505 -0.247978,-0.323607 -0.819049,-0.590106 -1.71424,-0.799499zm-4.34168 3.45575l3.42797 0 0 13.7108 -3.42797 0 0 -13.7108z"/>
    <path id="_2059613841234" class="fil6" d="M598.531 174.268l0 -5.16999c0,-0.476407 -0.166691,-0.880787 -0.499558,-1.21417 -0.333382,-0.333382 -0.738276,-0.499558 -1.21417,-0.499558l-6.85542 0c-0.475892,0 -0.880787,0.166176 -1.21365,0.499558 -0.333382,0.333382 -0.500073,0.737762 -0.500073,1.21417l0 17.1954c0,0.475892 0.166691,0.880787 0.500073,1.21365 0.332867,0.333382 0.737762,0.500073 1.21365,0.500073l6.85542 0c0.475892,0 0.880787,-0.166691 1.21417,-0.500073 0.332867,-0.332867 0.499558,-0.737762 0.499558,-1.21365l0 -5.16999 -3.42745 0 0 3.42745 -3.42797 0 0 -5.34131 6.85542 0 0 -4.94156zm-3.42745 1.91386l-3.42797 0 0 -5.34183 3.42797 0 0 5.34183z"/>
    <path id="_20596138412345" class="fil6" d="M712.957 169.098c0,-0.476407 -0.166691,-0.880787 -0.499558,-1.21417 -0.333382,-0.333382 -0.738276,-0.499558 -1.21417,-0.499558l-8.56915 0 0 20.6229 3.42745 0 0 -8.59796 5.14169 0c0.475892,0 0.880787,-0.166176 1.21417,-0.499558 0.332867,-0.333382 0.499558,-0.737762 0.499558,-1.21417l0 -8.59744zm-6.85542 1.74202l3.42797 0 0 5.14169 -3.42797 0 0 -5.14169z"/>
    <path id="_205961384123456" class="fil6" d="M722.612 169.955l0 12.454 -3.42797 0 0 -12.454 3.42797 0zm-6.85542 -2.62744l0 20.68 3.42745 0 0 -2.1711 3.6564 0 0 2.1711 3.25613 0 0 -20.68 -10.34 0z"/>
    <path id="_2059613841234567" class="fil6" d="M732.38 179.409l-1.71373 0c-0.475892,0 -0.880787,-0.166176 -1.21365,-0.499558 -0.333382,-0.333382 -0.500073,-0.737762 -0.500073,-1.21417l0 -8.59744c0,-0.476407 0.166691,-0.880787 0.500073,-1.21417 0.332867,-0.333382 0.737762,-0.499558 1.21365,-0.499558l8.56915 0 0 20.6229 -3.42745 0 0 -8.59796 -3.42797 8.59796 -3.42745 0 3.42745 -8.59796zm0 -3.42745l3.42797 0 0 -5.14169 -3.42797 0 0 5.14169z"/>
    <polygon id="_20596138412345678" class="fil6" points="748.89,170.869 752.204,170.869 752.204,167.384 742.263,167.384 742.263,170.869 745.577,170.869 745.577,188.007 748.89,188.007 "/>
    <path id="_205961384123456789" class="fil6" d="M810.073 174.268l0 -5.16999c0,-0.476407 -0.166691,-0.880787 -0.499558,-1.21417 -0.333382,-0.333382 -0.738276,-0.499558 -1.21417,-0.499558l-6.85542 0c-0.475892,0 -0.880787,0.166176 -1.21365,0.499558 -0.333382,0.333382 -0.500073,0.737762 -0.500073,1.21417l0 17.1954c0,0.475892 0.166691,0.880787 0.500073,1.21365 0.332867,0.333382 0.737762,0.500073 1.21365,0.500073l6.85542 0c0.475892,0 0.880787,-0.166691 1.21417,-0.500073 0.332867,-0.332867 0.499558,-0.737762 0.499558,-1.21365l0 -5.16999 -3.42745 0 0 3.42745 -3.42797 0 0 -5.34131 3.08533 0 0 -3.0277 -3.08533 0 0 -5.34183 3.42797 0 0 3.42797 3.42745 0z"/>
    <path id="_20596138412345678910" class="fil6" d="M941.465 167.384l-7.76913 0 0 20.6229 7.59781 0c0.933263,-0.323607 1.52337,-0.609142 1.77135,-0.857121 0.247464,-0.247464 0.532999,-0.83757 0.856606,-1.77083l0 -15.3104c-0.228428,-0.894677 -0.475892,-1.52337 -0.742392,-1.88505 -0.247978,-0.323607 -0.819049,-0.590106 -1.71424,-0.799499zm-4.34168 3.45575l3.42797 0 0 13.7108 -3.42797 0 0 -13.7108z"/>
    <path id="_2059613841234567891011" class="fil6" d="M611.157 178.867c0.304571,-0.0761428 0.456857,-0.476407 0.456857,-1.19976 0,-0.723871 -0.114214,-1.19976 -0.342642,-1.42819l-2.39953 0 2.74217 -7.02674 0 -1.08555 -0.971335 -0.971335 -0.714096 0 -0.82831 -0.0571071 -0.799499 1.19976 -1.68543 4.39879 -2.11348 -5.54144 -1.91386 0 -0.971335 0.971335 0 1.08555 2.34242 7.02674 -1.88556 0c-0.228428,0.190357 -0.351903,0.637953 -0.370939,1.34227l0 0.257239c0,0.532999 0.0663677,0.914228 0.199618,1.14266l2.1711 0 -2.45663 6.74069 0 1.08555 0.971335 1.19976 1.91386 0 2.11348 -5.76987 2.11399 5.76987 1.91334 0 0.971335 -1.19976 0 -1.08555 -2.74217 -6.85491 2.28531 0z"/>
    <polygon id="_205961384123456789101112" class="fil6" points="621.497,170.869 624.81,170.869 624.81,167.384 614.87,167.384 614.87,170.869 618.183,170.869 618.183,188.007 621.497,188.007 "/>
    <path id="_20596138412345678910111213" class="fil6" d="M638.121 174.268l0 -5.16999c0,-0.476407 -0.166691,-0.880787 -0.499558,-1.21417 -0.333382,-0.333382 -0.738276,-0.499558 -1.21417,-0.499558l-6.85542 0c-0.475892,0 -0.880787,0.166176 -1.21365,0.499558 -0.333382,0.333382 -0.500073,0.737762 -0.500073,1.21417l0 17.1954c0,0.475892 0.166691,0.880787 0.500073,1.21365 0.332867,0.333382 0.737762,0.500073 1.21365,0.500073l6.85542 0c0.475892,0 0.880787,-0.166691 1.21417,-0.500073 0.332867,-0.332867 0.499558,-0.737762 0.499558,-1.21365l0 -5.16999 -3.42745 0 0 3.42745 -3.42797 0 0 -5.34131 6.85542 0 0 -4.94156zm-3.42745 1.91386l-3.42797 0 0 -5.34183 3.42797 0 0 5.34183z"/>
    <path id="_2059613841234567891011121314" class="fil6" d="M644.404 179.409l-1.71373 0c-0.475892,0 -0.880787,-0.166176 -1.21365,-0.499558 -0.333382,-0.333382 -0.500073,-0.737762 -0.500073,-1.21417l0 -8.59744c0,-0.476407 0.166691,-0.880787 0.500073,-1.21417 0.332867,-0.333382 0.737762,-0.499558 1.21365,-0.499558l8.56915 0 0 20.6229 -3.42745 0 0 -8.59796 -3.42797 8.59796 -3.42745 0 3.42745 -8.59796zm0 -3.42745l3.42797 0 0 -5.14169 -3.42797 0 0 5.14169z"/>
    <path id="_205961384123456789101112131415" class="fil6" d="M662.171 171.326l-1.37108 0 0 -3.94142 -3.08481 0 0 3.94142 -1.48581 0c-0.304571,0.152286 -0.56644,0.299941 -0.785094,0.442966 -0.219168,0.14251 -0.395119,0.280905 -0.528369,0.414155 -0.247978,0.247464 -0.533514,0.723356 -0.857121,1.42819l0 7.88335c0.228428,0.457371 0.475892,0.819049 0.742392,1.08555 0.267014,0.2665 0.666764,0.590621 1.19976,0.971335l1.59951 0 0 4.45589 3.31375 0 0 -4.45589 1.59951 0c0.304571,-0.152286 0.55718,-0.29531 0.756797,-0.42856 0.200132,-0.13325 0.366823,-0.276275 0.500073,-0.42856 0.13325,-0.152286 0.242834,-0.323607 0.328237,-0.513964 0.0859178,-0.190357 0.166691,-0.418785 0.242834,-0.685799l0 -8.11178c-0.323607,-0.609657 -0.609142,-1.02844 -0.856606,-1.25687 -0.133764,-0.114214 -0.309716,-0.238203 -0.528884,-0.371453 -0.218653,-0.13325 -0.480523,-0.276275 -0.785094,-0.42856zm-4.68484 9.36916l0 -6.51278 3.42797 0 0 6.51278 -3.42797 0z"/>
    <path id="_20596138412345678910111213141516" class="fil6" d="M677.538 186.379l0 -18.9945 -3.42745 0 0 17.1666 -3.42797 0 0 -17.1666 -3.42745 0 0 18.9091c0,0.475892 0.166691,0.880787 0.500073,1.21365 0.332867,0.333382 0.737762,0.500073 1.21365,0.500073l6.85542 0c0.456857,0 0.857121,-0.156916 1.19976,-0.471262 0.342642,-0.314346 0.513964,-0.69969 0.513964,-1.15706z"/>
    <polygon id="_2059613841234567891011121314151617" class="fil6" points="680.395,167.384 690.678,167.384 690.678,174.268 687.25,174.268 687.25,170.84 683.822,170.84 690.678,184.551 690.678,188.007 680.395,188.007 680.395,181.124 683.822,181.124 683.822,184.551 687.25,184.551 680.395,170.84 "/>
    <path id="_205961384123456789101112131415161718" class="fil6" d="M772.427 171.326l-1.37108 0 0 -3.94142 -3.08481 0 0 3.94142 -1.48581 0c-0.304571,0.152286 -0.56644,0.299941 -0.785094,0.442966 -0.219168,0.14251 -0.395119,0.280905 -0.528369,0.414155 -0.247978,0.247464 -0.533514,0.723356 -0.857121,1.42819l0 7.88335c0.228428,0.457371 0.475892,0.819049 0.742392,1.08555 0.267014,0.2665 0.666764,0.590621 1.19976,0.971335l1.59951 0 0 4.45589 3.31375 0 0 -4.45589 1.59951 0c0.304571,-0.152286 0.55718,-0.29531 0.756797,-0.42856 0.200132,-0.13325 0.366823,-0.276275 0.500073,-0.42856 0.13325,-0.152286 0.242834,-0.323607 0.328237,-0.513964 0.0859178,-0.190357 0.166691,-0.418785 0.242834,-0.685799l0 -8.11178c-0.323607,-0.609657 -0.609142,-1.02844 -0.856606,-1.25687 -0.133764,-0.114214 -0.309716,-0.238203 -0.528884,-0.371453 -0.218653,-0.13325 -0.480523,-0.276275 -0.785094,-0.42856zm-4.68484 9.36916l0 -6.51278 3.42797 0 0 6.51278 -3.42797 0z"/>
    <path id="_20596138412345678910111213141516171819" class="fil6" d="M787.794 174.268l0 -5.16999c0,-0.476407 -0.166691,-0.880787 -0.499558,-1.21417 -0.333382,-0.333382 -0.738276,-0.499558 -1.21417,-0.499558l-6.85542 0c-0.475892,0 -0.880787,0.166176 -1.21365,0.499558 -0.333382,0.333382 -0.500073,0.737762 -0.500073,1.21417l0 18.9091 3.42745 0 0 -8.82639 3.08533 0 0 -2.99889 -3.08533 0 0 -5.34183 3.42797 0 0 3.42797 3.42745 0z"/>
    <path id="_2059613841234567891011121314151617181920" class="fil6" d="M822.698 178.867c0.304571,-0.0761428 0.456857,-0.476407 0.456857,-1.19976 0,-0.723871 -0.114214,-1.19976 -0.342642,-1.42819l-2.39953 0 2.74217 -7.02674 0 -1.08555 -0.971335 -0.971335 -0.714096 0 -0.82831 -0.0571071 -0.799499 1.19976 -1.68543 4.39879 -2.11348 -5.54144 -1.91386 0 -0.971335 0.971335 0 1.08555 2.34242 7.02674 -1.88556 0c-0.228428,0.190357 -0.351903,0.637953 -0.370939,1.34227l0 0.257239c0,0.532999 0.0663677,0.914228 0.199618,1.14266l2.1711 0 -2.45663 6.74069 0 1.08555 0.971335 1.19976 1.91386 0 2.11348 -5.76987 2.11399 5.76987 1.91334 0 0.971335 -1.19976 0 -1.08555 -2.74217 -6.85491 2.28531 0z"/>
    <path id="_205961384123456789101112131415161718192021" class="fil6" d="M836.523 169.098c0,-0.476407 -0.166691,-0.880787 -0.499558,-1.21417 -0.333382,-0.333382 -0.738276,-0.499558 -1.21417,-0.499558l-8.56915 0 0 20.6229 3.42745 0 0 -8.59796 5.14169 0c0.475892,0 0.880787,-0.166176 1.21417,-0.499558 0.332867,-0.333382 0.499558,-0.737762 0.499558,-1.21417l0 -8.59744zm-6.85542 1.74202l3.42797 0 0 5.14169 -3.42797 0 0 -5.14169z"/>
    <path id="_20596138412345678910111213141516171819202122" class="fil6" d="M849.662 174.268l0 -5.16999c0,-0.476407 -0.166691,-0.880787 -0.499558,-1.21417 -0.333382,-0.333382 -0.738276,-0.499558 -1.21417,-0.499558l-6.85542 0c-0.475892,0 -0.880787,0.166176 -1.21365,0.499558 -0.333382,0.333382 -0.500073,0.737762 -0.500073,1.21417l0 17.1954c0,0.475892 0.166691,0.880787 0.500073,1.21365 0.332867,0.333382 0.737762,0.500073 1.21365,0.500073l6.85542 0c0.475892,0 0.880787,-0.166691 1.21417,-0.500073 0.332867,-0.332867 0.499558,-0.737762 0.499558,-1.21365l0 -5.16999 -3.42745 0 0 3.42745 -3.42797 0 0 -5.34131 6.85542 0 0 -4.94156zm-3.42745 1.91386l-3.42797 0 0 -5.34183 3.42797 0 0 5.34183z"/>
    <path id="_2059613841234567891011121314151617181920212223" class="fil6" d="M855.946 179.409l-1.71373 0c-0.475892,0 -0.880787,-0.166176 -1.21365,-0.499558 -0.333382,-0.333382 -0.500073,-0.737762 -0.500073,-1.21417l0 -8.59744c0,-0.476407 0.166691,-0.880787 0.500073,-1.21417 0.332867,-0.333382 0.737762,-0.499558 1.21365,-0.499558l8.56915 0 0 20.6229 -3.42745 0 0 -8.59796 -3.42797 8.59796 -3.42745 0 3.42745 -8.59796zm0 -3.42745l3.42797 0 0 -5.14169 -3.42797 0 0 5.14169z"/>
    <polygon id="_205961384123456789101112131415161718192021222324" class="fil6" points="869.142,167.384 865.715,167.384 865.715,188.007 869.142,188.007 "/>
    <polygon id="_20596138412345678910111213141516171819202122232425" class="fil6" points="878.854,167.384 882.282,167.384 882.282,188.007 878.854,188.007 878.854,177.696 877.14,179.409 875.426,177.696 875.426,188.007 871.999,188.007 871.999,167.384 875.426,167.384 877.14,174.268 "/>
    <path id="_2059613841234567891011121314151617181920212223242526" class="fil6" d="M895.421 174.268l0 -5.16999c0,-0.476407 -0.166691,-0.880787 -0.499558,-1.21417 -0.333382,-0.333382 -0.738276,-0.499558 -1.21417,-0.499558l-6.85542 0c-0.475892,0 -0.880787,0.166176 -1.21365,0.499558 -0.333382,0.333382 -0.500073,0.737762 -0.500073,1.21417l0 17.1954c0,0.475892 0.166691,0.880787 0.500073,1.21365 0.332867,0.333382 0.737762,0.500073 1.21365,0.500073l6.85542 0c0.475892,0 0.880787,-0.166691 1.21417,-0.500073 0.332867,-0.332867 0.499558,-0.737762 0.499558,-1.21365l0 -5.16999 -3.42745 0 0 3.42745 -3.42797 0 0 -5.34131 6.85542 0 0 -4.94156zm-3.42745 1.91386l-3.42797 0 0 -5.34183 3.42797 0 0 5.34183z"/>
    <path id="_205961384123456789101112131415161718192021222324252627" class="fil6" d="M899.991 167.384l6.85542 0c0.475892,0 0.880787,0.166176 1.21417,0.499558 0.332867,0.333382 0.499558,0.737762 0.499558,1.21417l0 18.9091 -3.42745 0 0 -17.1954 -3.37086 0 0 17.1954 -3.48456 0 0 -18.9091c0,-0.476407 0.166691,-0.880787 0.500073,-1.21417 0.332867,-0.333382 0.737762,-0.499558 1.21365,-0.499558z"/>
    <polygon id="_20596138412345678910111213141516171819202122232425262728" class="fil6" points="918.215,170.869 921.528,170.869 921.528,167.384 911.588,167.384 911.588,170.869 914.901,170.869 914.901,188.007 918.215,188.007 "/>
    <path id="_2059613841234567891011121314151617181920212223242526272829" class="fil6" d="M957.118 174.268l0 -5.16999c0,-0.476407 -0.166691,-0.880787 -0.499558,-1.21417 -0.333382,-0.333382 -0.738276,-0.499558 -1.21417,-0.499558l-6.85542 0c-0.475892,0 -0.880787,0.166176 -1.21365,0.499558 -0.333382,0.333382 -0.500073,0.737762 -0.500073,1.21417l0 17.1954c0,0.475892 0.166691,0.880787 0.500073,1.21365 0.332867,0.333382 0.737762,0.500073 1.21365,0.500073l6.85542 0c0.475892,0 0.880787,-0.166691 1.21417,-0.500073 0.332867,-0.332867 0.499558,-0.737762 0.499558,-1.21365l0 -5.16999 -3.42745 0 0 3.42745 -3.42797 0 0 -5.34131 6.85542 0 0 -4.94156zm-3.42745 1.91386l-3.42797 0 0 -5.34183 3.42797 0 0 5.34183z"/>
    <polygon id="_205961384123456789101112131415161718192021222324252627282930" class="fil6" points="959.974,167.384 970.257,167.384 970.257,174.268 966.83,174.268 966.83,170.84 963.402,170.84 970.257,184.551 970.257,188.007 959.974,188.007 959.974,181.124 963.402,181.124 963.402,184.551 966.83,184.551 959.974,170.84 "/>
    <polygon id="_20596138412345678910111213141516171819202122232425262728293031" class="fil6" points="976.598,167.384 973.171,167.384 973.171,188.007 976.598,188.007 "/>
    <path id="_2059613841234567891011121314151617181920212223242526272829303132" class="fil6" d="M989.738 169.098c0,-0.476407 -0.166691,-0.880787 -0.499558,-1.21417 -0.333382,-0.333382 -0.738276,-0.499558 -1.21417,-0.499558l-6.85542 0c-0.475892,0 -0.880787,0.166176 -1.21365,0.499558 -0.333382,0.333382 -0.500073,0.737762 -0.500073,1.21417l0 8.59744c0,0.476407 0.166691,0.880787 0.500073,1.21417 0.332867,0.333382 0.737762,0.499558 1.21365,0.499558l5.14169 0 0 5.14169 -3.42797 0 0 -3.42745 -3.42745 0 0 6.88372 8.56915 0c0.475892,0 0.880787,-0.166691 1.21417,-0.500073 0.332867,-0.332867 0.499558,-0.737762 0.499558,-1.21365l0 -17.1954zm-6.85542 6.88372l0 -5.14169 3.42797 0 0 5.14169 -3.42797 0z"/>
    <path id="_205961384123456789101112131415161718192021222324252627282930313233" class="fil6" d="M994.308 167.384l6.85542 0c0.475892,0 0.880787,0.166176 1.21417,0.499558 0.332867,0.333382 0.499558,0.737762 0.499558,1.21417l0 18.9091 -3.42745 0 0 -17.1954 -3.37086 0 0 17.1954 -3.48456 0 0 -18.9091c0,-0.476407 0.166691,-0.880787 0.500073,-1.21417 0.332867,-0.333382 0.737762,-0.499558 1.21365,-0.499558z"/>
    <path id="_20596138412345678910111213141516171819202122232425262728293031323334" class="fil1" d="M525.123 190.604l39.4178 0 0 1.29854 -39.4178 0 0 -1.29854zm48.558 0l26.2785 0 0 1.29854 -26.2785 0 0 -1.29854zm127.565 0l52.557 0 0 1.29854 -52.557 0 0 -1.29854zm97.116 0l13.1393 0 0 1.29854 -13.1393 0 0 -1.29854zm133.906 0l13.1393 0 0 1.29854 -13.1393 0 0 -1.29854z"/>
    <rect id="_205529256" class="fil1 str0" x="455.402" y="57.4947" width="617.196" height="103.315"/>
    <path id="_203899024" class="fil4" d="M499.663 92.2819l-23.3511 0 0 32.2567c0,2.04505 0.246949,3.41356 0.741877,4.10656 0.494928,0.692488 1.66537,1.03873 3.51234,1.03873l11.478 0c3.95788,0 7.28913,-0.296854 9.99374,-0.890562l-0.692488 5.44215 -21.2737 0c-4.68381,0 -7.88283,-0.857635 -9.5981,-2.57239 -1.71476,-1.71527 -2.57239,-4.88137 -2.57239,-9.49932l0 -29.8819 -7.32205 0 0 -4.55159 7.32205 0 0 -9.20196 8.41069 -1.58305 0 10.785 23.3511 0 0 4.55159z"/>
    <path id="_2038990241" class="fil4" d="M507.579 124.341l0 -43.5367c0,-3.82566 -0.296854,-7.12398 -0.890562,-9.89444l9.30125 0 0 19.9875c0.461487,-0.857635 1.15449,-1.68234 2.07798,-2.47361 0.593708,-0.198074 1.18742,-0.363222 1.78112,-0.494928 0.593708,-0.132221 1.25327,-0.198074 1.97868,-0.198074l25.8253 0c4.68329,0 7.8993,0.857635 9.64749,2.57291 1.74768,1.71476 2.62178,4.88137 2.62178,9.49881l0 24.5385c0,3.82617 0.296854,7.12449 0.890562,9.89496l-10.1913 0c0.593708,-2.37483 0.890562,-5.67315 0.890562,-9.89496l0 -26.9134c0,-1.97868 -0.214537,-3.33125 -0.643612,-4.05666 -0.42856,-0.725929 -1.66537,-1.08864 -3.71042,-1.08864l-26.8146 0c-1.84698,0 -3.03439,0.346244 -3.56173,1.03925 -0.527855,0.692488 -0.791782,2.061 -0.791782,4.10605l0 26.9134c0,3.82617 0.296854,7.12449 0.890562,9.89496l-10.1918 0c0.593708,-2.37483 0.890562,-5.67315 0.890562,-9.89496z"/>
    <path id="_20389902412" class="fil4" d="M620.873 113.852l-44.3285 0 0 10.6862c0,2.04505 0.247464,3.41356 0.742392,4.10656 0.494413,0.692488 1.69829,1.03873 3.61164,1.03873l29.9807 0c3.75981,0 7.09105,-0.296854 9.99374,-0.890562l-1.18742 5.44215 -39.2819 0c-4.68329,0 -7.8993,-0.857635 -9.64749,-2.57239 -1.74768,-1.71527 -2.62178,-4.88137 -2.62178,-9.49932l0 -22.3618c0,-4.35351 0.890562,-7.45427 2.68815,-9.30125 1.78061,-1.84698 4.99661,-2.77046 9.63052,-2.77046l28.2989 0c4.70027,0 7.91576,0.824708 9.63103,2.47361 0.610171,0.593708 1.26973,1.91334 1.99515,3.95788l0.494928 2.67168 0 2.96854 0 14.0504zm-44.3285 -4.55159l35.9178 0 0 -11.8736c0,-1.97868 -0.214023,-3.33125 -0.643098,-4.05666 -0.42856,-0.725929 -1.66537,-1.08864 -3.71042,-1.08864l-27.2102 0c-1.84698,0 -3.03439,0.346244 -3.56225,1.03925 -0.527855,0.692488 -0.791782,2.061 -0.791782,4.10605l0 11.8736z"/>
    <path id="_203899024123" class="fil4" d="M630.076 124.341l0 -43.5367c0,-3.56173 -0.330295,-6.86005 -0.989856,-9.89444l44.1798 0c5.42569,0 9.10318,0.857635 11.0165,2.57239 0.741877,0.527855 1.50073,1.71527 2.292,3.56225l0.593708 2.67168 0 3.46295 0 38.7875c0,4.55159 -1.0058,7.73415 -3.01793,9.5482 -2.01161,1.81405 -5.68961,2.72107 -11.0325,2.72107l-44.0316 0 0.626634 -2.57239 0.363222 -2.17727 0 -5.1453zm10.1913 -48.2858l0 53.0355 32.4548 0c1.71476,0 2.85278,-0.362707 3.41356,-1.08812 0.560781,-0.725929 0.841172,-2.07798 0.841172,-4.05717l0 -42.7449c0,-1.9792 -0.214537,-3.33125 -0.643612,-4.05717 -0.42856,-0.725414 -1.63244,-1.08812 -3.61112,-1.08812l-32.4548 0z"/>
    <path id="_2038990241234" class="fil4" d="M748.119 113.852l-44.3285 0 0 10.6862c0,2.04505 0.247464,3.41356 0.742392,4.10656 0.494413,0.692488 1.69829,1.03873 3.61164,1.03873l29.9807 0c3.75981,0 7.09105,-0.296854 9.99374,-0.890562l-1.18742 5.44215 -39.2819 0c-4.68329,0 -7.8993,-0.857635 -9.64749,-2.57239 -1.74768,-1.71527 -2.62178,-4.88137 -2.62178,-9.49932l0 -22.3618c0,-4.35351 0.890562,-7.45427 2.68815,-9.30125 1.78061,-1.84698 4.99661,-2.77046 9.63052,-2.77046l28.2989 0c4.70027,0 7.91576,0.824708 9.63103,2.47361 0.610171,0.593708 1.26973,1.91334 1.99515,3.95788l0.494928 2.67168 0 2.96854 0 14.0504zm-44.3285 -4.55159l35.9178 0 0 -11.8736c0,-1.97868 -0.214023,-3.33125 -0.643098,-4.05666 -0.42856,-0.725929 -1.66537,-1.08864 -3.71042,-1.08864l-27.2102 0c-1.84698,0 -3.03439,0.346244 -3.56225,1.03925 -0.527855,0.692488 -0.791782,2.061 -0.791782,4.10605l0 11.8736z"/>
    <path id="_20389902412345" class="fil4" d="M756.332 141.953l0 -44.3279c0,-3.82617 -0.296854,-7.12449 -0.890562,-9.89496l8.31191 0 0.494413 4.05717c0.527855,-2.70461 2.77046,-4.05717 6.72834,-4.05717l24.4403 0c4.815,0 8.08039,0.857635 9.79566,2.57291 1.84698,1.63244 2.77046,4.79854 2.77046,9.46588l0 22.3289c0,4.60098 -0.808245,7.76759 -2.42422,9.46588 -1.61598,1.71527 -4.79905,2.57291 -9.5482,2.57291l-24.5391 0 -2.37483 0 -2.07798 -0.593708c-0.791267,-0.396148 -1.48375,-1.22034 -2.07746,-2.47361l-0.198074 10.8838c0,3.82617 0.296854,7.12449 0.890562,9.89496l-10.1918 0c0.593708,-2.37483 0.890562,-5.67315 0.890562,-9.89496zm8.41069 -44.526l0 27.1115c0,2.04505 0.247464,3.41356 0.741877,4.10656 0.494928,0.692488 1.69881,1.03873 3.61164,1.03873l26.1221 0c1.78112,0 2.95208,-0.362707 3.51286,-1.08864 0.560267,-0.725414 0.840657,-2.07746 0.840657,-4.05666l0 -27.1115c0,-1.97868 -0.214023,-3.33125 -0.643098,-4.05666 -0.42856,-0.725929 -1.66537,-1.08864 -3.71042,-1.08864l-26.1221 0c-1.84698,0 -3.03439,0.346244 -3.56173,1.03925 -0.527855,0.692488 -0.791782,2.061 -0.791782,4.10605z"/>
    <path id="_203899024123456" class="fil4" d="M866.658 99.8021l0 24.5385c0,4.41988 0.32978,7.7182 0.989341,9.89496l-8.11332 0 -0.791782 -2.96854c-0.593708,1.15449 -1.2862,2.01212 -2.07798,2.55644l-1.58305 0.412097 -2.77046 0 -24.9347 0c-4.68329,0 -7.8993,-0.857635 -9.64749,-2.57239 -1.74768,-1.71527 -2.62178,-4.88137 -2.62178,-9.49932l0 -7.12398c0,-4.35351 0.890562,-7.45427 2.67168,-9.30125 1.78061,-1.84698 4.98015,-2.77046 9.59759,-2.77046l26.6165 0c1.58356,0 2.73754,-0.362707 3.46347,-1.08812 0.593708,-0.791782 0.890562,-2.14383 0.890562,-4.05717l0 -0.593708c0,-1.91283 -0.362707,-3.19902 -1.08864,-3.85859 -0.593708,-0.725929 -1.68183,-1.08864 -3.26539,-1.08864l-28.002 0c-3.75981,0 -7.09105,0.296854 -9.99322,0.890562l0.692488 -5.44215 37.7977 0c4.68329,0 7.88283,0.808245 9.5981,2.42422 1.71476,1.61649 2.57239,4.83198 2.57239,9.64749zm-8.31139 24.8189l0 -17.1013 -30.4756 0c-1.84698,0 -3.03439,0.346244 -3.56225,1.03925 -0.527855,0.692488 -0.791782,2.07746 -0.791782,4.12251l0 11.9395c0,2.04505 0.247464,3.43054 0.742392,4.12303 0.494413,0.692488 1.69829,1.03873 3.61164,1.03873l26.1216 0c1.58356,0 2.73754,-0.362707 3.46347,-1.08812 0.593708,-0.808245 0.890562,-2.16029 0.890562,-4.07364z"/>
    <path id="_2038990241234567" class="fil4" d="M890.306 87.7304l18.5032 0 -0.494928 7.0252 -6.62956 -0.791267 -5.93656 -0.296854 -6.92642 0c-1.84698,0 -3.03439,0.346244 -3.56173,1.03873 -0.527855,0.692488 -0.791782,2.06151 -0.791782,4.10656l0 25.5279c0,3.82617 0.296854,7.12449 0.890562,9.89496l-10.1918 0c0.593708,-2.37483 0.890562,-5.67315 0.890562,-9.89496l0 -26.7153c0,-3.82617 -0.296854,-7.12449 -0.890562,-9.89496l8.41069 0 0.395634 4.35403c0.659561,-1.5172 1.43488,-2.62229 2.32544,-3.31478 0.890562,-0.693002 2.22615,-1.03925 4.00727,-1.03925z"/>
    <path id="_20389902412345678" class="fil4" d="M950.268 92.2819l-23.3511 0 0 32.2567c0,2.04505 0.246949,3.41356 0.741877,4.10656 0.494928,0.692488 1.66537,1.03873 3.51234,1.03873l11.478 0c3.95788,0 7.28913,-0.296854 9.99374,-0.890562l-0.692488 5.44215 -21.2737 0c-4.68381,0 -7.88283,-0.857635 -9.5981,-2.57239 -1.71476,-1.71527 -2.57239,-4.88137 -2.57239,-9.49932l0 -29.8819 -7.32205 0 0 -4.55159 7.32205 0 0 -9.20196 8.41069 -1.58305 0 10.785 23.3511 0 0 4.55159z"/>
    <path id="_203899024123456789" class="fil4" d="M1009.83 113.852l-44.3285 0 0 10.6862c0,2.04505 0.247464,3.41356 0.742392,4.10656 0.494413,0.692488 1.69829,1.03873 3.61164,1.03873l29.9807 0c3.75981,0 7.09105,-0.296854 9.99374,-0.890562l-1.18742 5.44215 -39.2819 0c-4.68329,0 -7.8993,-0.857635 -9.64749,-2.57239 -1.74768,-1.71527 -2.62178,-4.88137 -2.62178,-9.49932l0 -22.3618c0,-4.35351 0.890562,-7.45427 2.68815,-9.30125 1.78061,-1.84698 4.99661,-2.77046 9.63052,-2.77046l28.2989 0c4.70027,0 7.91576,0.824708 9.63103,2.47361 0.610171,0.593708 1.26973,1.91334 1.99515,3.95788l0.494928 2.67168 0 2.96854 0 14.0504zm-44.3285 -4.55159l35.9178 0 0 -11.8736c0,-1.97868 -0.214023,-3.33125 -0.643098,-4.05666 -0.42856,-0.725929 -1.66537,-1.08864 -3.71042,-1.08864l-27.2102 0c-1.84698,0 -3.03439,0.346244 -3.56225,1.03925 -0.527855,0.692488 -0.791782,2.061 -0.791782,4.10605l0 11.8736z"/>
    <path id="_20389902412345678910" class="fil4" d="M1059.51 70.9095l9.0044 0 0 53.4311c0,4.41988 0.32978,7.7182 0.989341,9.89496l-8.21261 0 -0.593708 -4.05666c-0.52734,2.70461 -2.77046,4.05666 -6.72834,4.05666l-24.7366 0c-4.68329,0 -7.8993,-0.857635 -9.64749,-2.57239 -1.74768,-1.71527 -2.62178,-4.88137 -2.62178,-9.49932l0 -22.3618c0,-4.35351 0.890562,-7.45427 2.67168,-9.30125 1.78061,-1.84698 4.98015,-2.77046 9.59759,-2.77046l24.2422 0c2.1109,0 3.43003,0.115758 3.95788,0.346244 0.52734,0.231001 1.08812,0.742392 1.68183,1.53366l1.08864 3.06732 0.19756 -11.8736c0,-3.82566 -0.296854,-7.12398 -0.890562,-9.89444zm0.890562 53.6292l0 -27.1115c0,-1.97868 -0.263413,-3.33125 -0.791267,-4.05666 -0.527855,-0.725929 -1.73173,-1.08864 -3.57871,-1.08864l-26.2703 0c-1.86344,0 -3.06732,0.346244 -3.59517,1.03925 -0.527855,0.692488 -0.791782,2.061 -0.791782,4.10605l0 27.1115c0,2.04505 0.247464,3.41356 0.742392,4.10656 0.494413,0.692488 1.71476,1.03873 3.64456,1.03873l26.2703 0c1.58305,0 2.73754,-0.362707 3.47942,-1.08864 0.593708,-0.791267 0.890562,-2.14383 0.890562,-4.05666z"/>
    <line id="_204318576" class="fil7" x1="28.0761" y1="692.272" x2="1511.68" y2= "692.272" />
    <polygon id="_206331152" class="fil8" points="35.09,683.135 121.033,627.421 132.88,645.697 77.8318,681.383 1461.93,681.383 1406.88,645.697 1418.72,627.421 1504.67,683.135 1518.76,692.269 1504.67,701.408 1418.73,757.165 1412.8,748.029 1406.87,738.893 1461.95,703.162 77.8076,703.162 132.884,738.893 126.957,748.029 121.03,757.165 35.0864,701.408 20.9989,692.269 "/>
   </g>
  </g>
  <polygon class="fil7 str0" points="-0,0 1528,0 1528,1080.4 -0,1080.4 "/>
 </g>
</svg>
