<?xml version="1.0" encoding="UTF-8"?>
<!DOCTYPE svg PUBLIC "-//W3C//DTD SVG 1.1//EN" "http://www.w3.org/Graphics/SVG/1.1/DTD/svg11.dtd">
<!-- Creator: CorelDRAW X5 -->
<svg xmlns="http://www.w3.org/2000/svg" xml:space="preserve" width="1419px" height="325px" style="shape-rendering:geometricPrecision; text-rendering:geometricPrecision; image-rendering:optimizeQuality; fill-rule:evenodd; clip-rule:evenodd"
viewBox="0 0 1419 325.296"
 xmlns:xlink="http://www.w3.org/1999/xlink">
 <defs>
  <style type="text/css">
   <![CDATA[
    .str0 {stroke:#373435;stroke-width:2.08346}
    .fil2 {fill:black}
    .fil0 {fill:#B3B3B3}
    .fil1 {fill:black;fill-rule:nonzero}
    .fil3 {fill:#B3B3B3;fill-rule:nonzero}
   ]]>
  </style>
 </defs>
 <g id="PowerClip_x0020_Contents">
  <metadata id="CorelCorpID_0Corel-Layer"/>
  <rect class="fil0 str0" x="1.04221" y="1.04228" width="1416.92" height="323.212"/>
  <polygon class="fil1" points="164.382,253.319 187.989,253.319 187.989,300.664 180.12,300.664 180.12,261.253 172.251,261.253 172.251,268.139 164.382,268.139 "/>
  <polygon id="1" class="fil1" points="210.285,253.319 210.285,273.057 202.415,273.057 202.415,253.319 194.546,253.319 194.546,300.664 202.415,300.664 202.415,280.925 210.285,280.925 210.285,300.664 218.153,300.664 218.153,253.319 "/>
  <path id="12" class="fil1" d="M248.317 269.122l0 -11.8689c0,-1.0937 -0.382677,-2.02205 -1.14685,-2.7874 -0.765354,-0.765354 -1.69488,-1.14685 -2.7874,-1.14685l-15.7382 0c-1.09252,0 -2.02205,0.381496 -2.78622,1.14685 -0.765354,0.765354 -1.14803,1.6937 -1.14803,2.7874l0 39.476c0,1.09252 0.382677,2.02205 1.14803,2.78622 0.764173,0.765354 1.6937,1.14803 2.78622,1.14803l15.7382 0c1.09252,0 2.02205,-0.382677 2.7874,-1.14803 0.764173,-0.764173 1.14685,-1.6937 1.14685,-2.78622l0 -11.8689 -7.8685 0 0 7.8685 -7.86969 0 0 -12.2622 15.7382 0 0 -11.3445zm-7.8685 4.3937l-7.86969 0 0 -12.2634 7.86969 0 0 12.2634z"/>
  <path id="123" class="fil1" d="M293.694 253.319l-17.8358 0 0 47.3445 17.4425 0c2.14252,-0.742913 3.49724,-1.39843 4.06654,-1.96772 0.56811,-0.56811 1.22362,-1.92283 1.96654,-4.06535l0 -35.1484c-0.524409,-2.05394 -1.09252,-3.49724 -1.70433,-4.32756 -0.569291,-0.742913 -1.88031,-1.35472 -3.93543,-1.83543zm-9.96732 7.93346l7.86969 0 0 31.4764 -7.86969 0 0 -31.4764z"/>
  <path id="1234" class="fil1" d="M329.629 269.122l0 -11.8689c0,-1.0937 -0.382677,-2.02205 -1.14685,-2.7874 -0.765354,-0.765354 -1.69488,-1.14685 -2.7874,-1.14685l-15.7382 0c-1.09252,0 -2.02205,0.381496 -2.78622,1.14685 -0.765354,0.765354 -1.14803,1.6937 -1.14803,2.7874l0 39.476c0,1.09252 0.382677,2.02205 1.14803,2.78622 0.764173,0.765354 1.6937,1.14803 2.78622,1.14803l15.7382 0c1.09252,0 2.02205,-0.382677 2.7874,-1.14803 0.764173,-0.764173 1.14685,-1.6937 1.14685,-2.78622l0 -11.8689 -7.8685 0 0 7.8685 -7.86969 0 0 -12.2622 15.7382 0 0 -11.3445zm-7.8685 4.3937l-7.86969 0 0 -12.2634 7.86969 0 0 12.2634z"/>
  <path id="12345" class="fil1" d="M592.319 257.254c0,-1.0937 -0.382677,-2.02205 -1.14685,-2.7874 -0.765354,-0.765354 -1.69488,-1.14685 -2.7874,-1.14685l-19.6724 0 0 47.3445 7.8685 0 0 -19.7386 11.8039 0c1.09252,0 2.02205,-0.381496 2.7874,-1.14685 0.764173,-0.765354 1.14685,-1.6937 1.14685,-2.7874l0 -19.7374zm-15.7382 3.99921l7.86969 0 0 11.8039 -7.86969 0 0 -11.8039z"/>
  <path id="123456" class="fil1" d="M614.484 259.22l0 28.5909 -7.86969 0 0 -28.5909 7.86969 0zm-15.7382 -6.03189l0 47.4756 7.8685 0 0 -4.98425 8.39409 0 0 4.98425 7.4752 0 0 -47.4756 -23.7378 0z"/>
  <path id="1234567" class="fil1" d="M636.909 280.925l-3.93425 0c-1.09252,0 -2.02205,-0.381496 -2.78622,-1.14685 -0.765354,-0.765354 -1.14803,-1.6937 -1.14803,-2.7874l0 -19.7374c0,-1.0937 0.382677,-2.02205 1.14803,-2.7874 0.764173,-0.765354 1.6937,-1.14685 2.78622,-1.14685l19.6724 0 0 47.3445 -7.8685 0 0 -19.7386 -7.86969 19.7386 -7.8685 0 7.8685 -19.7386zm0 -7.8685l7.86969 0 0 -11.8039 -7.86969 0 0 11.8039z"/>
  <polygon id="12345678" class="fil1" points="674.812,261.319 682.419,261.319 682.419,253.319 659.598,253.319 659.598,261.319 667.205,261.319 667.205,300.664 674.812,300.664 "/>
  <path id="123456789" class="fil1" d="M815.271 269.122l0 -11.8689c0,-1.0937 -0.382677,-2.02205 -1.14685,-2.7874 -0.765354,-0.765354 -1.69488,-1.14685 -2.7874,-1.14685l-15.7382 0c-1.09252,0 -2.02205,0.381496 -2.78622,1.14685 -0.765354,0.765354 -1.14803,1.6937 -1.14803,2.7874l0 39.476c0,1.09252 0.382677,2.02205 1.14803,2.78622 0.764173,0.765354 1.6937,1.14803 2.78622,1.14803l15.7382 0c1.09252,0 2.02205,-0.382677 2.7874,-1.14803 0.764173,-0.764173 1.14685,-1.6937 1.14685,-2.78622l0 -11.8689 -7.8685 0 0 7.8685 -7.86969 0 0 -12.2622 7.08307 0 0 -6.95079 -7.08307 0 0 -12.2634 7.86969 0 0 7.86969 7.8685 0z"/>
  <path id="12345678910" class="fil1" d="M1116.91 253.319l-17.8358 0 0 47.3445 17.4425 0c2.14252,-0.742913 3.49724,-1.39843 4.06654,-1.96772 0.56811,-0.56811 1.22362,-1.92283 1.96654,-4.06535l0 -35.1484c-0.524409,-2.05394 -1.09252,-3.49724 -1.70433,-4.32756 -0.569291,-0.742913 -1.88031,-1.35472 -3.93543,-1.83543zm-9.96732 7.93346l7.86969 0 0 31.4764 -7.86969 0 0 -31.4764z"/>
  <path id="1234567891011" class="fil1" d="M358.613 279.68c0.699213,-0.174803 1.04882,-1.0937 1.04882,-2.75433 0,-1.66181 -0.262205,-2.75433 -0.786614,-3.27874l-5.50866 0 6.29528 -16.1315 0 -2.49213 -2.22992 -2.22992 -1.63937 0 -1.90157 -0.131102 -1.83543 2.75433 -3.86929 10.0984 -4.85197 -12.7217 -4.3937 0 -2.22992 2.22992 0 2.49213 5.37756 16.1315 -4.32874 0c-0.524409,0.437008 -0.807874,1.46457 -0.851575,3.0815l0 0.590551c0,1.22362 0.152362,2.09882 0.458268,2.62323l4.98425 0 -5.63976 15.4748 0 2.49213 2.22992 2.75433 4.3937 0 4.85197 -13.2461 4.85315 13.2461 4.39252 0 2.22992 -2.75433 0 -2.49213 -6.29528 -15.737 5.24646 0z"/>
  <polygon id="123456789101112" class="fil1" points="382.351,261.319 389.957,261.319 389.957,253.319 367.137,253.319 367.137,261.319 374.744,261.319 374.744,300.664 382.351,300.664 "/>
  <path id="12345678910111213" class="fil1" d="M420.515 269.122l0 -11.8689c0,-1.0937 -0.382677,-2.02205 -1.14685,-2.7874 -0.765354,-0.765354 -1.69488,-1.14685 -2.7874,-1.14685l-15.7382 0c-1.09252,0 -2.02205,0.381496 -2.78622,1.14685 -0.765354,0.765354 -1.14803,1.6937 -1.14803,2.7874l0 39.476c0,1.09252 0.382677,2.02205 1.14803,2.78622 0.764173,0.765354 1.6937,1.14803 2.78622,1.14803l15.7382 0c1.09252,0 2.02205,-0.382677 2.7874,-1.14803 0.764173,-0.764173 1.14685,-1.6937 1.14685,-2.78622l0 -11.8689 -7.8685 0 0 7.8685 -7.86969 0 0 -12.2622 15.7382 0 0 -11.3445zm-7.8685 4.3937l-7.86969 0 0 -12.2634 7.86969 0 0 12.2634z"/>
  <path id="1234567891011121314" class="fil1" d="M434.941 280.925l-3.93425 0c-1.09252,0 -2.02205,-0.381496 -2.78622,-1.14685 -0.765354,-0.765354 -1.14803,-1.6937 -1.14803,-2.7874l0 -19.7374c0,-1.0937 0.382677,-2.02205 1.14803,-2.7874 0.764173,-0.765354 1.6937,-1.14685 2.78622,-1.14685l19.6724 0 0 47.3445 -7.8685 0 0 -19.7386 -7.86969 19.7386 -7.8685 0 7.8685 -19.7386zm0 -7.8685l7.86969 0 0 -11.8039 -7.86969 0 0 11.8039z"/>
  <path id="123456789101112131415" class="fil1" d="M475.729 262.368l-3.14764 0 0 -9.04843 -7.08189 0 0 9.04843 -3.41102 0c-0.699213,0.349606 -1.30039,0.688583 -1.80236,1.01693 -0.50315,0.327165 -0.907087,0.644882 -1.21299,0.950787 -0.569291,0.56811 -1.2248,1.66063 -1.96772,3.27874l0 18.098c0.524409,1.05 1.09252,1.88031 1.70433,2.49213 0.612992,0.611811 1.53071,1.35591 2.75433,2.22992l3.67205 0 0 10.2295 7.60748 0 0 -10.2295 3.67205 0c0.699213,-0.349606 1.27913,-0.677953 1.7374,-0.983858 0.459449,-0.305906 0.842126,-0.634252 1.14803,-0.983858 0.305906,-0.349606 0.55748,-0.742913 0.753543,-1.17992 0.197244,-0.437008 0.382677,-0.961417 0.55748,-1.57441l0 -18.6224c-0.742913,-1.39961 -1.39843,-2.36102 -1.96654,-2.88543 -0.307087,-0.262205 -0.711024,-0.54685 -1.21417,-0.852756 -0.501969,-0.305906 -1.10315,-0.634252 -1.80236,-0.983858zm-10.7551 21.5091l0 -14.9516 7.86969 0 0 14.9516 -7.86969 0z"/>
  <path id="12345678910111213141516" class="fil1" d="M511.007 296.926l0 -43.6063 -7.8685 0 0 39.4098 -7.86969 0 0 -39.4098 -7.8685 0 0 43.4102c0,1.09252 0.382677,2.02205 1.14803,2.78622 0.764173,0.765354 1.6937,1.14803 2.78622,1.14803l15.7382 0c1.04882,0 1.96772,-0.360236 2.75433,-1.08189 0.786614,-0.721654 1.17992,-1.6063 1.17992,-2.6563z"/>
  <polygon id="1234567891011121314151617" class="fil1" points="517.565,253.319 541.172,253.319 541.172,269.122 533.303,269.122 533.303,261.253 525.433,261.253 541.172,292.729 541.172,300.664 517.565,300.664 517.565,284.861 525.433,284.861 525.433,292.729 533.303,292.729 517.565,261.253 "/>
  <path id="123456789101112131415161718" class="fil1" d="M728.845 262.368l-3.14764 0 0 -9.04843 -7.08189 0 0 9.04843 -3.41102 0c-0.699213,0.349606 -1.30039,0.688583 -1.80236,1.01693 -0.50315,0.327165 -0.907087,0.644882 -1.21299,0.950787 -0.569291,0.56811 -1.2248,1.66063 -1.96772,3.27874l0 18.098c0.524409,1.05 1.09252,1.88031 1.70433,2.49213 0.612992,0.611811 1.53071,1.35591 2.75433,2.22992l3.67205 0 0 10.2295 7.60748 0 0 -10.2295 3.67205 0c0.699213,-0.349606 1.27913,-0.677953 1.7374,-0.983858 0.459449,-0.305906 0.842126,-0.634252 1.14803,-0.983858 0.305906,-0.349606 0.55748,-0.742913 0.753543,-1.17992 0.197244,-0.437008 0.382677,-0.961417 0.55748,-1.57441l0 -18.6224c-0.742913,-1.39961 -1.39843,-2.36102 -1.96654,-2.88543 -0.307087,-0.262205 -0.711024,-0.54685 -1.21417,-0.852756 -0.501969,-0.305906 -1.10315,-0.634252 -1.80236,-0.983858zm-10.7551 21.5091l0 -14.9516 7.86969 0 0 14.9516 -7.86969 0z"/>
  <path id="12345678910111213141516171819" class="fil1" d="M764.124 269.122l0 -11.8689c0,-1.0937 -0.382677,-2.02205 -1.14685,-2.7874 -0.765354,-0.765354 -1.69488,-1.14685 -2.7874,-1.14685l-15.7382 0c-1.09252,0 -2.02205,0.381496 -2.78622,1.14685 -0.765354,0.765354 -1.14803,1.6937 -1.14803,2.7874l0 43.4102 7.8685 0 0 -20.263 7.08307 0 0 -6.88465 -7.08307 0 0 -12.2634 7.86969 0 0 7.86969 7.8685 0z"/>
  <path id="1234567891011121314151617181920" class="fil1" d="M844.256 279.68c0.699213,-0.174803 1.04882,-1.0937 1.04882,-2.75433 0,-1.66181 -0.262205,-2.75433 -0.786614,-3.27874l-5.50866 0 6.29528 -16.1315 0 -2.49213 -2.22992 -2.22992 -1.63937 0 -1.90157 -0.131102 -1.83543 2.75433 -3.86929 10.0984 -4.85197 -12.7217 -4.3937 0 -2.22992 2.22992 0 2.49213 5.37756 16.1315 -4.32874 0c-0.524409,0.437008 -0.807874,1.46457 -0.851575,3.0815l0 0.590551c0,1.22362 0.152362,2.09882 0.458268,2.62323l4.98425 0 -5.63976 15.4748 0 2.49213 2.22992 2.75433 4.3937 0 4.85197 -13.2461 4.85315 13.2461 4.39252 0 2.22992 -2.75433 0 -2.49213 -6.29528 -15.737 5.24646 0z"/>
  <path id="123456789101112131415161718192021" class="fil1" d="M875.993 257.254c0,-1.0937 -0.382677,-2.02205 -1.14685,-2.7874 -0.765354,-0.765354 -1.69488,-1.14685 -2.7874,-1.14685l-19.6724 0 0 47.3445 7.8685 0 0 -19.7386 11.8039 0c1.09252,0 2.02205,-0.381496 2.7874,-1.14685 0.764173,-0.765354 1.14685,-1.6937 1.14685,-2.7874l0 -19.7374zm-15.7382 3.99921l7.86969 0 0 11.8039 -7.86969 0 0 -11.8039z"/>
  <path id="12345678910111213141516171819202122" class="fil1" d="M906.157 269.122l0 -11.8689c0,-1.0937 -0.382677,-2.02205 -1.14685,-2.7874 -0.765354,-0.765354 -1.69488,-1.14685 -2.7874,-1.14685l-15.7382 0c-1.09252,0 -2.02205,0.381496 -2.78622,1.14685 -0.765354,0.765354 -1.14803,1.6937 -1.14803,2.7874l0 39.476c0,1.09252 0.382677,2.02205 1.14803,2.78622 0.764173,0.765354 1.6937,1.14803 2.78622,1.14803l15.7382 0c1.09252,0 2.02205,-0.382677 2.7874,-1.14803 0.764173,-0.764173 1.14685,-1.6937 1.14685,-2.78622l0 -11.8689 -7.8685 0 0 7.8685 -7.86969 0 0 -12.2622 15.7382 0 0 -11.3445zm-7.8685 4.3937l-7.86969 0 0 -12.2634 7.86969 0 0 12.2634z"/>
  <path id="1234567891011121314151617181920212223" class="fil1" d="M920.583 280.925l-3.93425 0c-1.09252,0 -2.02205,-0.381496 -2.78622,-1.14685 -0.765354,-0.765354 -1.14803,-1.6937 -1.14803,-2.7874l0 -19.7374c0,-1.0937 0.382677,-2.02205 1.14803,-2.7874 0.764173,-0.765354 1.6937,-1.14685 2.78622,-1.14685l19.6724 0 0 47.3445 -7.8685 0 0 -19.7386 -7.86969 19.7386 -7.8685 0 7.8685 -19.7386zm0 -7.8685l7.86969 0 0 -11.8039 -7.86969 0 0 11.8039z"/>
  <polygon id="123456789101112131415161718192021222324" class="fil1" points="950.878,253.319 943.01,253.319 943.01,300.664 950.878,300.664 "/>
  <polygon id="12345678910111213141516171819202122232425" class="fil1" points="973.174,253.319 981.043,253.319 981.043,300.664 973.174,300.664 973.174,276.991 969.24,280.925 965.304,276.991 965.304,300.664 957.436,300.664 957.436,253.319 965.304,253.319 969.24,269.122 "/>
  <path id="1234567891011121314151617181920212223242526" class="fil1" d="M1011.21 269.122l0 -11.8689c0,-1.0937 -0.382677,-2.02205 -1.14685,-2.7874 -0.765354,-0.765354 -1.69488,-1.14685 -2.7874,-1.14685l-15.7382 0c-1.09252,0 -2.02205,0.381496 -2.78622,1.14685 -0.765354,0.765354 -1.14803,1.6937 -1.14803,2.7874l0 39.476c0,1.09252 0.382677,2.02205 1.14803,2.78622 0.764173,0.765354 1.6937,1.14803 2.78622,1.14803l15.7382 0c1.09252,0 2.02205,-0.382677 2.7874,-1.14803 0.764173,-0.764173 1.14685,-1.6937 1.14685,-2.78622l0 -11.8689 -7.8685 0 0 7.8685 -7.86969 0 0 -12.2622 15.7382 0 0 -11.3445zm-7.8685 4.3937l-7.86969 0 0 -12.2634 7.86969 0 0 12.2634z"/>
  <path id="123456789101112131415161718192021222324252627" class="fil1" d="M1021.7 253.319l15.7382 0c1.09252,0 2.02205,0.381496 2.7874,1.14685 0.764173,0.765354 1.14685,1.6937 1.14685,2.7874l0 43.4102 -7.8685 0 0 -39.476 -7.73858 0 0 39.476 -7.99961 0 0 -43.4102c0,-1.0937 0.382677,-2.02205 1.14803,-2.7874 0.764173,-0.765354 1.6937,-1.14685 2.78622,-1.14685z"/>
  <polygon id="12345678910111213141516171819202122232425262728" class="fil1" points="1063.54,261.319 1071.14,261.319 1071.14,253.319 1048.32,253.319 1048.32,261.319 1055.93,261.319 1055.93,300.664 1063.54,300.664 "/>
  <path id="1234567891011121314151617181920212223242526272829" class="fil1" d="M1152.85 269.122l0 -11.8689c0,-1.0937 -0.382677,-2.02205 -1.14685,-2.7874 -0.765354,-0.765354 -1.69488,-1.14685 -2.7874,-1.14685l-15.7382 0c-1.09252,0 -2.02205,0.381496 -2.78622,1.14685 -0.765354,0.765354 -1.14803,1.6937 -1.14803,2.7874l0 39.476c0,1.09252 0.382677,2.02205 1.14803,2.78622 0.764173,0.765354 1.6937,1.14803 2.78622,1.14803l15.7382 0c1.09252,0 2.02205,-0.382677 2.7874,-1.14803 0.764173,-0.764173 1.14685,-1.6937 1.14685,-2.78622l0 -11.8689 -7.8685 0 0 7.8685 -7.86969 0 0 -12.2622 15.7382 0 0 -11.3445zm-7.8685 4.3937l-7.86969 0 0 -12.2634 7.86969 0 0 12.2634z"/>
  <polygon id="123456789101112131415161718192021222324252627282930" class="fil1" points="1159.4,253.319 1183.01,253.319 1183.01,269.122 1175.14,269.122 1175.14,261.253 1167.27,261.253 1183.01,292.729 1183.01,300.664 1159.4,300.664 1159.4,284.861 1167.27,284.861 1167.27,292.729 1175.14,292.729 1159.4,261.253 "/>
  <polygon id="12345678910111213141516171819202122232425262728293031" class="fil1" points="1197.57,253.319 1189.7,253.319 1189.7,300.664 1197.57,300.664 "/>
  <path id="1234567891011121314151617181920212223242526272829303132" class="fil1" d="M1227.73 257.254c0,-1.0937 -0.382677,-2.02205 -1.14685,-2.7874 -0.765354,-0.765354 -1.69488,-1.14685 -2.7874,-1.14685l-15.7382 0c-1.09252,0 -2.02205,0.381496 -2.78622,1.14685 -0.765354,0.765354 -1.14803,1.6937 -1.14803,2.7874l0 19.7374c0,1.0937 0.382677,2.02205 1.14803,2.7874 0.764173,0.765354 1.6937,1.14685 2.78622,1.14685l11.8039 0 0 11.8039 -7.86969 0 0 -7.8685 -7.8685 0 0 15.8031 19.6724 0c1.09252,0 2.02205,-0.382677 2.7874,-1.14803 0.764173,-0.764173 1.14685,-1.6937 1.14685,-2.78622l0 -39.476zm-15.7382 15.8031l0 -11.8039 7.86969 0 0 11.8039 -7.86969 0z"/>
  <path id="123456789101112131415161718192021222324252627282930313233" class="fil1" d="M1238.22 253.319l15.7382 0c1.09252,0 2.02205,0.381496 2.7874,1.14685 0.764173,0.765354 1.14685,1.6937 1.14685,2.7874l0 43.4102 -7.8685 0 0 -39.476 -7.73858 0 0 39.476 -7.99961 0 0 -43.4102c0,-1.0937 0.382677,-2.02205 1.14803,-2.7874 0.764173,-0.765354 1.6937,-1.14685 2.78622,-1.14685z"/>
  <path id="12345678910111213141516171819202122232425262728293031323334" class="fil2" d="M161.104 306.625l90.4925 0 0 2.9811 -90.4925 0 0 -2.9811zm111.476 0l60.3283 0 0 2.9811 -60.3283 0 0 -2.9811zm292.854 0l120.657 0 0 2.9811 -120.657 0 0 -2.9811zm222.952 0l30.1642 0 0 2.9811 -30.1642 0 0 -2.9811zm307.411 0l30.1642 0 0 2.9811 -30.1642 0 0 -2.9811z"/>
  <rect class="fil2 str0" x="1.04221" y="1.04228" width="1416.92" height="237.183"/>
  <path class="fil3" d="M102.654 80.9043l-53.6079 0 0 74.0528c0,4.69488 0.566929,7.83661 1.70315,9.42756 1.13622,1.58976 3.82323,2.38465 8.06339,2.38465l26.3504 0c9.08622,0 16.7339,-0.681496 22.9429,-2.04449l-1.58976 12.4937 -48.8386 0c-10.7528,0 -18.0969,-1.9689 -22.0346,-5.90551 -3.93661,-3.9378 -5.90551,-11.2063 -5.90551,-21.8079l0 -68.6008 -16.8094 0 0 -10.4492 16.8094 0 0 -21.1252 19.3087 -3.63425 0 24.7594 53.6079 0 0 10.4492z"/>
  <path id="1" class="fil3" d="M120.827 154.502l0 -99.9484c0,-8.78268 -0.681496,-16.3547 -2.04449,-22.715l21.3531 0 0 45.8858c1.05945,-1.9689 2.65039,-3.8622 4.77047,-5.67874 1.36299,-0.454724 2.72598,-0.833858 4.08898,-1.13622 1.36299,-0.303543 2.87717,-0.454724 4.54252,-0.454724l59.2878 0c10.7516,0 18.1346,1.9689 22.148,5.90669 4.0122,3.93661 6.0189,11.2063 6.0189,21.8067l0 56.3339c0,8.78386 0.681496,16.3559 2.04449,22.7161l-23.3965 0c1.36299,-5.45197 2.04449,-13.024 2.04449,-22.7161l0 -61.7858c0,-4.54252 -0.49252,-7.64764 -1.47756,-9.31299 -0.983858,-1.66654 -3.82323,-2.49921 -8.51811,-2.49921l-61.5591 0c-4.24016,0 -6.96614,0.794882 -8.17677,2.38583 -1.21181,1.58976 -1.81772,4.7315 -1.81772,9.42638l0 61.7858c0,8.78386 0.681496,16.3559 2.04449,22.7161l-23.3976 0c1.36299,-5.45197 2.04449,-13.024 2.04449,-22.7161z"/>
  <path id="12" class="fil3" d="M380.92 130.424l-101.766 0 0 24.5327c0,4.69488 0.56811,7.83661 1.70433,9.42756 1.13504,1.58976 3.89882,2.38465 8.29134,2.38465l68.8276 0c8.6315,0 16.2791,-0.681496 22.9429,-2.04449l-2.72598 12.4937 -90.1807 0c-10.7516,0 -18.1346,-1.9689 -22.148,-5.90551 -4.0122,-3.9378 -6.0189,-11.2063 -6.0189,-21.8079l0 -51.3366c0,-9.99449 2.04449,-17.113 6.17126,-21.3531 4.0878,-4.24016 11.4709,-6.36024 22.1091,-6.36024l64.9665 0c10.7906,0 18.1724,1.89331 22.1102,5.67874 1.40079,1.36299 2.91496,4.39252 4.58031,9.08622l1.13622 6.13346 0 6.81496 0 32.2559zm-101.766 -10.4492l82.4575 0 0 -27.2587c0,-4.54252 -0.491339,-7.64764 -1.47638,-9.31299 -0.983858,-1.66654 -3.82323,-2.49921 -8.51811,-2.49921l-62.4673 0c-4.24016,0 -6.96614,0.794882 -8.17795,2.38583 -1.21181,1.58976 -1.81772,4.7315 -1.81772,9.42638l0 27.2587z"/>
  <path id="123" class="fil3" d="M402.046 154.502l0 -99.9484c0,-8.17677 -0.758268,-15.7488 -2.27244,-22.715l101.425 0c12.4559,0 20.8984,1.9689 25.2909,5.90551 1.70315,1.21181 3.44528,3.9378 5.26181,8.17795l1.36299 6.13346 0 7.95 0 89.0457c0,10.4492 -2.30906,17.7555 -6.92835,21.9201 -4.61811,4.16457 -13.0618,6.24685 -25.3276,6.24685l-101.085 0 1.43858 -5.90551 0.833858 -4.99843 0 -11.8122zm23.3965 -110.851l0 121.755 74.5075 0c3.93661,0 6.54921,-0.832677 7.83661,-2.49803 1.2874,-1.66654 1.9311,-4.77047 1.9311,-9.31417l0 -98.1307c0,-4.5437 -0.49252,-7.64764 -1.47756,-9.31417 -0.983858,-1.66535 -3.74764,-2.49803 -8.29016,-2.49803l-74.5075 0z"/>
  <path id="1234" class="fil3" d="M673.042 130.424l-101.766 0 0 24.5327c0,4.69488 0.56811,7.83661 1.70433,9.42756 1.13504,1.58976 3.89882,2.38465 8.29134,2.38465l68.8276 0c8.6315,0 16.2791,-0.681496 22.9429,-2.04449l-2.72598 12.4937 -90.1807 0c-10.7516,0 -18.1346,-1.9689 -22.148,-5.90551 -4.0122,-3.9378 -6.0189,-11.2063 -6.0189,-21.8079l0 -51.3366c0,-9.99449 2.04449,-17.113 6.17126,-21.3531 4.0878,-4.24016 11.4709,-6.36024 22.1091,-6.36024l64.9665 0c10.7906,0 18.1724,1.89331 22.1102,5.67874 1.40079,1.36299 2.91496,4.39252 4.58031,9.08622l1.13622 6.13346 0 6.81496 0 32.2559zm-101.766 -10.4492l82.4575 0 0 -27.2587c0,-4.54252 -0.491339,-7.64764 -1.47638,-9.31299 -0.983858,-1.66654 -3.82323,-2.49921 -8.51811,-2.49921l-62.4673 0c-4.24016,0 -6.96614,0.794882 -8.17795,2.38583 -1.21181,1.58976 -1.81772,4.7315 -1.81772,9.42638l0 27.2587z"/>
  <path id="12345" class="fil3" d="M691.896 194.936l0 -101.765c0,-8.78386 -0.681496,-16.3559 -2.04449,-22.7161l19.0819 0 1.13504 9.31417c1.21181,-6.20906 6.36024,-9.31417 15.4465,-9.31417l56.1083 0c11.0539,0 18.5504,1.9689 22.4882,5.90669 4.24016,3.74764 6.36024,11.0161 6.36024,21.7311l0 51.261c0,10.5626 -1.85551,17.8323 -5.56535,21.7311 -3.70984,3.9378 -11.0173,5.90669 -21.9201,5.90669l-56.335 0 -5.45197 0 -4.77047 -1.36299c-1.81654,-0.909449 -3.4063,-2.80157 -4.76929,-5.67874l-0.454724 24.9862c0,8.78386 0.681496,16.3559 2.04449,22.7161l-23.3976 0c1.36299,-5.45197 2.04449,-13.024 2.04449,-22.7161zm19.3087 -102.22l0 62.2406c0,4.69488 0.56811,7.83661 1.70315,9.42756 1.13622,1.58976 3.9,2.38465 8.29134,2.38465l59.9693 0c4.08898,0 6.77717,-0.832677 8.06457,-2.49921 1.28622,-1.66535 1.92992,-4.76929 1.92992,-9.31299l0 -62.2406c0,-4.54252 -0.491339,-7.64764 -1.47638,-9.31299 -0.983858,-1.66654 -3.82323,-2.49921 -8.51811,-2.49921l-59.9693 0c-4.24016,0 -6.96614,0.794882 -8.17677,2.38583 -1.21181,1.58976 -1.81772,4.7315 -1.81772,9.42638z"/>
  <path id="123456" class="fil3" d="M945.175 98.1685l0 56.3339c0,10.1469 0.757087,17.7189 2.27126,22.7161l-18.626 0 -1.81772 -6.81496c-1.36299,2.65039 -2.95276,4.61929 -4.77047,5.8689l-3.63425 0.946063 -6.36024 0 -57.2433 0c-10.7516,0 -18.1346,-1.9689 -22.148,-5.90551 -4.0122,-3.9378 -6.0189,-11.2063 -6.0189,-21.8079l0 -16.3547c0,-9.99449 2.04449,-17.113 6.13346,-21.3531 4.0878,-4.24016 11.4331,-6.36024 22.0335,-6.36024l61.1043 0c3.63543,0 6.28465,-0.832677 7.95118,-2.49803 1.36299,-1.81772 2.04449,-4.92165 2.04449,-9.31417l0 -1.36299c0,-4.39134 -0.832677,-7.34409 -2.49921,-8.85827 -1.36299,-1.66654 -3.86102,-2.49921 -7.49646,-2.49921l-64.285 0c-8.6315,0 -16.2791,0.681496 -22.9417,2.04449l1.58976 -12.4937 86.7732 0c10.7516,0 18.0969,1.85551 22.0346,5.56535 3.93661,3.71102 5.90551,11.0929 5.90551,22.148zm-19.0807 56.9776l0 -39.2598 -69.9638 0c-4.24016,0 -6.96614,0.794882 -8.17795,2.38583 -1.21181,1.58976 -1.81772,4.76929 -1.81772,9.46417l0 27.4098c0,4.69488 0.56811,7.87559 1.70433,9.46535 1.13504,1.58976 3.89882,2.38465 8.29134,2.38465l59.9681 0c3.63543,0 6.28465,-0.832677 7.95118,-2.49803 1.36299,-1.85551 2.04449,-4.95945 2.04449,-9.35197z"/>
  <path id="1234567" class="fil3" d="M999.465 70.4551l42.4783 0 -1.13622 16.128 -15.2197 -1.81654 -13.6287 -0.681496 -15.9012 0c-4.24016,0 -6.96614,0.794882 -8.17677,2.38465 -1.21181,1.58976 -1.81772,4.73268 -1.81772,9.42756l0 58.6051c0,8.78386 0.681496,16.3559 2.04449,22.7161l-23.3976 0c1.36299,-5.45197 2.04449,-13.024 2.04449,-22.7161l0 -61.3311c0,-8.78386 -0.681496,-16.3559 -2.04449,-22.7161l19.3087 0 0.908268 9.99567c1.51417,-3.48307 3.29409,-6.02008 5.33858,-7.60984 2.04449,-1.59094 5.11063,-2.38583 9.19961,-2.38583z"/>
  <path id="12345678" class="fil3" d="M1137.12 80.9043l-53.6079 0 0 74.0528c0,4.69488 0.566929,7.83661 1.70315,9.42756 1.13622,1.58976 3.82323,2.38465 8.06339,2.38465l26.3504 0c9.08622,0 16.7339,-0.681496 22.9429,-2.04449l-1.58976 12.4937 -48.8386 0c-10.7528,0 -18.0969,-1.9689 -22.0346,-5.90551 -3.93661,-3.9378 -5.90551,-11.2063 -5.90551,-21.8079l0 -68.6008 -16.8094 0 0 -10.4492 16.8094 0 0 -21.1252 19.3087 -3.63425 0 24.7594 53.6079 0 0 10.4492z"/>
  <path id="123456789" class="fil3" d="M1273.87 130.424l-101.766 0 0 24.5327c0,4.69488 0.56811,7.83661 1.70433,9.42756 1.13504,1.58976 3.89882,2.38465 8.29134,2.38465l68.8276 0c8.6315,0 16.2791,-0.681496 22.9429,-2.04449l-2.72598 12.4937 -90.1807 0c-10.7516,0 -18.1346,-1.9689 -22.148,-5.90551 -4.0122,-3.9378 -6.0189,-11.2063 -6.0189,-21.8079l0 -51.3366c0,-9.99449 2.04449,-17.113 6.17126,-21.3531 4.0878,-4.24016 11.4709,-6.36024 22.1091,-6.36024l64.9665 0c10.7906,0 18.1724,1.89331 22.1102,5.67874 1.40079,1.36299 2.91496,4.39252 4.58031,9.08622l1.13622 6.13346 0 6.81496 0 32.2559zm-101.766 -10.4492l82.4575 0 0 -27.2587c0,-4.54252 -0.491339,-7.64764 -1.47638,-9.31299 -0.983858,-1.66654 -3.82323,-2.49921 -8.51811,-2.49921l-62.4673 0c-4.24016,0 -6.96614,0.794882 -8.17795,2.38583 -1.21181,1.58976 -1.81772,4.7315 -1.81772,9.42638l0 27.2587z"/>
  <path id="12345678910" class="fil3" d="M1387.9 31.839l20.6717 0 0 122.663c0,10.1469 0.757087,17.7189 2.27126,22.7161l-18.8539 0 -1.36299 -9.31299c-1.21063,6.20906 -6.36024,9.31299 -15.4465,9.31299l-56.7886 0c-10.7516,0 -18.1346,-1.9689 -22.148,-5.90551 -4.0122,-3.9378 -6.0189,-11.2063 -6.0189,-21.8079l0 -51.3366c0,-9.99449 2.04449,-17.113 6.13346,-21.3531 4.0878,-4.24016 11.4331,-6.36024 22.0335,-6.36024l55.6535 0c4.84606,0 7.87441,0.265748 9.08622,0.794882 1.21063,0.530315 2.49803,1.70433 3.86102,3.52087l2.49921 7.04173 0.453543 -27.2587c0,-8.78268 -0.681496,-16.3547 -2.04449,-22.715zm2.04449 123.118l0 -62.2406c0,-4.54252 -0.604724,-7.64764 -1.81654,-9.31299 -1.21181,-1.66654 -3.97559,-2.49921 -8.21575,-2.49921l-60.3094 0c-4.27795,0 -7.04173,0.794882 -8.25354,2.38583 -1.21181,1.58976 -1.81772,4.7315 -1.81772,9.42638l0 62.2406c0,4.69488 0.56811,7.83661 1.70433,9.42756 1.13504,1.58976 3.93661,2.38465 8.36693,2.38465l60.3094 0c3.63425,0 6.28465,-0.832677 7.9878,-2.49921 1.36299,-1.81654 2.04449,-4.92165 2.04449,-9.31299z"/>
 </g>
</svg>
