<?xml version="1.0" encoding="UTF-8"?>
<!DOCTYPE svg PUBLIC "-//W3C//DTD SVG 1.1//EN" "http://www.w3.org/Graphics/SVG/1.1/DTD/svg11.dtd">
<!-- Creator: CorelDRAW X5 -->
<svg xmlns="http://www.w3.org/2000/svg" xml:space="preserve" width="1527px" height="1080px" style="shape-rendering:geometricPrecision; text-rendering:geometricPrecision; image-rendering:optimizeQuality; fill-rule:evenodd; clip-rule:evenodd"
viewBox="0 0 1527 1079.96"
 xmlns:xlink="http://www.w3.org/1999/xlink">
 <defs>
  <style type="text/css">
   <![CDATA[
    .str0 {stroke:#373435;stroke-width:0.906407}
    .fil6 {fill:none}
    .fil1 {fill:black}
    .fil4 {fill:#B3B3B3}
    .fil0 {fill:#CCCCCC}
    .fil5 {fill:black;fill-rule:nonzero}
    .fil3 {fill:#B3B3B3;fill-rule:nonzero}
    .fil2 {fill:white;fill-rule:nonzero}
   ]]>
  </style>
   <clipPath id="id0">
    <path d="M0.453204 0.453204l1526.09 0 0 1079.06 -1526.09 0 0 -1079.06z"/>
   </clipPath>
 </defs>
 <g id="Layer_x0020_1">
  <metadata id="CorelCorpID_0Corel-Layer"/>
  <polygon class="fil0" points="0.453204,0.453204 1526.55,0.453204 1526.55,1079.51 0.453204,1079.51 "/>
  <g style="clip-path:url(#id0)">
   <g id="_203650648">
    <rect id="_67918360" class="fil1 str0" x="0.453179" y="931.026" width="1526.09" height="148.483"/>
    <rect id="_67909600" class="fil1 str0" x="0.453204" y="308.337" width="1526.09" height="463.289"/>
    <path id="_67910584" class="fil2" d="M325.336 1032.61l0 -37.7068 3.83168 0 0 15.7188c0.748659,-1.02767 1.55847,-1.82001 2.42068,-2.39499 0.870952,-0.566248 1.7419,-0.992732 2.60412,-1.2887 0.870439,-0.287234 1.69771,-0.461425 2.49056,-0.531307 0.792335,-0.0698817 1.48036,-0.104309 2.0723,-0.104309 1.48036,0 2.90883,0.278499 4.2931,0.844747 1.37605,0.556998 2.58665,1.39301 3.63128,2.49879 1.04514,1.10629 1.88115,2.48183 2.51677,4.14512 0.62688,1.65455 0.94032,3.59685 0.94032,5.79967 0,2.04661 -0.252294,3.88409 -0.748659,5.51244 -0.505101,1.63708 -1.2625,3.03061 -2.2727,4.18879 -1.0102,1.15819 -2.27321,2.04661 -3.78851,2.66475 -1.51479,0.618145 -3.27416,0.931585 -5.28583,0.931585 -0.739924,0 -1.53226,-0.0518975 -2.35954,-0.165455 -0.818541,-0.113044 -1.62886,-0.29597 -2.4212,-0.565734 -0.792335,-0.261543 -1.54151,-0.609924 -2.24649,-1.04514 -0.705497,-0.435219 -1.31491,-0.975261 -1.84621,-1.61961l0 3.11744 -3.83168 0zm12.4004 -3.14365c1.55024,0 2.86515,-0.269764 3.96219,-0.801071 1.08882,-0.540042 1.97673,-1.26301 2.66475,-2.16839 0.688027,-0.914628 1.18439,-1.95926 1.4891,-3.15239 0.304705,-1.19313 0.461425,-2.43815 0.461425,-3.75357 0,-1.30617 -0.147985,-2.5512 -0.443954,-3.74432 -0.29597,-1.19313 -0.7836,-2.23776 -1.45416,-3.15239 -0.679291,-0.905379 -1.55898,-1.62835 -2.65602,-2.16839 -1.09704,-0.531307 -2.44689,-0.801071 -4.04954,-0.801071 -1.00147,0 -2.01989,0.182926 -3.04756,0.557512 -1.02767,0.374073 -1.96799,0.949056 -2.804,1.72392 -0.844747,0.775379 -1.53277,1.76811 -2.07282,2.96946 -0.531307,1.2106 -0.801071,2.65602 -0.801071,4.33678 0,1.5153 0.15672,2.89136 0.47016,4.13638 0.31344,1.2368 0.818541,2.30764 1.50657,3.19606 0.688027,0.897158 1.59341,1.58467 2.70843,2.08104 1.11451,0.496366 2.47309,0.740438 4.0665,0.740438z"/>
    <path id="_679105841" class="fil2" d="M359.064 1016.39l13.907 0c0,-1.14072 -0.113558,-2.14218 -0.330911,-2.99567 -0.217867,-0.862217 -0.583718,-1.57645 -1.07135,-2.15965 -0.496366,-0.574983 -1.15819,-1.0102 -1.97673,-1.29744 -0.827276,-0.287748 -1.83748,-0.435733 -3.02187,-0.435733 -1.15819,0 -2.20282,0.131028 -3.12618,0.392057 -0.931585,0.269764 -1.71519,0.679291 -2.36879,1.2368 -0.644351,0.565734 -1.14072,1.27997 -1.4891,2.15092 -0.347867,0.861703 -0.522058,1.89811 -0.522058,3.10871zm0.0256918 3.42215c0,1.62835 0.182926,3.04808 0.540042,4.24994 0.357116,1.19261 0.914628,2.18535 1.68076,2.97819 0.76613,0.792335 1.75013,1.37554 2.95199,1.75886 1.19313,0.383322 2.62981,0.574983 4.2931,0.574983 1.29795,0 2.38626,-0.0786169 3.26594,-0.226602 0.887909,-0.15672 1.62835,-0.322175 2.21155,-0.513836 0.583718,-0.182926 1.05388,-0.357116 1.40226,-0.522571 0.348381,-0.165455 0.644351,-0.261029 0.879688,-0.29597l0.487631 2.48183c-0.235337,0.147985 -0.661821,0.365851 -1.26301,0.635615 -0.600675,0.270278 -1.32364,0.548777 -2.15965,0.827276 -0.827276,0.278499 -1.72392,0.522571 -2.67349,0.731703 -0.957791,0.200396 -1.88938,0.304705 -2.81274,0.304705 -1.14072,0 -2.18535,-0.0873522 -3.15239,-0.269764 -0.957791,-0.17419 -1.85443,-0.461939 -2.69045,-0.853482 -0.827276,-0.392057 -1.62013,-0.905893 -2.36005,-1.55898 -0.740438,-0.644351 -1.45416,-1.42795 -2.15092,-2.34258 -0.392057,-0.513836 -0.731703,-1.11451 -1.0102,-1.80254 -0.278499,-0.688027 -0.522571,-1.41048 -0.714232,-2.15092 -0.200396,-0.748659 -0.339646,-1.49783 -0.435219,-2.24649 -0.0960874,-0.749173 -0.13925,-1.44594 -0.13925,-2.09902 0,-1.86368 0.199882,-3.61381 0.60941,-5.24216 0.409014,-1.61961 1.07083,-3.03934 1.9942,-4.24994 0.914115,-1.20135 2.11598,-2.15965 3.59634,-2.8559 1.48036,-0.696762 3.29163,-1.04514 5.43382,-1.04514 1.56771,0 2.90009,0.235337 3.99713,0.705497 1.09755,0.461425 2.01167,1.07957 2.74337,1.83748 0.731189,0.757395 1.30617,1.61961 1.7157,2.58614 0.417749,0.975261 0.731189,1.96799 0.949056,2.98693 0.209131,1.01894 0.339646,2.0204 0.391543,3.0044 0.0524113,0.975261 0.0786169,1.84621 0.0786169,2.61234l-17.6606 0z"/>
    <path id="_6791058412" class="fil2" d="M381.905 1019.52c0,-2.01167 0.304705,-3.84915 0.914115,-5.51244 0.618145,-1.67202 1.49783,-3.09997 2.63855,-4.28437 1.14945,-1.19313 2.56045,-2.12471 4.22373,-2.78653 1.67202,-0.661821 3.55266,-0.992732 5.66916,-0.992732 0.269764,0 0.653086,0.0174704 1.14072,0.0606327 0.496366,0.0436761 1.02716,0.122293 1.58467,0.217867 0.557512,0.104309 1.11451,0.235337 1.65455,0.383322 0.548777,0.15672 0.992732,0.330911 1.33238,0.540042l-1.27997 3.11744c-0.914628,-0.348381 -1.72443,-0.574983 -2.4212,-0.705497 -0.696248,-0.130514 -1.25376,-0.191661 -1.65455,-0.191661 -3.25669,0 -5.72979,0.801071 -7.42802,2.41246 -1.69823,1.60214 -2.5512,4.02282 -2.5512,7.25383 -0.0349409,1.5672 0.13925,2.99567 0.522058,4.28437 0.383322,1.2887 0.96704,2.39499 1.75938,3.31784 0.792335,0.914628 1.78507,1.61961 2.97819,2.11598 1.18439,0.496366 2.58614,0.722968 4.20626,0.688027 0.522058,0.0349409 1.0621,0 1.60214,-0.0868383 0.548777,-0.0960874 1.08831,-0.217867 1.63708,-0.374587 0.540042,-0.147985 1.07957,-0.322175 1.61088,-0.522571 0.522571,-0.191661 1.02767,-0.383322 1.49783,-0.574469l0.923364 3.01262c-0.339646,0.374587 -0.836012,0.688027 -1.49783,0.932099 -0.653086,0.252294 -1.34985,0.45269 -2.09029,0.600675 -0.739924,0.15672 -1.45416,0.261543 -2.14218,0.330911 -0.688027,0.0698817 -1.21882,0.104309 -1.59341,0.104309 -2.12471,0 -4.00587,-0.322175 -5.65168,-0.957791 -1.63708,-0.635615 -3.02187,-1.53277 -4.14512,-2.69096 -1.12325,-1.15819 -1.97673,-2.5512 -2.56045,-4.19701 -0.583204,-1.63708 -0.879174,-3.47456 -0.879174,-5.49496z"/>
    <path id="_67910584123" class="fil2" d="M411.67 1025.31c0,0.505101 0.0611465,1.0102 0.182926,1.49783 0.113044,0.496366 0.322175,0.94032 0.60941,1.34111 0.287234,0.400278 0.670556,0.722968 1.14945,0.957791 0.478895,0.235337 1.06261,0.357116 1.75938,0.357116 1.78507,0 3.25669,-0.278499 4.41488,-0.827276 1.15819,-0.557512 2.08104,-1.2887 2.76033,-2.20333 0.679291,-0.92285 1.14945,-1.97673 1.41973,-3.16986 0.261029,-1.18439 0.391543,-2.42942 0.391543,-3.71812l0 -0.0262056c-0.731189,0.0174704 -1.54973,0.0868383 -2.46436,0.200396 -0.905379,0.121779 -1.82874,0.29597 -2.76906,0.530793 -0.931585,0.226602 -1.85495,0.505101 -2.74337,0.82779 -0.896644,0.322175 -1.68898,0.687513 -2.38574,1.10578 -0.696762,0.417749 -1.26301,0.887909 -1.68949,1.41922 -0.426484,0.522571 -0.635615,1.08882 -0.635615,1.70696zm-3.82294 0.182926c0,-1.14072 0.278499,-2.15092 0.827276,-3.03934 0.557512,-0.879174 1.2887,-1.65455 2.21206,-2.31637 0.914115,-0.670556 1.95926,-1.23629 3.12618,-1.71519 1.16692,-0.470674 2.36005,-0.870952 3.57887,-1.19313 1.22807,-0.322175 2.42993,-0.592453 3.60507,-0.809806 1.16692,-0.209131 2.22954,-0.383322 3.16112,-0.522571l0 -2.19459c0,-0.522571 -0.165455,-1.03641 -0.487631,-1.52404 -0.322175,-0.496366 -0.7836,-0.931585 -1.40175,-1.30617 -0.609924,-0.365851 -1.34985,-0.670556 -2.2208,-0.888423 -0.862217,-0.217353 -1.84621,-0.330911 -2.93452,-0.330911 -0.679291,0 -1.37605,0.0960874 -2.09029,0.296484 -0.713719,0.191147 -1.38427,0.426484 -2.00242,0.687513 -0.618659,0.261543 -1.15819,0.522571 -1.62013,0.775379 -0.461425,0.252294 -0.76613,0.435219 -0.914115,0.540042l-1.20186 -2.78705c0.269764,-0.391543 0.688027,-0.76613 1.2368,-1.12325 0.556998,-0.357116 1.21008,-0.670556 1.96799,-0.931585 0.757395,-0.261543 1.58467,-0.478895 2.48183,-0.635615 0.905379,-0.165455 1.83748,-0.244072 2.81274,-0.244072 0.556998,0.0174704 1.19313,0.0868383 1.90685,0.200396 0.714232,0.121779 1.44594,0.304705 2.19459,0.540042 0.749173,0.234823 1.48036,0.530793 2.19459,0.879174 0.714232,0.348381 1.35858,0.757908 1.91558,1.22807 0.566248,0.461425 1.0102,0.992732 1.34985,1.57594 0.339646,0.592453 0.513836,1.2368 0.513836,1.95104l0 7.17521 0 12.8274 -3.46583 0 -0.487631 -3.64875c-0.557512,0.644351 -1.20186,1.2106 -1.92432,1.69823 -0.722968,0.487631 -1.50657,0.887909 -2.33384,1.21882 -0.836012,0.339646 -1.70696,0.583718 -2.62159,0.757908 -0.905379,0.165455 -1.82874,0.252294 -2.76906,0.252294 -1.05388,0 -1.9942,-0.208618 -2.82147,-0.62688 -0.827276,-0.417749 -1.5153,-0.966526 -2.08104,-1.65455 -0.557512,-0.688027 -0.983996,-1.48036 -1.27174,-2.36005 -0.287234,-0.887909 -0.435219,-1.80254 -0.435219,-2.75159z"/>
    <path id="_679105841234" class="fil2" d="M453.853 1032.61l-0.688027 -2.48183c-0.818541,0.600675 -1.57645,1.07135 -2.28195,1.42795 -0.704983,0.357116 -1.40175,0.636129 -2.0723,0.818541 -0.670556,0.191661 -1.34985,0.313954 -2.02914,0.383322 -0.679291,0.0698817 -1.38427,0.104309 -2.11598,0.104309 -3.06555,0 -5.32077,-0.809806 -6.77493,-2.43815 -1.45416,-1.61961 -2.18586,-3.99713 -2.18586,-7.13205l0 -16.9895 3.82294 0 0 17.2942c0,1.19313 0.209131,2.16839 0.635615,2.9263 0.426998,0.748659 0.966526,1.34985 1.62835,1.78507 0.653086,0.426484 1.36732,0.731703 2.14218,0.888423 0.775379,0.165455 1.5153,0.243558 2.22954,0.243558 0.870952,0 1.72443,-0.113044 2.55993,-0.348381 0.836012,-0.226088 1.58518,-0.583204 2.24701,-1.07083 0.661821,-0.478895 1.19313,-1.08882 1.59341,-1.82001 0.400792,-0.731703 0.601188,-1.60266 0.601188,-2.60412l0 -17.2942 3.82294 0 0 26.3074 -3.13491 0z"/>
    <path id="_6791058412345" class="fil2" d="M464.947 1027.4c0.374587,0.252807 0.757395,0.505101 1.15819,0.749173 0.400792,0.243558 0.827276,0.47016 1.27997,0.661821 0.453204,0.200396 0.932099,0.357116 1.45467,0.47016 0.513322,0.121779 1.08831,0.17419 1.72392,0.15672 0.574983,0 1.15819,-0.0524113 1.7419,-0.165455 0.591939,-0.113044 1.12325,-0.287234 1.59341,-0.540042 0.478895,-0.243558 0.862217,-0.565734 1.14945,-0.966526 0.287234,-0.400278 0.435733,-0.896644 0.435733,-1.4891 0,-0.818541 -0.131028,-1.5153 -0.392057,-2.10724 -0.269764,-0.583718 -0.62688,-1.10578 -1.08882,-1.55898 -0.461425,-0.443954 -0.992732,-0.862217 -1.59341,-1.23629 -0.600675,-0.374587 -1.24503,-0.757908 -1.92432,-1.16692 -0.714232,-0.461425 -1.42846,-0.949569 -2.14218,-1.47163 -0.714232,-0.513836 -1.35858,-1.11502 -1.9161,-1.79432 -0.565734,-0.678778 -1.01894,-1.45416 -1.36732,-2.32511 -0.348381,-0.861703 -0.522058,-1.86317 -0.522058,-2.97819 0,-0.92285 0.208618,-1.73266 0.62688,-2.42942 0.417749,-0.696762 0.975261,-1.27123 1.68949,-1.73266 0.713719,-0.461939 1.54973,-0.81032 2.51626,-1.04514 0.958305,-0.235337 1.9942,-0.357116 3.10049,-0.357116 0.252294,0 0.618145,0.0174704 1.10578,0.0524113 0.487631,0.034427 0.992732,0.104309 1.53277,0.199882 0.531307,0.104823 1.05336,0.244072 1.55847,0.409527 0.496366,0.17419 0.905893,0.383322 1.2106,0.644351l-1.45416 2.83021c-0.601188,-0.182926 -1.17566,-0.348381 -1.75064,-0.487631 -0.565734,-0.130514 -1.19261,-0.209131 -1.87191,-0.226602 -0.618659,0 -1.18439,0.0436761 -1.72443,0.13925 -0.540042,0.0960874 -1.00147,0.244072 -1.40175,0.444468 -0.400792,0.209131 -0.722968,0.47016 -0.958305,0.792335 -0.234823,0.322175 -0.357116,0.705497 -0.357116,1.14945 0,0.818541 0.148499,1.49783 0.435733,2.05534 0.287234,0.548263 0.670556,1.03589 1.15819,1.45416 0.487631,0.417749 1.03641,0.792335 1.66329,1.14945 0.618145,0.348381 1.2625,0.722968 1.92432,1.13198 0.714232,0.409527 1.41099,0.862217 2.09029,1.37605 0.679291,0.513836 1.2887,1.09704 1.82874,1.77633 0.530793,0.670556 0.966526,1.4372 1.29744,2.30764 0.330911,0.862217 0.513836,1.86368 0.548263,3.0044 0,1.10578 -0.243558,2.07282 -0.722454,2.90009 -0.487631,0.818541 -1.14072,1.50657 -1.95052,2.05483 -0.818541,0.540042 -1.77685,0.949569 -2.87389,1.21933 -1.09704,0.269764 -2.25523,0.409014 -3.4833,0.409014 -0.409527,0 -0.836012,-0.0256918 -1.29744,-0.0781031 -0.461425,-0.0524113 -0.966526,-0.147985 -1.5153,-0.304705 -0.557512,-0.15672 -1.16692,-0.383322 -1.83748,-0.688027 -0.670556,-0.304705 -1.42795,-0.714232 -2.26396,-1.22807l1.58467 -3.16112z"/>
    <path id="_67910584123456" class="fil2" d="M488.233 1016.39l13.907 0c0,-1.14072 -0.113558,-2.14218 -0.330911,-2.99567 -0.217867,-0.862217 -0.583718,-1.57645 -1.07135,-2.15965 -0.496366,-0.574983 -1.15819,-1.0102 -1.97673,-1.29744 -0.827276,-0.287748 -1.83748,-0.435733 -3.02187,-0.435733 -1.15819,0 -2.20282,0.131028 -3.12618,0.392057 -0.931585,0.269764 -1.71519,0.679291 -2.36879,1.2368 -0.644351,0.565734 -1.14072,1.27997 -1.4891,2.15092 -0.347867,0.861703 -0.522058,1.89811 -0.522058,3.10871zm0.0256918 3.42215c0,1.62835 0.182926,3.04808 0.540042,4.24994 0.357116,1.19261 0.914628,2.18535 1.68076,2.97819 0.76613,0.792335 1.75013,1.37554 2.95199,1.75886 1.19313,0.383322 2.62981,0.574983 4.2931,0.574983 1.29795,0 2.38626,-0.0786169 3.26594,-0.226602 0.887909,-0.15672 1.62835,-0.322175 2.21155,-0.513836 0.583718,-0.182926 1.05388,-0.357116 1.40226,-0.522571 0.348381,-0.165455 0.644351,-0.261029 0.879688,-0.29597l0.487631 2.48183c-0.235337,0.147985 -0.661821,0.365851 -1.26301,0.635615 -0.600675,0.270278 -1.32364,0.548777 -2.15965,0.827276 -0.827276,0.278499 -1.72392,0.522571 -2.67349,0.731703 -0.957791,0.200396 -1.88938,0.304705 -2.81274,0.304705 -1.14072,0 -2.18535,-0.0873522 -3.15239,-0.269764 -0.957791,-0.17419 -1.85443,-0.461939 -2.69045,-0.853482 -0.827276,-0.392057 -1.62013,-0.905893 -2.36005,-1.55898 -0.740438,-0.644351 -1.45416,-1.42795 -2.15092,-2.34258 -0.392057,-0.513836 -0.731703,-1.11451 -1.0102,-1.80254 -0.278499,-0.688027 -0.522571,-1.41048 -0.714232,-2.15092 -0.200396,-0.748659 -0.339646,-1.49783 -0.435219,-2.24649 -0.0960874,-0.749173 -0.13925,-1.44594 -0.13925,-2.09902 0,-1.86368 0.199882,-3.61381 0.60941,-5.24216 0.409014,-1.61961 1.07083,-3.03934 1.9942,-4.24994 0.914115,-1.20135 2.11598,-2.15965 3.59634,-2.8559 1.48036,-0.696762 3.29163,-1.04514 5.43382,-1.04514 1.56771,0 2.90009,0.235337 3.99713,0.705497 1.09755,0.461425 2.01167,1.07957 2.74337,1.83748 0.731189,0.757395 1.30617,1.61961 1.7157,2.58614 0.417749,0.975261 0.731189,1.96799 0.949056,2.98693 0.209131,1.01894 0.339646,2.0204 0.391543,3.0044 0.0524113,0.975261 0.0786169,1.84621 0.0786169,2.61234l-17.6606 0z"/>
    <path id="_679105841234567" class="fil2" d="M539.541 1025.31c0,0.505101 0.0611465,1.0102 0.182926,1.49783 0.113044,0.496366 0.322175,0.94032 0.60941,1.34111 0.287234,0.400278 0.670556,0.722968 1.14945,0.957791 0.478895,0.235337 1.06261,0.357116 1.75938,0.357116 1.78507,0 3.25669,-0.278499 4.41488,-0.827276 1.15819,-0.557512 2.08104,-1.2887 2.76033,-2.20333 0.679291,-0.92285 1.14945,-1.97673 1.41973,-3.16986 0.261029,-1.18439 0.391543,-2.42942 0.391543,-3.71812l0 -0.0262056c-0.731189,0.0174704 -1.54973,0.0868383 -2.46436,0.200396 -0.905379,0.121779 -1.82874,0.29597 -2.76906,0.530793 -0.931585,0.226602 -1.85495,0.505101 -2.74337,0.82779 -0.896644,0.322175 -1.68898,0.687513 -2.38574,1.10578 -0.696762,0.417749 -1.26301,0.887909 -1.68949,1.41922 -0.426484,0.522571 -0.635615,1.08882 -0.635615,1.70696zm-3.82294 0.182926c0,-1.14072 0.278499,-2.15092 0.827276,-3.03934 0.557512,-0.879174 1.2887,-1.65455 2.21206,-2.31637 0.914115,-0.670556 1.95926,-1.23629 3.12618,-1.71519 1.16692,-0.470674 2.36005,-0.870952 3.57887,-1.19313 1.22807,-0.322175 2.42993,-0.592453 3.60507,-0.809806 1.16692,-0.209131 2.22954,-0.383322 3.16112,-0.522571l0 -2.19459c0,-0.522571 -0.165455,-1.03641 -0.487631,-1.52404 -0.322175,-0.496366 -0.7836,-0.931585 -1.40175,-1.30617 -0.609924,-0.365851 -1.34985,-0.670556 -2.2208,-0.888423 -0.862217,-0.217353 -1.84621,-0.330911 -2.93452,-0.330911 -0.679291,0 -1.37605,0.0960874 -2.09029,0.296484 -0.713719,0.191147 -1.38427,0.426484 -2.00242,0.687513 -0.618659,0.261543 -1.15819,0.522571 -1.62013,0.775379 -0.461425,0.252294 -0.76613,0.435219 -0.914115,0.540042l-1.20186 -2.78705c0.269764,-0.391543 0.688027,-0.76613 1.2368,-1.12325 0.556998,-0.357116 1.21008,-0.670556 1.96799,-0.931585 0.757395,-0.261543 1.58467,-0.478895 2.48183,-0.635615 0.905379,-0.165455 1.83748,-0.244072 2.81274,-0.244072 0.556998,0.0174704 1.19313,0.0868383 1.90685,0.200396 0.714232,0.121779 1.44594,0.304705 2.19459,0.540042 0.749173,0.234823 1.48036,0.530793 2.19459,0.879174 0.714232,0.348381 1.35858,0.757908 1.91558,1.22807 0.566248,0.461425 1.0102,0.992732 1.34985,1.57594 0.339646,0.592453 0.513836,1.2368 0.513836,1.95104l0 7.17521 0 12.8274 -3.46583 0 -0.487631 -3.64875c-0.557512,0.644351 -1.20186,1.2106 -1.92432,1.69823 -0.722968,0.487631 -1.50657,0.887909 -2.33384,1.21882 -0.836012,0.339646 -1.70696,0.583718 -2.62159,0.757908 -0.905379,0.165455 -1.82874,0.252294 -2.76906,0.252294 -1.05388,0 -1.9942,-0.208618 -2.82147,-0.62688 -0.827276,-0.417749 -1.5153,-0.966526 -2.08104,-1.65455 -0.557512,-0.688027 -0.983996,-1.48036 -1.27174,-2.36005 -0.287234,-0.887909 -0.435219,-1.80254 -0.435219,-2.75159z"/>
    <polygon id="_6791058412345678" class="fil2" points="563.585,994.906 567.408,994.906 567.408,1032.61 563.585,1032.61 "/>
    <polygon id="_67910584123456789" class="fil2" points="575.062,994.906 578.885,994.906 578.885,1032.61 575.062,1032.61 "/>
    <polygon id="_6791058412345678910" class="fil2" points="610.906,994.906 614.728,994.906 614.728,1032.61 610.906,1032.61 "/>
    <path id="_679105841234567891011" class="fil2" d="M640.523 1032.61l-0.688027 -2.48183c-0.818541,0.600675 -1.57645,1.07135 -2.28195,1.42795 -0.704983,0.357116 -1.40175,0.636129 -2.0723,0.818541 -0.670556,0.191661 -1.34985,0.313954 -2.02914,0.383322 -0.679291,0.0698817 -1.38427,0.104309 -2.11598,0.104309 -3.06555,0 -5.32077,-0.809806 -6.77493,-2.43815 -1.45416,-1.61961 -2.18586,-3.99713 -2.18586,-7.13205l0 -16.9895 3.82294 0 0 17.2942c0,1.19313 0.209131,2.16839 0.635615,2.9263 0.426998,0.748659 0.966526,1.34985 1.62835,1.78507 0.653086,0.426484 1.36732,0.731703 2.14218,0.888423 0.775379,0.165455 1.5153,0.243558 2.22954,0.243558 0.870952,0 1.72443,-0.113044 2.55993,-0.348381 0.836012,-0.226088 1.58518,-0.583204 2.24701,-1.07083 0.661821,-0.478895 1.19313,-1.08882 1.59341,-1.82001 0.400792,-0.731703 0.601188,-1.60266 0.601188,-2.60412l0 -17.2942 3.82294 0 0 26.3074 -3.13491 0z"/>
    <path id="_67910584123456789101112" class="fil2" d="M650.032 1019.52c0,-2.01167 0.304705,-3.84915 0.914115,-5.51244 0.618145,-1.67202 1.49783,-3.09997 2.63855,-4.28437 1.14945,-1.19313 2.56045,-2.12471 4.22373,-2.78653 1.67202,-0.661821 3.55266,-0.992732 5.66916,-0.992732 0.269764,0 0.653086,0.0174704 1.14072,0.0606327 0.496366,0.0436761 1.02716,0.122293 1.58467,0.217867 0.557512,0.104309 1.11451,0.235337 1.65455,0.383322 0.548777,0.15672 0.992732,0.330911 1.33238,0.540042l-1.27997 3.11744c-0.914628,-0.348381 -1.72443,-0.574983 -2.4212,-0.705497 -0.696248,-0.130514 -1.25376,-0.191661 -1.65455,-0.191661 -3.25669,0 -5.72979,0.801071 -7.42802,2.41246 -1.69823,1.60214 -2.5512,4.02282 -2.5512,7.25383 -0.0349409,1.5672 0.13925,2.99567 0.522058,4.28437 0.383322,1.2887 0.96704,2.39499 1.75938,3.31784 0.792335,0.914628 1.78507,1.61961 2.97819,2.11598 1.18439,0.496366 2.58614,0.722968 4.20626,0.688027 0.522058,0.0349409 1.0621,0 1.60214,-0.0868383 0.548777,-0.0960874 1.08831,-0.217867 1.63708,-0.374587 0.540042,-0.147985 1.07957,-0.322175 1.61088,-0.522571 0.522571,-0.191661 1.02767,-0.383322 1.49783,-0.574469l0.923364 3.01262c-0.339646,0.374587 -0.836012,0.688027 -1.49783,0.932099 -0.653086,0.252294 -1.34985,0.45269 -2.09029,0.600675 -0.739924,0.15672 -1.45416,0.261543 -2.14218,0.330911 -0.688027,0.0698817 -1.21882,0.104309 -1.59341,0.104309 -2.12471,0 -4.00587,-0.322175 -5.65168,-0.957791 -1.63708,-0.635615 -3.02187,-1.53277 -4.14512,-2.69096 -1.12325,-1.15819 -1.97673,-2.5512 -2.56045,-4.19701 -0.583204,-1.63708 -0.879174,-3.47456 -0.879174,-5.49496z"/>
    <polygon id="_6791058412345678910111213" class="fil2" points="678.551,1032.61 678.551,994.906 682.374,994.906 682.374,1017.2 693.216,1006.31 698.014,1006.31 686.179,1018.19 698.528,1032.61 694.034,1032.61 683.698,1020.52 682.374,1021.92 682.374,1032.61 "/>
    <path id="_679105841234567891011121314" class="fil2" d="M726.595 998.145c0,-0.304705 0.0518975,-0.601188 0.165455,-0.879688 0.113044,-0.287234 0.261029,-0.522571 0.461425,-0.731189 0.191661,-0.200396 0.426484,-0.365851 0.696762,-0.49688 0.278499,-0.130514 0.574469,-0.191147 0.896644,-0.191147 0.322175,0 0.62688,0.0606327 0.914628,0.191147 0.29597,0.131028 0.539528,0.296484 0.757395,0.49688 0.209131,0.208618 0.374587,0.443954 0.496366,0.731189 0.121779,0.278499 0.17419,0.574983 0.17419,0.879688 0,0.661821 -0.217867,1.22755 -0.670556,1.68949 -0.45269,0.47016 -1.0102,0.704983 -1.67202,0.704983 -0.644351,0 -1.17566,-0.234823 -1.59341,-0.704983 -0.418263,-0.461939 -0.62688,-1.02767 -0.62688,-1.68949zm4.15334 8.15972l0 26.3074 -3.82243 0 0 -26.3074 3.82243 0z"/>
    <path id="_67910584123456789101112131415" class="fil2" d="M738.36 1027.4c0.374587,0.252807 0.757395,0.505101 1.15819,0.749173 0.400792,0.243558 0.827276,0.47016 1.27997,0.661821 0.453204,0.200396 0.932099,0.357116 1.45467,0.47016 0.513322,0.121779 1.08831,0.17419 1.72392,0.15672 0.574983,0 1.15819,-0.0524113 1.7419,-0.165455 0.591939,-0.113044 1.12325,-0.287234 1.59341,-0.540042 0.478895,-0.243558 0.862217,-0.565734 1.14945,-0.966526 0.287234,-0.400278 0.435733,-0.896644 0.435733,-1.4891 0,-0.818541 -0.131028,-1.5153 -0.392057,-2.10724 -0.269764,-0.583718 -0.62688,-1.10578 -1.08882,-1.55898 -0.461425,-0.443954 -0.992732,-0.862217 -1.59341,-1.23629 -0.600675,-0.374587 -1.24503,-0.757908 -1.92432,-1.16692 -0.714232,-0.461425 -1.42846,-0.949569 -2.14218,-1.47163 -0.714232,-0.513836 -1.35858,-1.11502 -1.9161,-1.79432 -0.565734,-0.678778 -1.01894,-1.45416 -1.36732,-2.32511 -0.348381,-0.861703 -0.522058,-1.86317 -0.522058,-2.97819 0,-0.92285 0.208618,-1.73266 0.62688,-2.42942 0.417749,-0.696762 0.975261,-1.27123 1.68949,-1.73266 0.713719,-0.461939 1.54973,-0.81032 2.51626,-1.04514 0.958305,-0.235337 1.9942,-0.357116 3.10049,-0.357116 0.252294,0 0.618145,0.0174704 1.10578,0.0524113 0.487631,0.034427 0.992732,0.104309 1.53277,0.199882 0.531307,0.104823 1.05336,0.244072 1.55847,0.409527 0.496366,0.17419 0.905893,0.383322 1.2106,0.644351l-1.45416 2.83021c-0.601188,-0.182926 -1.17566,-0.348381 -1.75064,-0.487631 -0.565734,-0.130514 -1.19261,-0.209131 -1.87191,-0.226602 -0.618659,0 -1.18439,0.0436761 -1.72443,0.13925 -0.540042,0.0960874 -1.00147,0.244072 -1.40175,0.444468 -0.400792,0.209131 -0.722968,0.47016 -0.958305,0.792335 -0.234823,0.322175 -0.357116,0.705497 -0.357116,1.14945 0,0.818541 0.148499,1.49783 0.435733,2.05534 0.287234,0.548263 0.670556,1.03589 1.15819,1.45416 0.487631,0.417749 1.03641,0.792335 1.66329,1.14945 0.618145,0.348381 1.2625,0.722968 1.92432,1.13198 0.714232,0.409527 1.41099,0.862217 2.09029,1.37605 0.679291,0.513836 1.2887,1.09704 1.82874,1.77633 0.530793,0.670556 0.966526,1.4372 1.29744,2.30764 0.330911,0.862217 0.513836,1.86368 0.548263,3.0044 0,1.10578 -0.243558,2.07282 -0.722454,2.90009 -0.487631,0.818541 -1.14072,1.50657 -1.95052,2.05483 -0.818541,0.540042 -1.77685,0.949569 -2.87389,1.21933 -1.09704,0.269764 -2.25523,0.409014 -3.4833,0.409014 -0.409527,0 -0.836012,-0.0256918 -1.29744,-0.0781031 -0.461425,-0.0524113 -0.966526,-0.147985 -1.5153,-0.304705 -0.557512,-0.15672 -1.16692,-0.383322 -1.83748,-0.688027 -0.670556,-0.304705 -1.42795,-0.714232 -2.26396,-1.22807l1.58467 -3.16112z"/>
    <path id="_6791058412345678910111213141516" class="fil2" d="M786.011 1016.39l13.907 0c0,-1.14072 -0.113558,-2.14218 -0.330911,-2.99567 -0.217867,-0.862217 -0.583718,-1.57645 -1.07135,-2.15965 -0.496366,-0.574983 -1.15819,-1.0102 -1.97673,-1.29744 -0.827276,-0.287748 -1.83748,-0.435733 -3.02187,-0.435733 -1.15819,0 -2.20282,0.131028 -3.12618,0.392057 -0.931585,0.269764 -1.71519,0.679291 -2.36879,1.2368 -0.644351,0.565734 -1.14072,1.27997 -1.4891,2.15092 -0.347867,0.861703 -0.522058,1.89811 -0.522058,3.10871zm0.0256918 3.42215c0,1.62835 0.182926,3.04808 0.540042,4.24994 0.357116,1.19261 0.914628,2.18535 1.68076,2.97819 0.76613,0.792335 1.75013,1.37554 2.95199,1.75886 1.19313,0.383322 2.62981,0.574983 4.2931,0.574983 1.29795,0 2.38626,-0.0786169 3.26594,-0.226602 0.887909,-0.15672 1.62835,-0.322175 2.21155,-0.513836 0.583718,-0.182926 1.05388,-0.357116 1.40226,-0.522571 0.348381,-0.165455 0.644351,-0.261029 0.879688,-0.29597l0.487631 2.48183c-0.235337,0.147985 -0.661821,0.365851 -1.26301,0.635615 -0.600675,0.270278 -1.32364,0.548777 -2.15965,0.827276 -0.827276,0.278499 -1.72392,0.522571 -2.67349,0.731703 -0.957791,0.200396 -1.88938,0.304705 -2.81274,0.304705 -1.14072,0 -2.18535,-0.0873522 -3.15239,-0.269764 -0.957791,-0.17419 -1.85443,-0.461939 -2.69045,-0.853482 -0.827276,-0.392057 -1.62013,-0.905893 -2.36005,-1.55898 -0.740438,-0.644351 -1.45416,-1.42795 -2.15092,-2.34258 -0.392057,-0.513836 -0.731703,-1.11451 -1.0102,-1.80254 -0.278499,-0.688027 -0.522571,-1.41048 -0.714232,-2.15092 -0.200396,-0.748659 -0.339646,-1.49783 -0.435219,-2.24649 -0.0960874,-0.749173 -0.13925,-1.44594 -0.13925,-2.09902 0,-1.86368 0.199882,-3.61381 0.60941,-5.24216 0.409014,-1.61961 1.07083,-3.03934 1.9942,-4.24994 0.914115,-1.20135 2.11598,-2.15965 3.59634,-2.8559 1.48036,-0.696762 3.29163,-1.04514 5.43382,-1.04514 1.56771,0 2.90009,0.235337 3.99713,0.705497 1.09755,0.461425 2.01167,1.07957 2.74337,1.83748 0.731189,0.757395 1.30617,1.61961 1.7157,2.58614 0.417749,0.975261 0.731189,1.96799 0.949056,2.98693 0.209131,1.01894 0.339646,2.0204 0.391543,3.0044 0.0524113,0.975261 0.0786169,1.84621 0.0786169,2.61234l-17.6606 0z"/>
    <path id="_679105841234567891011121314151617" class="fil2" d="M812.954 1025.31c0,0.505101 0.0611465,1.0102 0.182926,1.49783 0.113044,0.496366 0.322175,0.94032 0.60941,1.34111 0.287234,0.400278 0.670556,0.722968 1.14945,0.957791 0.478895,0.235337 1.06261,0.357116 1.75938,0.357116 1.78507,0 3.25669,-0.278499 4.41488,-0.827276 1.15819,-0.557512 2.08104,-1.2887 2.76033,-2.20333 0.679291,-0.92285 1.14945,-1.97673 1.41973,-3.16986 0.261029,-1.18439 0.391543,-2.42942 0.391543,-3.71812l0 -0.0262056c-0.731189,0.0174704 -1.54973,0.0868383 -2.46436,0.200396 -0.905379,0.121779 -1.82874,0.29597 -2.76906,0.530793 -0.931585,0.226602 -1.85495,0.505101 -2.74337,0.82779 -0.896644,0.322175 -1.68898,0.687513 -2.38574,1.10578 -0.696762,0.417749 -1.26301,0.887909 -1.68949,1.41922 -0.426484,0.522571 -0.635615,1.08882 -0.635615,1.70696zm-3.82294 0.182926c0,-1.14072 0.278499,-2.15092 0.827276,-3.03934 0.557512,-0.879174 1.2887,-1.65455 2.21206,-2.31637 0.914115,-0.670556 1.95926,-1.23629 3.12618,-1.71519 1.16692,-0.470674 2.36005,-0.870952 3.57887,-1.19313 1.22807,-0.322175 2.42993,-0.592453 3.60507,-0.809806 1.16692,-0.209131 2.22954,-0.383322 3.16112,-0.522571l0 -2.19459c0,-0.522571 -0.165455,-1.03641 -0.487631,-1.52404 -0.322175,-0.496366 -0.7836,-0.931585 -1.40175,-1.30617 -0.609924,-0.365851 -1.34985,-0.670556 -2.2208,-0.888423 -0.862217,-0.217353 -1.84621,-0.330911 -2.93452,-0.330911 -0.679291,0 -1.37605,0.0960874 -2.09029,0.296484 -0.713719,0.191147 -1.38427,0.426484 -2.00242,0.687513 -0.618659,0.261543 -1.15819,0.522571 -1.62013,0.775379 -0.461425,0.252294 -0.76613,0.435219 -0.914115,0.540042l-1.20186 -2.78705c0.269764,-0.391543 0.688027,-0.76613 1.2368,-1.12325 0.556998,-0.357116 1.21008,-0.670556 1.96799,-0.931585 0.757395,-0.261543 1.58467,-0.478895 2.48183,-0.635615 0.905379,-0.165455 1.83748,-0.244072 2.81274,-0.244072 0.556998,0.0174704 1.19313,0.0868383 1.90685,0.200396 0.714232,0.121779 1.44594,0.304705 2.19459,0.540042 0.749173,0.234823 1.48036,0.530793 2.19459,0.879174 0.714232,0.348381 1.35858,0.757908 1.91558,1.22807 0.566248,0.461425 1.0102,0.992732 1.34985,1.57594 0.339646,0.592453 0.513836,1.2368 0.513836,1.95104l0 7.17521 0 12.8274 -3.46583 0 -0.487631 -3.64875c-0.557512,0.644351 -1.20186,1.2106 -1.92432,1.69823 -0.722968,0.487631 -1.50657,0.887909 -2.33384,1.21882 -0.836012,0.339646 -1.70696,0.583718 -2.62159,0.757908 -0.905379,0.165455 -1.82874,0.252294 -2.76906,0.252294 -1.05388,0 -1.9942,-0.208618 -2.82147,-0.62688 -0.827276,-0.417749 -1.5153,-0.966526 -2.08104,-1.65455 -0.557512,-0.688027 -0.983996,-1.48036 -1.27174,-2.36005 -0.287234,-0.887909 -0.435219,-1.80254 -0.435219,-2.75159z"/>
    <path id="_67910584123456789101112131415161718" class="fil2" d="M836.998 1006.31l3.82294 0 0 3.32658c1.15819,-1.22807 2.22029,-2.16839 3.2048,-2.82147 0.975261,-0.6536 1.90685,-0.98451 2.78653,-0.98451 0.330911,0 0.688027,0.0349409 1.08831,0.104823 0.400792,0.0693679 0.774865,0.182926 1.13198,0.357116 0.357116,0.165455 0.661821,0.400278 0.905893,0.688027 0.252294,0.287234 0.374587,0.644351 0.374587,1.07083 0,0.322175 -0.15672,0.644351 -0.470674,0.966526 -0.31344,0.330911 -0.670042,0.548777 -1.0621,0.670556 -0.182926,0.0524113 -0.426998,0.0873522 -0.722968,0.121779 -0.304705,0.0349409 -0.60941,0.0611465 -0.931585,0.0786169 -0.322175,0.0174704 -0.635615,0.0349409 -0.923364,0.0436761 -0.287234,0.00873522 -0.513322,0.00873522 -0.687513,0.00873522 -0.679291,0 -1.26301,0.17419 -1.75064,0.522571 -0.478895,0.347867 -0.896644,0.801071 -1.24503,1.3668 -0.348381,0.557512 -0.636129,1.17566 -0.853482,1.84621 -0.226602,0.670556 -0.400792,1.33238 -0.522571,1.97673 -0.130514,0.644351 -0.217867,1.24554 -0.261543,1.78558 -0.0431622,0.548263 -0.0606327,0.957791 -0.0606327,1.22755l0 13.9507 -3.82294 0 0 -26.3074z"/>
    <path id="_6791058412345678910111213141516171819" class="fil2" d="M855.407 1006.31l3.82294 0 0 3.09124c0.374587,-0.339646 0.76613,-0.696762 1.18439,-1.06261 0.417749,-0.365338 0.957791,-0.696248 1.61961,-0.992732 0.670556,-0.29597 1.49783,-0.548263 2.49056,-0.739924 1.00147,-0.200396 2.25523,-0.29597 3.77053,-0.29597 1.34111,0 2.57792,0.217353 3.7099,0.653086 1.13198,0.435219 2.10724,1.04463 2.92578,1.84621 0.818541,0.801071 1.45416,1.75886 1.89862,2.88211 0.45269,1.12325 0.679291,2.38626 0.679291,3.77927l0 17.1467 -3.82294 0 0 -16.9638c0,-0.261029 -0.00873522,-0.583204 -0.0349409,-0.975261 -0.0262056,-0.391543 -0.104309,-0.801071 -0.235337,-1.24503 -0.121779,-0.444468 -0.339646,-0.879688 -0.635615,-1.31491 -0.29597,-0.435733 -0.713719,-0.827276 -1.25376,-1.18439 -0.531307,-0.357116 -1.21933,-0.653086 -2.03787,-0.870952 -0.827276,-0.217867 -1.84621,-0.330911 -3.05681,-0.330911 -0.983996,0 -1.91558,0.209131 -2.78653,0.635615 -0.862217,0.426998 -1.62835,0.949056 -2.28143,1.55898 -0.653086,0.60941 -1.17566,1.2625 -1.55898,1.96799 -0.382808,0.696762 -0.574469,1.32364 -0.574469,1.88115l0 16.8415 -3.82294 0 0 -26.3074z"/>
    <path id="_679105841234567891011121314151617181920" class="fil2" d="M886.434 1016.39l13.907 0c0,-1.14072 -0.113558,-2.14218 -0.330911,-2.99567 -0.217867,-0.862217 -0.583718,-1.57645 -1.07135,-2.15965 -0.496366,-0.574983 -1.15819,-1.0102 -1.97673,-1.29744 -0.827276,-0.287748 -1.83748,-0.435733 -3.02187,-0.435733 -1.15819,0 -2.20282,0.131028 -3.12618,0.392057 -0.931585,0.269764 -1.71519,0.679291 -2.36879,1.2368 -0.644351,0.565734 -1.14072,1.27997 -1.4891,2.15092 -0.347867,0.861703 -0.522058,1.89811 -0.522058,3.10871zm0.0256918 3.42215c0,1.62835 0.182926,3.04808 0.540042,4.24994 0.357116,1.19261 0.914628,2.18535 1.68076,2.97819 0.76613,0.792335 1.75013,1.37554 2.95199,1.75886 1.19313,0.383322 2.62981,0.574983 4.2931,0.574983 1.29795,0 2.38626,-0.0786169 3.26594,-0.226602 0.887909,-0.15672 1.62835,-0.322175 2.21155,-0.513836 0.583718,-0.182926 1.05388,-0.357116 1.40226,-0.522571 0.348381,-0.165455 0.644351,-0.261029 0.879688,-0.29597l0.487631 2.48183c-0.235337,0.147985 -0.661821,0.365851 -1.26301,0.635615 -0.600675,0.270278 -1.32364,0.548777 -2.15965,0.827276 -0.827276,0.278499 -1.72392,0.522571 -2.67349,0.731703 -0.957791,0.200396 -1.88938,0.304705 -2.81274,0.304705 -1.14072,0 -2.18535,-0.0873522 -3.15239,-0.269764 -0.957791,-0.17419 -1.85443,-0.461939 -2.69045,-0.853482 -0.827276,-0.392057 -1.62013,-0.905893 -2.36005,-1.55898 -0.740438,-0.644351 -1.45416,-1.42795 -2.15092,-2.34258 -0.392057,-0.513836 -0.731703,-1.11451 -1.0102,-1.80254 -0.278499,-0.688027 -0.522571,-1.41048 -0.714232,-2.15092 -0.200396,-0.748659 -0.339646,-1.49783 -0.435219,-2.24649 -0.0960874,-0.749173 -0.13925,-1.44594 -0.13925,-2.09902 0,-1.86368 0.199882,-3.61381 0.60941,-5.24216 0.409014,-1.61961 1.07083,-3.03934 1.9942,-4.24994 0.914115,-1.20135 2.11598,-2.15965 3.59634,-2.8559 1.48036,-0.696762 3.29163,-1.04514 5.43382,-1.04514 1.56771,0 2.90009,0.235337 3.99713,0.705497 1.09755,0.461425 2.01167,1.07957 2.74337,1.83748 0.731189,0.757395 1.30617,1.61961 1.7157,2.58614 0.417749,0.975261 0.731189,1.96799 0.949056,2.98693 0.209131,1.01894 0.339646,2.0204 0.391543,3.0044 0.0524113,0.975261 0.0786169,1.84621 0.0786169,2.61234l-17.6606 0z"/>
    <path id="_67910584123456789101112131415161718192021" class="fil2" d="M930.829 1032.61l-0.583718 -3.11744c-0.531307,0.644351 -1.14072,1.18439 -1.84621,1.61961 -0.704983,0.435219 -1.45416,0.7836 -2.24649,1.03641 -0.792335,0.252294 -1.60214,0.435219 -2.4212,0.548263 -0.827276,0.113558 -1.61961,0.165455 -2.35954,0.165455 -2.02914,0 -3.788,-0.31344 -5.29457,-0.931585 -1.50657,-0.618145 -2.76958,-1.50657 -3.77978,-2.65602 -1.0102,-1.14072 -1.7676,-2.53424 -2.2727,-4.17132 -0.496366,-1.62835 -0.748659,-3.46583 -0.748659,-5.51244 0,-1.57594 0.165455,-3.00389 0.496366,-4.28437 0.330911,-1.27123 0.774865,-2.40321 1.34111,-3.38721 0.556998,-0.992732 1.21882,-1.83748 1.95926,-2.54298 0.748659,-0.705497 1.54973,-1.2887 2.38574,-1.75013 0.844747,-0.453204 1.7157,-0.792849 2.60412,-1.00147 0.896644,-0.217867 1.75886,-0.322175 2.59487,-0.322175 0.574983,0 1.2625,0.034427 2.06408,0.104309 0.801071,0.0698817 1.62835,0.244072 2.49879,0.531307 0.862217,0.29597 1.73317,0.722454 2.60412,1.2887 0.862217,0.574983 1.67202,1.36732 2.42068,2.39499l0 -15.7188 3.82294 0 0 37.7068 -3.23922 0zm-17.7299 -13.0191c0,1.31542 0.15672,2.56045 0.461425,3.75357 0.304705,1.19313 0.801071,2.23776 1.4891,3.13491 0.688027,0.905379 1.57594,1.61961 2.65602,2.15965 1.07957,0.531307 2.39448,0.801071 3.96219,0.801071 1.7676,0 3.23922,-0.278499 4.39741,-0.827276 1.16692,-0.557512 2.09029,-1.29744 2.76958,-2.2208 0.679291,-0.92285 1.15819,-2.00242 1.42795,-3.23049 0.269764,-1.21933 0.409527,-2.50803 0.409527,-3.84915 0,-1.18439 -0.209131,-2.36005 -0.627394,-3.50077 -0.417749,-1.14945 -1.0102,-2.17712 -1.78507,-3.07377 -0.774865,-0.905893 -1.71519,-1.62835 -2.81274,-2.18586 -1.10578,-0.548777 -2.36005,-0.827276 -3.75306,-0.827276 -1.60266,0 -2.94377,0.269764 -4.04081,0.801071 -1.09704,0.540042 -1.98546,1.26301 -2.65602,2.16839 -0.670556,0.914628 -1.15819,1.95926 -1.45416,3.15239 -0.29597,1.19313 -0.443954,2.43815 -0.443954,3.74432z"/>
    <path id="_6791058412345678910111213141516171819202122" class="fil2" d="M965.322 998.145c0,-0.304705 0.0518975,-0.601188 0.165455,-0.879688 0.113044,-0.287234 0.261029,-0.522571 0.461425,-0.731189 0.191661,-0.200396 0.426484,-0.365851 0.696762,-0.49688 0.278499,-0.130514 0.574469,-0.191147 0.896644,-0.191147 0.322175,0 0.62688,0.0606327 0.914628,0.191147 0.29597,0.131028 0.539528,0.296484 0.757395,0.49688 0.209131,0.208618 0.374587,0.443954 0.496366,0.731189 0.121779,0.278499 0.17419,0.574983 0.17419,0.879688 0,0.661821 -0.217867,1.22755 -0.670556,1.68949 -0.45269,0.47016 -1.0102,0.704983 -1.67202,0.704983 -0.644351,0 -1.17566,-0.234823 -1.59341,-0.704983 -0.418263,-0.461939 -0.62688,-1.02767 -0.62688,-1.68949zm4.15334 8.15972l0 26.3074 -3.82243 0 0 -26.3074 3.82243 0z"/>
    <path id="_679105841234567891011121314151617181920212223" class="fil2" d="M976.773 1006.31l3.82294 0 0 3.09124c0.374587,-0.339646 0.76613,-0.696762 1.18439,-1.06261 0.417749,-0.365338 0.957791,-0.696248 1.61961,-0.992732 0.670556,-0.29597 1.49783,-0.548263 2.49056,-0.739924 1.00147,-0.200396 2.25523,-0.29597 3.77053,-0.29597 1.34111,0 2.57792,0.217353 3.7099,0.653086 1.13198,0.435219 2.10724,1.04463 2.92578,1.84621 0.818541,0.801071 1.45416,1.75886 1.89862,2.88211 0.45269,1.12325 0.679291,2.38626 0.679291,3.77927l0 17.1467 -3.82294 0 0 -16.9638c0,-0.261029 -0.00873522,-0.583204 -0.0349409,-0.975261 -0.0262056,-0.391543 -0.104309,-0.801071 -0.235337,-1.24503 -0.121779,-0.444468 -0.339646,-0.879688 -0.635615,-1.31491 -0.29597,-0.435733 -0.713719,-0.827276 -1.25376,-1.18439 -0.531307,-0.357116 -1.21933,-0.653086 -2.03787,-0.870952 -0.827276,-0.217867 -1.84621,-0.330911 -3.05681,-0.330911 -0.983996,0 -1.91558,0.209131 -2.78653,0.635615 -0.862217,0.426998 -1.62835,0.949056 -2.28143,1.55898 -0.653086,0.60941 -1.17566,1.2625 -1.55898,1.96799 -0.382808,0.696762 -0.574469,1.32364 -0.574469,1.88115l0 16.8415 -3.82294 0 0 -26.3074z"/>
    <path id="_67910584123456789101112131415161718192021222324" class="fil2" d="M1038.11 1032.61c-2.37752,0 -4.19753,-0.670556 -5.45129,-2.01167 -1.26301,-1.34985 -1.88989,-3.36152 -1.88989,-6.05196l0 -14.8216 -3.70116 0 0 -3.42215 3.70116 0 0 -5.86082 3.82294 -1.09704 0 6.95786 6.71378 0 0 3.42215 -6.71378 0 0 15.7881c0,0.600675 0.0698817,1.12325 0.200396,1.5672 0.13925,0.453204 0.365851,0.836012 0.696762,1.14945 0.322175,0.313954 0.748659,0.557512 1.27997,0.714232 0.540042,0.165455 1.20186,0.244072 1.98546,0.244072 0.217867,-0.0174704 0.478895,-0.0436761 0.7836,-0.0786169l0.923364 -0.104309c0.304705,-0.0349409 0.583204,-0.0698817 0.844233,-0.104823l0.531307 -0.0955735 0.383322 3.23922c-0.591939,0.15672 -1.25427,0.287748 -1.96799,0.400792 -0.714232,0.113044 -1.42846,0.165455 -2.14218,0.165455z"/>
    <path id="_6791058412345678910111213141516171819202122232425" class="fil2" d="M1047.32 994.906l3.82294 0 0 14.4907c0.374587,-0.339646 0.76613,-0.696762 1.18439,-1.06261 0.417749,-0.365338 0.957791,-0.696248 1.61961,-0.992732 0.670556,-0.29597 1.49783,-0.548263 2.49056,-0.739924 1.00147,-0.200396 2.25523,-0.29597 3.77053,-0.29597 1.34111,0 2.57792,0.217353 3.7099,0.653086 1.13198,0.435219 2.10724,1.04463 2.92578,1.84621 0.818541,0.801071 1.45416,1.75886 1.89862,2.88211 0.45269,1.12325 0.679291,2.38626 0.679291,3.77927l0 17.1467 -3.82294 0 0 -16.9638c0,-0.261029 -0.00873522,-0.583204 -0.0349409,-0.975261 -0.0262056,-0.391543 -0.104309,-0.801071 -0.235337,-1.24503 -0.121779,-0.444468 -0.339646,-0.879688 -0.635615,-1.31491 -0.29597,-0.435733 -0.713719,-0.827276 -1.25376,-1.18439 -0.531307,-0.357116 -1.21933,-0.653086 -2.03787,-0.870952 -0.827276,-0.217867 -1.84621,-0.330911 -3.05681,-0.330911 -0.983996,0 -1.91558,0.209131 -2.78653,0.635615 -0.862217,0.426998 -1.62835,0.949056 -2.28143,1.55898 -0.653086,0.60941 -1.17566,1.2625 -1.55898,1.96799 -0.382808,0.696762 -0.574469,1.32364 -0.574469,1.88115l0 16.8415 -3.82294 0 0 -37.7068z"/>
    <path id="_679105841234567891011121314151617181920212223242526" class="fil2" d="M1078.35 1016.39l13.907 0c0,-1.14072 -0.113558,-2.14218 -0.330911,-2.99567 -0.217867,-0.862217 -0.583718,-1.57645 -1.07135,-2.15965 -0.496366,-0.574983 -1.15819,-1.0102 -1.97673,-1.29744 -0.827276,-0.287748 -1.83748,-0.435733 -3.02187,-0.435733 -1.15819,0 -2.20282,0.131028 -3.12618,0.392057 -0.931585,0.269764 -1.71519,0.679291 -2.36879,1.2368 -0.644351,0.565734 -1.14072,1.27997 -1.4891,2.15092 -0.347867,0.861703 -0.522058,1.89811 -0.522058,3.10871zm0.0256918 3.42215c0,1.62835 0.182926,3.04808 0.540042,4.24994 0.357116,1.19261 0.914628,2.18535 1.68076,2.97819 0.76613,0.792335 1.75013,1.37554 2.95199,1.75886 1.19313,0.383322 2.62981,0.574983 4.2931,0.574983 1.29795,0 2.38626,-0.0786169 3.26594,-0.226602 0.887909,-0.15672 1.62835,-0.322175 2.21155,-0.513836 0.583718,-0.182926 1.05388,-0.357116 1.40226,-0.522571 0.348381,-0.165455 0.644351,-0.261029 0.879688,-0.29597l0.487631 2.48183c-0.235337,0.147985 -0.661821,0.365851 -1.26301,0.635615 -0.600675,0.270278 -1.32364,0.548777 -2.15965,0.827276 -0.827276,0.278499 -1.72392,0.522571 -2.67349,0.731703 -0.957791,0.200396 -1.88938,0.304705 -2.81274,0.304705 -1.14072,0 -2.18535,-0.0873522 -3.15239,-0.269764 -0.957791,-0.17419 -1.85443,-0.461939 -2.69045,-0.853482 -0.827276,-0.392057 -1.62013,-0.905893 -2.36005,-1.55898 -0.740438,-0.644351 -1.45416,-1.42795 -2.15092,-2.34258 -0.392057,-0.513836 -0.731703,-1.11451 -1.0102,-1.80254 -0.278499,-0.688027 -0.522571,-1.41048 -0.714232,-2.15092 -0.200396,-0.748659 -0.339646,-1.49783 -0.435219,-2.24649 -0.0960874,-0.749173 -0.13925,-1.44594 -0.13925,-2.09902 0,-1.86368 0.199882,-3.61381 0.60941,-5.24216 0.409014,-1.61961 1.07083,-3.03934 1.9942,-4.24994 0.914115,-1.20135 2.11598,-2.15965 3.59634,-2.8559 1.48036,-0.696762 3.29163,-1.04514 5.43382,-1.04514 1.56771,0 2.90009,0.235337 3.99713,0.705497 1.09755,0.461425 2.01167,1.07957 2.74337,1.83748 0.731189,0.757395 1.30617,1.61961 1.7157,2.58614 0.417749,0.975261 0.731189,1.96799 0.949056,2.98693 0.209131,1.01894 0.339646,2.0204 0.391543,3.0044 0.0524113,0.975261 0.0786169,1.84621 0.0786169,2.61234l-17.6606 0z"/>
    <path id="_67910584123456789101112131415161718192021222324252627" class="fil2" d="M1129.38 1016.39l13.907 0c0,-1.14072 -0.113558,-2.14218 -0.330911,-2.99567 -0.217867,-0.862217 -0.583718,-1.57645 -1.07135,-2.15965 -0.496366,-0.574983 -1.15819,-1.0102 -1.97673,-1.29744 -0.827276,-0.287748 -1.83748,-0.435733 -3.02187,-0.435733 -1.15819,0 -2.20282,0.131028 -3.12618,0.392057 -0.931585,0.269764 -1.71519,0.679291 -2.36879,1.2368 -0.644351,0.565734 -1.14072,1.27997 -1.4891,2.15092 -0.347867,0.861703 -0.522058,1.89811 -0.522058,3.10871zm0.0256918 3.42215c0,1.62835 0.182926,3.04808 0.540042,4.24994 0.357116,1.19261 0.914628,2.18535 1.68076,2.97819 0.76613,0.792335 1.75013,1.37554 2.95199,1.75886 1.19313,0.383322 2.62981,0.574983 4.2931,0.574983 1.29795,0 2.38626,-0.0786169 3.26594,-0.226602 0.887909,-0.15672 1.62835,-0.322175 2.21155,-0.513836 0.583718,-0.182926 1.05388,-0.357116 1.40226,-0.522571 0.348381,-0.165455 0.644351,-0.261029 0.879688,-0.29597l0.487631 2.48183c-0.235337,0.147985 -0.661821,0.365851 -1.26301,0.635615 -0.600675,0.270278 -1.32364,0.548777 -2.15965,0.827276 -0.827276,0.278499 -1.72392,0.522571 -2.67349,0.731703 -0.957791,0.200396 -1.88938,0.304705 -2.81274,0.304705 -1.14072,0 -2.18535,-0.0873522 -3.15239,-0.269764 -0.957791,-0.17419 -1.85443,-0.461939 -2.69045,-0.853482 -0.827276,-0.392057 -1.62013,-0.905893 -2.36005,-1.55898 -0.740438,-0.644351 -1.45416,-1.42795 -2.15092,-2.34258 -0.392057,-0.513836 -0.731703,-1.11451 -1.0102,-1.80254 -0.278499,-0.688027 -0.522571,-1.41048 -0.714232,-2.15092 -0.200396,-0.748659 -0.339646,-1.49783 -0.435219,-2.24649 -0.0960874,-0.749173 -0.13925,-1.44594 -0.13925,-2.09902 0,-1.86368 0.199882,-3.61381 0.60941,-5.24216 0.409014,-1.61961 1.07083,-3.03934 1.9942,-4.24994 0.914115,-1.20135 2.11598,-2.15965 3.59634,-2.8559 1.48036,-0.696762 3.29163,-1.04514 5.43382,-1.04514 1.56771,0 2.90009,0.235337 3.99713,0.705497 1.09755,0.461425 2.01167,1.07957 2.74337,1.83748 0.731189,0.757395 1.30617,1.61961 1.7157,2.58614 0.417749,0.975261 0.731189,1.96799 0.949056,2.98693 0.209131,1.01894 0.339646,2.0204 0.391543,3.0044 0.0524113,0.975261 0.0786169,1.84621 0.0786169,2.61234l-17.6606 0z"/>
    <path id="_6791058412345678910111213141516171819202122232425262728" class="fil2" d="M1153.49 1006.31l3.82294 0 0 3.09124c0.374587,-0.339646 0.76613,-0.696762 1.18439,-1.06261 0.417749,-0.365338 0.957791,-0.696248 1.61961,-0.992732 0.670556,-0.29597 1.49783,-0.548263 2.49056,-0.739924 1.00147,-0.200396 2.25523,-0.29597 3.77053,-0.29597 1.34111,0 2.57792,0.217353 3.7099,0.653086 1.13198,0.435219 2.10724,1.04463 2.92578,1.84621 0.818541,0.801071 1.45416,1.75886 1.89862,2.88211 0.45269,1.12325 0.679291,2.38626 0.679291,3.77927l0 17.1467 -3.82294 0 0 -16.9638c0,-0.261029 -0.00873522,-0.583204 -0.0349409,-0.975261 -0.0262056,-0.391543 -0.104309,-0.801071 -0.235337,-1.24503 -0.121779,-0.444468 -0.339646,-0.879688 -0.635615,-1.31491 -0.29597,-0.435733 -0.713719,-0.827276 -1.25376,-1.18439 -0.531307,-0.357116 -1.21933,-0.653086 -2.03787,-0.870952 -0.827276,-0.217867 -1.84621,-0.330911 -3.05681,-0.330911 -0.983996,0 -1.91558,0.209131 -2.78653,0.635615 -0.862217,0.426998 -1.62835,0.949056 -2.28143,1.55898 -0.653086,0.60941 -1.17566,1.2625 -1.55898,1.96799 -0.382808,0.696762 -0.574469,1.32364 -0.574469,1.88115l0 16.8415 -3.82294 0 0 -26.3074z"/>
    <path id="_679105841234567891011121314151617181920212223242526272829" class="fil2" d="M1202.25 1032.61l-0.583718 -3.11744c-0.531307,0.644351 -1.14072,1.18439 -1.84621,1.61961 -0.704983,0.435219 -1.45416,0.7836 -2.24649,1.03641 -0.792335,0.252294 -1.60214,0.435219 -2.4212,0.548263 -0.827276,0.113558 -1.61961,0.165455 -2.35954,0.165455 -2.02914,0 -3.788,-0.31344 -5.29457,-0.931585 -1.50657,-0.618145 -2.76958,-1.50657 -3.77978,-2.65602 -1.0102,-1.14072 -1.7676,-2.53424 -2.2727,-4.17132 -0.496366,-1.62835 -0.748659,-3.46583 -0.748659,-5.51244 0,-1.57594 0.165455,-3.00389 0.496366,-4.28437 0.330911,-1.27123 0.774865,-2.40321 1.34111,-3.38721 0.556998,-0.992732 1.21882,-1.83748 1.95926,-2.54298 0.748659,-0.705497 1.54973,-1.2887 2.38574,-1.75013 0.844747,-0.453204 1.7157,-0.792849 2.60412,-1.00147 0.896644,-0.217867 1.75886,-0.322175 2.59487,-0.322175 0.574983,0 1.2625,0.034427 2.06408,0.104309 0.801071,0.0698817 1.62835,0.244072 2.49879,0.531307 0.862217,0.29597 1.73317,0.722454 2.60412,1.2887 0.862217,0.574983 1.67202,1.36732 2.42068,2.39499l0 -15.7188 3.82294 0 0 37.7068 -3.23922 0zm-17.7299 -13.0191c0,1.31542 0.15672,2.56045 0.461425,3.75357 0.304705,1.19313 0.801071,2.23776 1.4891,3.13491 0.688027,0.905379 1.57594,1.61961 2.65602,2.15965 1.07957,0.531307 2.39448,0.801071 3.96219,0.801071 1.7676,0 3.23922,-0.278499 4.39741,-0.827276 1.16692,-0.557512 2.09029,-1.29744 2.76958,-2.2208 0.679291,-0.92285 1.15819,-2.00242 1.42795,-3.23049 0.269764,-1.21933 0.409527,-2.50803 0.409527,-3.84915 0,-1.18439 -0.209131,-2.36005 -0.627394,-3.50077 -0.417749,-1.14945 -1.0102,-2.17712 -1.78507,-3.07377 -0.774865,-0.905893 -1.71519,-1.62835 -2.81274,-2.18586 -1.10578,-0.548777 -2.36005,-0.827276 -3.75306,-0.827276 -1.60266,0 -2.94377,0.269764 -4.04081,0.801071 -1.09704,0.540042 -1.98546,1.26301 -2.65602,2.16839 -0.670556,0.914628 -1.15819,1.95926 -1.45416,3.15239 -0.29597,1.19313 -0.443954,2.43815 -0.443954,3.74432z"/>
    <path id="_67910872" class="fil2" d="M257.618 1004.33l0 23.8697 -22.0759 0 0 -18.8383c0,-10.2192 1.20906,-17.5907 3.66622,-22.1931 3.19863,-6.08433 8.26865,-10.6868 15.2116,-13.8068l4.99243 7.99529c-4.17338,1.75526 -7.25485,4.36864 -9.24391,7.8396 -1.98906,3.43243 -3.08148,8.50296 -3.31527,15.1335l10.7649 0zm35.4151 0l0 23.8697 -22.0759 0 0 -18.8383c0,-10.2192 1.24811,-17.5907 3.66622,-22.1931 3.19812,-6.08433 8.26865,-10.6868 15.2111,-13.8068l5.03148 7.99529c-4.21243,1.75526 -7.29339,4.36864 -9.28245,7.8396 -1.95052,3.43243 -3.08148,8.50296 -3.31527,15.1335l10.7649 0z"/>
    <path id="_67908736" class="fil2" d="M1233.17 997.797l0 -23.8697 22.0369 0 0 18.8773c0,10.1801 -1.17001,17.5516 -3.51002,22.0374 -3.27622,6.16244 -8.38581,10.8039 -15.3288,13.9239l-5.03097 -8.11245c4.09527,-1.67716 7.17624,-4.29053 9.20435,-7.9177 2.02863,-3.62768 3.12053,-8.58106 3.35432,-14.9388l-10.7258 0zm35.4151 0l0 -23.8697 22.0759 0 0 18.8773c0,10.1801 -1.20906,17.5516 -3.54907,22.0374 -3.27622,6.16244 -8.38581,10.8039 -15.3282,13.9239l-5.03148 -8.11245c4.13433,-1.67716 7.17624,-4.29053 9.20486,-7.9177 2.02811,-3.62768 3.15907,-8.58106 3.35432,-14.9388l-10.7263 0z"/>
    <rect id="_67920784" class="fil1 str0" x="0.453693" y="0.453209" width="1526.09" height="255.459"/>
    <path id="_67911664" class="fil2" d="M150.505 593.609c0,3.01776 -1.08779,5.57872 -3.22843,7.61403 -2.17507,2.07025 -4.87682,3.08764 -8.0698,3.08764l-104.456 0c-3.29831,0 -6.00007,-1.0174 -8.17513,-3.08764 -2.14064,-2.03531 -3.22843,-4.59627 -3.22843,-7.61403l0 -128.876c0,-2.49108 0.947514,-4.59627 2.84254,-6.38596 1.85957,-1.78969 4.13998,-2.66681 6.80679,-2.66681l107.824 0c2.70175,0 4.98216,0.877118 6.84173,2.66681 1.89503,1.78969 2.84254,3.89488 2.84254,6.38596l0 128.876zm-102.28 -6.56117l65.8944 0c2.45614,0 4.10504,-0.421346 4.87682,-1.22807 0.807237,-0.842178 1.19313,-2.94736 1.19313,-6.38596l0 -28.1752c0,-0.245614 -0.0703956,-1.01791 -0.210673,-2.24598 -0.140277,-1.22807 -0.210159,-2.3508 -0.210159,-3.40314 0,-1.89503 0.280555,-3.92982 0.841664,-6.00007 0.526682,-2.10519 1.4038,-4.31571 2.56147,-6.63157l5.01761 -10.1755c1.43874,-2.87697 2.24546,-4.80694 2.45614,-5.75445 0.210673,-0.947 0.316009,-3.08764 0.316009,-6.38596l0 -32.6661c0,-2.77215 -0.421346,-4.52638 -1.22807,-5.29817 -0.807237,-0.807237 -2.52653,-1.19313 -5.12295,-1.19313l-76.3854 0c-2.31586,0 -3.89488,0.420832 -4.66666,1.29846 -0.807237,0.841664 -1.19313,2.56096 -1.19313,5.19283l0 101.438c0,3.71915 0.35095,5.89473 1.08779,6.59612 0.7019,0.666959 2.31586,1.01791 4.772,1.01791z"/>
    <path id="_679116641" class="fil2" d="M247.346 502.031c3.64875,0 6.59612,1.01791 8.84209,3.01776 2.28041,2.03479 3.40314,4.66666 3.40314,7.85964l0 80.7011c0,3.43859 -0.912059,6.06995 -2.73669,7.92952 -1.78918,1.86009 -4.35065,2.77215 -7.64897,2.77215l-45.2279 0c-2.07025,0 -3.61381,0.35095 -4.7016,1.0174 -1.05285,0.7019 -1.57902,1.68436 -1.57902,2.98282l0 37.4032c0,1.85957 -0.456287,3.15752 -1.33341,3.85942 -0.877118,0.736841 -2.49108,1.08779 -4.84188,1.08779l-15.5086 0c-2.31586,0 -4.0701,-0.420832 -5.22828,-1.22807 -1.15767,-0.842178 -1.75424,-2.07025 -1.75424,-3.71915l0 -133.824c0,-2.80657 0.982455,-5.15789 2.98231,-7.0524 1.99985,-1.85957 4.42105,-2.80709 7.29853,-2.80709l68.0345 0zm-52.2104 85.6133l39.7894 0c3.12258,0 5.01761,-0.350436 5.64912,-1.0174 0.596564,-0.7019 0.912059,-2.52602 0.912059,-5.47338l0 -57.4382c0,-1.86009 -0.35095,-3.1231 -1.08779,-3.825 -0.701386,-0.666446 -2.42068,-1.0174 -5.08749,-1.0174l-2.03531 0 -39.7889 0c-2.66681,0 -4.35117,0.385891 -4.98267,1.12273 -0.666446,0.772296 -0.982455,2.4212 -0.982455,4.94773l0 56.4202c0,2.87748 0.316009,4.66666 0.982455,5.29817 0.631505,0.666959 2.84203,0.982455 6.63157,0.982455z"/>
    <path id="_6791166412" class="fil2" d="M355.591 502.031c3.64875,0 6.59612,1.01791 8.84209,3.01776 2.28041,2.03479 3.40314,4.66666 3.40314,7.85964l0 80.7011c0,3.43859 -0.912059,6.06995 -2.73669,7.92952 -1.78918,1.86009 -4.35065,2.77215 -7.64897,2.77215l-45.2279 0c-2.07025,0 -3.61381,0.35095 -4.7016,1.0174 -1.05285,0.7019 -1.57902,1.68436 -1.57902,2.98282l0 37.4032c0,1.85957 -0.456287,3.15752 -1.33341,3.85942 -0.877118,0.736841 -2.49108,1.08779 -4.84188,1.08779l-15.5086 0c-2.31586,0 -4.0701,-0.420832 -5.22828,-1.22807 -1.15767,-0.842178 -1.75424,-2.07025 -1.75424,-3.71915l0 -133.824c0,-2.80657 0.982455,-5.15789 2.98231,-7.0524 1.99985,-1.85957 4.42105,-2.80709 7.29853,-2.80709l68.0345 0zm-52.2104 85.6133l39.7894 0c3.12258,0 5.01761,-0.350436 5.64912,-1.0174 0.596564,-0.7019 0.912059,-2.52602 0.912059,-5.47338l0 -57.4382c0,-1.86009 -0.35095,-3.1231 -1.08779,-3.825 -0.701386,-0.666446 -2.42068,-1.0174 -5.08749,-1.0174l-2.03531 0 -39.7889 0c-2.66681,0 -4.35117,0.385891 -4.98267,1.12273 -0.666446,0.772296 -0.982455,2.4212 -0.982455,4.94773l0 56.4202c0,2.87748 0.316009,4.66666 0.982455,5.29817 0.631505,0.666959 2.84203,0.982455 6.63157,0.982455z"/>
    <path id="_67911664123" class="fil2" d="M477.73 597.504c0,2.42068 -0.561623,4.13998 -1.64941,5.22777 -1.08728,1.05285 -2.94736,1.57902 -5.54378,1.57902l-77.8241 0c-2.45614,0 -4.28026,-0.491227 -5.43844,-1.43874 -1.15767,-0.947 -1.75424,-2.42068 -1.75424,-4.42105l0 -89.929c0,-2.3508 0.666446,-3.9997 1.99985,-4.98216 1.33341,-1.01791 3.61432,-1.50914 6.84224,-1.50914l75.5432 0c2.66681,0 4.66666,0.596564 5.92967,1.78969 1.26352,1.22807 1.89503,3.0527 1.89503,5.50884l0 88.1748zm-30.3158 -13.649l0 -17.6842c0,-4.03516 0.316009,-7.29853 0.982455,-9.71921 0.631505,-2.4212 1.7193,-4.87733 3.22792,-7.33347l4.80745 -7.92952c0.140277,-0.210673 0.350436,-0.491227 0.631505,-0.912573 1.7193,-2.59641 2.56147,-5.05255 2.56147,-7.29802l0 -10.5963c0,-1.36835 -0.245614,-2.3508 -0.7019,-2.91242 -0.491227,-0.596564 -1.33341,-0.877118 -2.49108,-0.877118l-50.0348 0c-1.08779,0 -1.85957,0.280555 -2.31586,0.806723 -0.456287,0.561623 -0.666959,1.54408 -0.666959,2.98282l0 61.4733c0,1.50862 0.210673,2.49108 0.666959,3.01725 0.456287,0.526168 1.22807,0.771782 2.31586,0.771782l38.0347 0c1.08779,0 1.85957,-0.245614 2.31586,-0.771782 0.456287,-0.526168 0.666446,-1.50862 0.666446,-3.01725z"/>
    <path id="_679116641234" class="fil2" d="M495.414 596.697l0 -85.824c0,-2.59641 0.912059,-4.73654 2.73669,-6.38596 1.78969,-1.6489 4.17543,-2.45614 7.1228,-2.45614l59.0172 0c2.45614,0 4.52638,0.736841 6.17528,2.24598 1.64941,1.50862 2.45614,3.40314 2.45614,5.68406l0 16.4207c0,2.70175 -0.420832,4.49144 -1.22807,5.4035 -0.842178,0.947514 -2.3508,1.4038 -4.52638,1.4038l-8.63142 0c-1.92946,0 -3.29831,-0.386405 -4.0701,-1.12325 -0.806723,-0.771782 -1.19313,-1.99985 -1.19313,-3.71915l0 -6.59612c0,-1.68436 -0.210159,-2.77215 -0.631505,-3.15804 -0.385891,-0.420832 -1.33341,-0.631505 -2.77163,-0.631505l-31.5439 0c-1.36835,0.0698817 -2.28041,0.385891 -2.77163,0.912059 -0.456287,0.561623 -0.736841,1.78969 -0.807237,3.71915l0 10.3862c0,2.14013 0.175732,4.03516 0.561623,5.719 0.385891,1.68436 0.982455,3.19298 1.78918,4.56184l6.07046 11.6137c0.947,1.85957 1.6489,3.61381 2.10519,5.29817 0.455773,1.68436 0.666446,3.54393 0.666446,5.61417l0 1.33341 0 30.4206c0,2.31586 -0.561109,4.03516 -1.68436,5.12295 -1.12273,1.08728 -2.91191,1.6489 -5.29817,1.6489l-16.3508 0c-2.03479,0 -3.75409,-0.736841 -5.12243,-2.17558 -1.36835,-1.43823 -2.07025,-3.22792 -2.07025,-5.43844z"/>
    <path id="_6791166412345" class="fil2" d="M599.624 604.311c-1.96491,0 -3.64926,-0.7019 -4.98267,-2.07025 -1.33289,-1.36835 -1.99985,-3.0527 -1.99985,-5.12243l0 -78.0348 -7.8247 0c-1.0174,0 -1.89451,-0.421346 -2.6663,-1.22807 -0.736841,-0.842178 -1.12273,-1.75424 -1.12273,-2.77215l0 -9.26293c0,-1.08779 0.35095,-1.99985 1.08728,-2.70175 0.7019,-0.736841 1.61447,-1.08779 2.70175,-1.08779l7.8247 0 0 -24.6662c0,-2.00036 0.491227,-3.47405 1.43874,-4.42105 0.947,-0.947514 2.42068,-1.43874 4.42105,-1.43874l8.21059 0c1.71878,0 2.98231,0.491227 3.82448,1.43874 0.806723,0.947 1.22807,2.42068 1.22807,4.42105l0 24.6662 21.298 0c1.82463,0 3.26286,0.596564 4.21037,1.75475 0.947514,1.15767 1.43874,2.80657 1.43874,4.91176l0 18.737c0,1.75424 -0.491227,3.08764 -1.43874,3.9997 -0.947514,0.877118 -2.38574,1.33341 -4.21037,1.33341l-21.298 0 0 51.0877c0,2.06973 0.175218,3.2978 0.526168,3.75409 0.315495,0.456287 1.29795,0.666959 2.87697,0.666959l1.01791 0 8.21008 0c1.92997,0 3.22843,0.315495 3.85994,0.982455 0.666446,0.631505 0.982455,1.78918 0.982455,3.43859l0 6.38544c0,2.31586 -0.281068,3.78954 -0.877118,4.35117 -0.561623,0.596564 -1.89503,0.877118 -3.96527,0.877118l-24.7715 0z"/>
    <path id="_67911664123456" class="fil2" d="M728.43 588.066c1.08779,0 1.85957,-0.245614 2.24546,-0.771782 0.420832,-0.526682 0.631505,-1.50914 0.631505,-3.01776l0 -78.0348c0,-1.36835 0.280555,-2.42068 0.877118,-3.12258 0.561623,-0.736841 1.33341,-1.08779 2.31586,-1.08779l12.2103 0c0.982455,0 1.75475,0.35095 2.31586,1.08779 0.596564,0.7019 0.877118,1.75424 0.877118,3.12258l0 92.6313c0,1.75424 -0.596564,3.12258 -1.78918,4.03516 -1.19313,0.947 -3.01776,1.40329 -5.4035,1.40329l-80.5962 0c-2.45614,0 -4.28026,-0.456287 -5.43844,-1.33341 -1.15767,-0.877118 -1.75424,-2.28041 -1.75424,-4.10504l0 -92.6313c0,-1.36835 0.245614,-2.42068 0.771782,-3.12258 0.526168,-0.736841 1.26301,-1.08779 2.21052,-1.08779l13.8597 0c1.08779,0 1.89451,0.316009 2.4212,0.982455 0.526168,0.631505 0.771782,1.7193 0.771782,3.22792l0 32.3861c0,1.29795 0.0698817,2.38574 0.245614,3.29831 0.175218,0.877118 0.526168,1.6489 0.982455,2.3508l5.68406 9.26293c1.50862,2.52653 2.59641,5.01761 3.22792,7.50869 0.666959,2.45614 0.982455,5.71951 0.982455,9.75467l0 1.54356 0 13.0525c0,0.877118 0.175732,1.54408 0.526682,1.99985 0.315495,0.456287 0.877118,0.666959 1.6489,0.666959l40.1753 0z"/>
    <path id="_679116641234567" class="fil2" d="M788.851 518.171c-0.736841,0 -1.33341,0.245614 -1.7193,0.736327 -0.421346,0.456287 -0.631505,1.15819 -0.631505,2.03531l0 13.0525c0,1.29846 0.105336,2.4212 0.315495,3.29831 0.210673,0.877118 0.526682,1.68436 1.01791,2.3508l5.85927 9.4736c1.43874,2.31586 2.45614,4.59678 3.08764,6.84224 0.596564,2.21052 0.912573,5.15789 0.912573,8.7717l0 2.98231 0 32.3861c0,1.15767 -0.316009,2.14013 -0.912573,2.98231 -0.631505,0.807237 -1.29795,1.22807 -2.07025,1.22807l-24.14 0c-0.771782,0 -1.43874,-0.420832 -2.07025,-1.22807 -0.596564,-0.842178 -0.912059,-1.82463 -0.912059,-2.98231l0 -92.6313c0,-1.96491 0.631505,-3.3682 1.85957,-4.21037 1.22807,-0.806723 3.33326,-1.22807 6.35102,-1.22807l78.3503 0c2.94736,0 5.08749,0.631505 6.4209,1.85957 1.33341,1.22807 1.99985,3.19298 1.99985,5.85979l0 90.3504c0,1.29795 -0.280555,2.31586 -0.877118,3.08764 -0.561109,0.736841 -1.33341,1.12273 -2.31586,1.12273l-12.2103 0c-0.771782,0 -1.47368,-0.420832 -2.17558,-1.29846 -0.666446,-0.841664 -1.0174,-1.82412 -1.0174,-2.91191l0 -78.1401c0,-1.50862 -0.210673,-2.49108 -0.631505,-3.01725 -0.385891,-0.526168 -1.15767,-0.771782 -2.24546,-0.771782l-52.2453 0z"/>
    <path id="_6791166412345678" class="fil2" d="M878.604 476.943c0,-3.0527 1.05285,-5.68406 3.19298,-7.78924 2.1057,-2.14064 4.70212,-3.19298 7.71936,-3.19298 3.0527,0 5.68406,1.05234 7.78976,3.19298 2.14013,2.10519 3.19298,4.73654 3.19298,7.78924 0,3.08764 -1.05285,5.68406 -3.19298,7.78976 -2.1057,2.06973 -4.73706,3.12258 -7.78976,3.12258 -3.01725,0 -5.61366,-1.05285 -7.71936,-3.12258 -2.14013,-2.1057 -3.19298,-4.70212 -3.19298,-7.78976zm15.7193 25.0875c1.36835,0 2.45614,0.385891 3.22843,1.19313 0.806723,0.771782 1.19261,1.85957 1.19261,3.22792l0 26.1049c0,2.73721 0.596564,5.12295 1.75475,7.08786 0.280555,0.491227 0.491227,0.877118 0.631505,1.12273l7.99992 15.4387c0.561109,1.08779 0.947,2.3508 1.22807,3.78954 0.280555,1.43823 0.420832,3.64875 0.420832,6.59612l0 30.9473c0,2.10519 -0.526168,3.78954 -1.54356,4.98216 -1.01791,1.19313 -2.38626,1.78969 -4.10555,1.78969l-17.2628 0c-2.49108,0 -4.35117,-0.561623 -5.64912,-1.6489 -1.29846,-1.08779 -1.96491,-2.63187 -1.96491,-4.63172l0 -91.5785c0,-1.50862 0.35095,-2.63136 1.0174,-3.33326 0.7019,-0.736841 1.75424,-1.08779 3.19298,-1.08779l9.85949 0z"/>
    <path id="_67911664123456789" class="fil2" d="M942.218 604.311c-1.96491,0 -3.64926,-0.7019 -4.98267,-2.07025 -1.33289,-1.36835 -1.99985,-3.0527 -1.99985,-5.12243l0 -78.0348 -7.8247 0c-1.0174,0 -1.89451,-0.421346 -2.6663,-1.22807 -0.736841,-0.842178 -1.12273,-1.75424 -1.12273,-2.77215l0 -9.26293c0,-1.08779 0.35095,-1.99985 1.08728,-2.70175 0.7019,-0.736841 1.61447,-1.08779 2.70175,-1.08779l7.8247 0 0 -24.6662c0,-2.00036 0.491227,-3.47405 1.43874,-4.42105 0.947,-0.947514 2.42068,-1.43874 4.42105,-1.43874l8.21059 0c1.71878,0 2.98231,0.491227 3.82448,1.43874 0.806723,0.947 1.22807,2.42068 1.22807,4.42105l0 24.6662 21.298 0c1.82463,0 3.26286,0.596564 4.21037,1.75475 0.947514,1.15767 1.43874,2.80657 1.43874,4.91176l0 18.737c0,1.75424 -0.491227,3.08764 -1.43874,3.9997 -0.947514,0.877118 -2.38574,1.33341 -4.21037,1.33341l-21.298 0 0 51.0877c0,2.06973 0.175218,3.2978 0.526168,3.75409 0.315495,0.456287 1.29795,0.666959 2.87697,0.666959l1.01791 0 8.21008 0c1.92997,0 3.22843,0.315495 3.85994,0.982455 0.666446,0.631505 0.982455,1.78918 0.982455,3.43859l0 6.38544c0,2.31586 -0.281068,3.78954 -0.877118,4.35117 -0.561623,0.596564 -1.89503,0.877118 -3.96527,0.877118l-24.7715 0z"/>
    <path id="_6791166412345678910" class="fil2" d="M1009.13 604.311c-3.08764,0 -5.78939,-0.982455 -8.10525,-2.98231 -2.3508,-2.00036 -3.50847,-4.21037 -3.50847,-6.66651l0 -88.4209c0,-1.43823 0.456287,-2.49108 1.40329,-3.19246 0.912573,-0.666959 2.31586,-1.01791 4.24583,-1.01791l7.40335 0c1.78969,0 3.0527,0.456287 3.7546,1.33341 0.736841,0.877118 1.08728,2.38574 1.08728,4.52638l0 73.7185c0,2.17558 0.386405,3.68421 1.19313,4.4565 0.771782,0.806723 2.63187,1.19261 5.57872,1.19261l44.4211 0c2.6663,0 4.31571,-0.280555 4.94722,-0.806723 0.596564,-0.561623 0.912059,-2.17558 0.912059,-4.84239l0 -75.368c0,-0.947 0.526682,-1.89451 1.54408,-2.80657 1.0174,-0.947514 2.03479,-1.4038 3.08764,-1.4038l9.01731 0c1.43874,0 2.63187,0.385891 3.50899,1.19313 0.877118,0.771782 1.33341,1.78969 1.33341,3.01725l0 137.649c0,2.38574 -0.491227,4.10504 -1.43874,5.19283 -0.947514,1.05285 -2.56147,1.57902 -4.84188,1.57902l-16.4212 0c-2.07025,0 -3.68421,-0.526168 -4.91227,-1.57902 -1.19313,-1.08779 -1.78918,-2.52602 -1.78918,-4.38611l0 -34.1049c0,-2.49108 -0.35095,-4.14049 -1.08779,-4.98216 -0.7019,-0.877632 -2.66681,-1.29846 -5.89473,-1.29846l-1.0174 0 -44.4211 0z"/>
    <path id="_679116641234567891011" class="fil2" d="M1309.06 488.558c0,1.99985 -0.526682,3.50847 -1.54408,4.52587 -1.0174,1.01791 -2.52653,1.54408 -4.52638,1.54408l-19.0171 0c-1.64941,0 -3.08816,-0.596564 -4.28077,-1.78969 -1.19313,-1.19261 -1.78969,-2.63136 -1.78969,-4.28026l0 -10.5614c0,-2.70175 -0.420832,-4.42105 -1.29795,-5.26322 -0.842178,-0.807237 -2.56147,-1.22807 -5.19334,-1.22807l-64.6308 0c-2.31586,0 -3.89488,0.420832 -4.66666,1.29846 -0.807237,0.841664 -1.19313,2.56096 -1.19313,5.19283l0 101.438c0,3.71915 0.35095,5.89473 1.08779,6.59612 0.7019,0.666959 2.31586,1.01791 4.772,1.01791l78.5255 0c2.45614,0 4.10555,-0.421346 4.87733,-1.22807 0.807237,-0.842178 1.19313,-2.94736 1.19313,-6.38596l0 -23.7541c0,-2.73721 0.491227,-4.73706 1.47368,-6.03552 1.0174,-1.29795 2.56147,-1.96491 4.7016,-1.96491l5.64912 0c1.99985,0 3.47353,0.666959 4.42105,2.00036 0.947514,1.33341 1.43874,3.33326 1.43874,6.00007l0 37.9293c0,3.01776 -1.08779,5.57872 -3.22843,7.61403 -2.17507,2.07025 -4.87682,3.08764 -8.0698,3.08764l-104.456 0c-3.29831,0 -6.00007,-1.0174 -8.17513,-3.08764 -2.14064,-2.03531 -3.22843,-4.59627 -3.22843,-7.61403l0 -128.876c0,-2.49108 0.947514,-4.59627 2.84254,-6.38596 1.85957,-1.78969 4.13998,-2.66681 6.80679,-2.66681l107.859 0c2.66681,0 4.94722,0.877118 6.80679,2.66681 1.89503,1.78969 2.84254,3.89488 2.84254,6.38596l0 23.8245z"/>
    <path id="_67911664123456789101112" class="fil2" d="M1358.43 517.961c-1.40329,0 -2.31586,0.175218 -2.84203,0.561109 -0.526168,0.385891 -0.771782,1.19313 -0.771782,2.4212l0 14.7019c0,1.43823 0.210159,2.38574 0.631505,2.77163 0.385891,0.421346 1.15767,0.631505 2.24546,0.631505l40.2806 0c1.33289,0 2.21052,-0.210159 2.73669,-0.666446 0.526168,-0.456287 0.771782,-1.29846 0.771782,-2.52653l0 -13.684c0,-1.50862 -0.245614,-2.59641 -0.771782,-3.22792 -0.526168,-0.666959 -1.4038,-0.982455 -2.73669,-0.982455l-39.5438 0zm-24.491 86.3502c-2.17558,0 -4.21037,-0.877118 -6.07046,-2.66681 -1.85957,-1.78918 -2.77163,-3.71915 -2.77163,-5.75394l0 -86.14c0,-2.3508 0.877118,-4.21037 2.66681,-5.61417 1.78918,-1.40329 4.17543,-2.10519 7.19268,-2.10519l76.0699 0c2.63136,0 4.84188,0.772296 6.70145,2.31586 1.85957,1.54408 2.77215,3.33326 2.77215,5.4035l0 38.3507c0,1.96491 -0.7019,3.57887 -2.07025,4.772 -1.36835,1.19261 -3.19298,1.78918 -5.54378,1.78918l-53.8593 0c-1.64941,0 -2.77215,0.281068 -3.33326,0.877118 -0.596564,0.596564 -0.877118,1.89503 -0.877118,3.96527l0 23.1226c0,2.14013 0.140277,3.43859 0.420832,3.89436 0.280555,0.491227 1.0174,0.736841 2.24546,0.736841l2.17558 0 38.9472 0c1.29795,0 2.10519,-0.210159 2.42068,-0.631505 0.316009,-0.385891 0.456287,-1.26301 0.456287,-2.56147l0 -8.63142c0,-0.947514 0.210673,-1.6489 0.666446,-2.03479 0.456287,-0.421346 1.43874,-0.632019 2.94736,-0.632019l11.4036 0c1.57902,0 2.63187,0.316009 3.19298,0.912573 0.526168,0.631505 0.807237,1.78918 0.807237,3.50847l0 18.7021c0,3.22792 -0.596564,5.43844 -1.78969,6.63106 -1.19313,1.19313 -3.33326,1.78969 -6.4209,1.78969l-78.3503 0z"/>
    <path id="_6791166412345678910111213" class="fil2" d="M1436.43 460.101c0,-1.50862 0.35095,-2.63136 1.0174,-3.33326 0.7019,-0.736841 1.75424,-1.08779 3.19298,-1.08779l9.85949 0c1.36835,0 2.45614,0.385891 3.22843,1.19313 0.806723,0.771782 1.19261,1.85957 1.19261,3.22792l0 72.4555c0,2.73721 0.596564,5.12295 1.75475,7.08786 0.280555,0.491227 0.491227,0.877118 0.59605,1.15819l8.03537 15.4033c0.561109,1.08779 0.947,2.3508 1.22807,3.78954 0.280555,1.43823 0.420832,3.64875 0.420832,6.59612l0 30.9473c0,2.10519 -0.526168,3.78954 -1.54356,4.98216 -1.01791,1.19313 -2.38626,1.78969 -4.10555,1.78969l-17.2628 0c-2.49108,0 -4.35117,-0.561623 -5.64912,-1.6489 -1.29846,-1.08779 -1.96491,-2.63187 -1.96491,-4.63172l0 -137.929z"/>
    <path id="_679116641234567891011121314" class="fil2" d="M1482.78 460.101c0,-1.50862 0.35095,-2.63136 1.0174,-3.33326 0.7019,-0.736841 1.75424,-1.08779 3.19298,-1.08779l9.85949 0c1.36835,0 2.45614,0.385891 3.22843,1.19313 0.806723,0.771782 1.19261,1.85957 1.19261,3.22792l0 72.4555c0,2.73721 0.596564,5.12295 1.75475,7.08786 0.280555,0.491227 0.491227,0.877118 0.59605,1.15819l8.03537 15.4033c0.561109,1.08779 0.947,2.3508 1.22807,3.78954 0.280555,1.43823 0.420832,3.64875 0.420832,6.59612l0 30.9473c0,2.10519 -0.526168,3.78954 -1.54356,4.98216 -1.01791,1.19313 -2.38626,1.78969 -4.10555,1.78969l-17.2628 0c-2.49108,0 -4.35117,-0.561623 -5.64912,-1.6489 -1.29846,-1.08779 -1.96491,-2.63187 -1.96491,-4.63172l0 -137.929z"/>
    <path id="_67907728" class="fil3" d="M693.976 404.175l0 -31.1996 3.48021 0 0 2.92938c0.819569,-1.14585 1.74756,-2.00859 2.78448,-2.58151 1.02973,-0.572927 2.284,-0.862731 3.75563,-0.862731 1.92894,0 3.62563,0.499963 5.09726,1.48653 1.47933,0.993245 2.58871,2.39242 3.33531,4.19804 0.754312,1.80511 1.13147,3.78492 1.13147,5.93841 0,2.30558 -0.413638,4.38662 -1.24708,6.2354 -0.826762,1.84878 -2.03017,3.26286 -3.61124,4.24891 -1.58056,0.978858 -3.24077,1.47214 -4.98113,1.47214 -1.27586,0 -2.41452,-0.268223 -3.42934,-0.805181 -1.01534,-0.536445 -1.8421,-1.21779 -2.49467,-2.03736l0 10.9776 -3.82089 0zm3.45863 -19.7945c0,2.90061 0.587315,5.0469 1.76194,6.43888 1.17463,1.38479 2.60309,2.08104 4.27049,2.08104 1.69669,0 3.15444,-0.717829 4.36504,-2.16068 1.21111,-1.43566 1.82001,-3.6616 1.82001,-6.67833 0,-2.87851 -0.594509,-5.0248 -1.77633,-6.46046 -1.18182,-1.42795 -2.5959,-2.14578 -4.23452,-2.14578 -1.63143,0 -3.07428,0.760991 -4.32856,2.284 -1.25479,1.5225 -1.87807,3.74124 -1.87807,6.64133z"/>
    <path id="_679077281" class="fil3" d="M718.128 395.532l0 -22.5569 3.43705 0 0 3.41496c0.877118,-1.59495 1.68949,-2.65396 2.4361,-3.16112 0.739924,-0.50767 1.55898,-0.768699 2.451,-0.768699 1.29024,0 2.59539,0.413124 3.92982,1.23269l-1.31953 3.55266c-0.928502,-0.558026 -1.86368,-0.833956 -2.79887,-0.833956 -0.84115,0 -1.58775,0.253835 -2.25523,0.754312 -0.666959,0.50767 -1.13815,1.2034 -1.42076,2.09542 -0.428026,1.35601 -0.638185,2.84203 -0.638185,4.45907l0 11.8116 -3.8214 0z"/>
    <path id="_6790772812" class="fil3" d="M748.096 388.267l3.95191 0.485575c-0.623797,2.31329 -1.77633,4.10401 -3.45863,5.38038 -1.68949,1.26866 -3.84298,1.90685 -6.46046,1.90685 -3.29934,0 -5.91682,-1.01534 -7.84525,-3.04551 -1.93613,-2.03017 -2.90061,-4.8799 -2.90061,-8.54869 0,-3.79931 0.978858,-6.74307 2.92938,-8.8385 1.95772,-2.09542 4.48836,-3.14673 7.60632,-3.14673 3.01622,0 5.4816,1.02973 7.38845,3.08148 1.91404,2.05175 2.87132,4.94516 2.87132,8.66482 0,0.23174 -0.00719371,0.572414 -0.022095,1.02202l-16.8215 0c0.137708,2.47977 0.84115,4.37943 2.10262,5.69176 1.26147,1.32005 2.82764,1.97981 4.71291,1.97981 1.39969,0 2.5959,-0.369962 3.58915,-1.10937 0.993245,-0.732217 1.77633,-1.90685 2.35645,-3.52389zm-12.551 -6.18505l12.5946 0c-0.166997,-1.89246 -0.652572,-3.32092 -1.44285,-4.2633 -1.21831,-1.47214 -2.79887,-2.21155 -4.735,-2.21155 -1.75424,0 -3.23357,0.587315 -4.42978,1.76194 -1.19672,1.17463 -1.85649,2.748 -1.987,4.71291z"/>
    <path id="_67907728123" class="fil3" d="M755.325 388.796l3.77721 -0.594509c0.210673,1.5153 0.805181,2.67555 1.77685,3.48741 0.963957,0.804668 2.31997,1.21111 4.06753,1.21111 1.75475,0 3.05989,-0.362768 3.90824,-1.0734 0.848344,-0.717829 1.27586,-1.55898 1.27586,-2.51574 0,-0.870439 -0.377156,-1.54459 -1.13095,-2.04507 -0.522058,-0.340673 -1.8272,-0.768185 -3.90824,-1.29024 -2.79887,-0.710636 -4.74939,-1.32005 -5.82947,-1.84159 -1.0806,-0.514864 -1.90685,-1.23269 -2.46539,-2.14629 -0.558026,-0.913601 -0.84115,-1.92175 -0.84115,-3.02393 0,-1.00763 0.232254,-1.93562 0.696248,-2.79116 0.4568,-0.863245 1.08728,-1.57337 1.87807,-2.1391 0.594509,-0.435219 1.40637,-0.812375 2.4289,-1.11657 1.02973,-0.304705 2.13139,-0.4568 3.30602,-0.4568 1.76914,0 3.32092,0.261029 4.66255,0.768699 1.34111,0.507156 2.32716,1.19621 2.96535,2.06614 0.638185,0.877632 1.0734,2.03736 1.31234,3.49511l-3.73405 0.514864c-0.17419,-1.16024 -0.666959,-2.06665 -1.47933,-2.71922 -0.811861,-0.652572 -1.96491,-0.978858 -3.45092,-0.978858 -1.75475,0 -3.00902,0.289804 -3.75614,0.869925 -0.753798,0.580121 -1.13095,1.26198 -1.13095,2.03736 0,0.500476 0.159289,0.942889 0.471188,1.34163 0.311899,0.413124 0.797474,0.746604 1.46443,1.02253 0.384349,0.137708 1.50862,0.463994 3.37899,0.971664 2.70483,0.725023 4.58959,1.31234 5.6558,1.77633 1.07289,0.4568 1.91404,1.13095 2.52294,2.00807 0.60941,0.877632 0.913601,1.96542 0.913601,3.27057 0,1.27586 -0.376642,2.47207 -1.11657,3.60353 -0.746604,1.12376 -1.82001,1.99368 -3.21918,2.61029 -1.39918,0.61609 -2.98744,0.920795 -4.75658,0.920795 -2.93657,0 -5.16971,-0.60941 -6.7071,-1.8272 -1.53688,-1.21831 -2.51574,-3.02341 -2.93606,-5.41635z"/>
    <path id="_679077281234" class="fil3" d="M794.043 388.267l3.95191 0.485575c-0.623797,2.31329 -1.77633,4.10401 -3.45863,5.38038 -1.68949,1.26866 -3.84298,1.90685 -6.46046,1.90685 -3.29934,0 -5.91682,-1.01534 -7.84525,-3.04551 -1.93613,-2.03017 -2.90061,-4.8799 -2.90061,-8.54869 0,-3.79931 0.978858,-6.74307 2.92938,-8.8385 1.95772,-2.09542 4.48836,-3.14673 7.60632,-3.14673 3.01622,0 5.4816,1.02973 7.38845,3.08148 1.91404,2.05175 2.87132,4.94516 2.87132,8.66482 0,0.23174 -0.00719371,0.572414 -0.022095,1.02202l-16.8215 0c0.137708,2.47977 0.84115,4.37943 2.10262,5.69176 1.26147,1.32005 2.82764,1.97981 4.71291,1.97981 1.39969,0 2.5959,-0.369962 3.58915,-1.10937 0.993245,-0.732217 1.77633,-1.90685 2.35645,-3.52389zm-12.551 -6.18505l12.5946 0c-0.166997,-1.89246 -0.652572,-3.32092 -1.44285,-4.2633 -1.21831,-1.47214 -2.79887,-2.21155 -4.735,-2.21155 -1.75424,0 -3.23357,0.587315 -4.42978,1.76194 -1.19672,1.17463 -1.85649,2.748 -1.987,4.71291z"/>
    <path id="_6790772812345" class="fil3" d="M802.802 395.532l0 -22.5569 3.43705 0 0 3.2048c1.6602,-2.47977 4.05314,-3.71966 7.17778,-3.71966 1.36321,0 2.61029,0.246641 3.74895,0.732217 1.14534,0.493283 1.99368,1.13095 2.55942,1.92894 0.572927,0.79028 0.964471,1.73266 1.19621,2.82045 0.137708,0.710636 0.210673,1.95052 0.210673,3.71966l0 13.8705 -3.82859 0 0 -13.7256c0,-1.55179 -0.144902,-2.71922 -0.442413,-3.49511 -0.296997,-0.768185 -0.826249,-1.38479 -1.58056,-1.84159 -0.761505,-0.463994 -1.64582,-0.695734 -2.66835,-0.695734 -1.63143,0 -3.03061,0.522058 -4.21962,1.55127 -1.18234,1.03692 -1.76965,2.99464 -1.76965,5.88754l0 12.3192 -3.82089 0z"/>
    <path id="_67907728123456" class="fil3" d="M835.344 392.11l0.550832 3.37847c-1.07289,0.22506 -2.03736,0.341187 -2.8857,0.341187 -1.39198,0 -2.46539,-0.217867 -3.23409,-0.66028 -0.760991,-0.434705 -1.29744,-1.01483 -1.60934,-1.73266 -0.311899,-0.710636 -0.471188,-2.21874 -0.471188,-4.50994l0 -12.979 -2.80606 0 0 -2.97254 2.80606 0 0 -5.59054 3.8065 -2.2912 0 7.88173 3.84298 0 0 2.97254 -3.84298 0 0 13.1891c0,1.09498 0.0652572,1.79123 0.195772,2.10262 0.137708,0.311899 0.355061,0.55854 0.659766,0.747118 0.304705,0.18087 0.73941,0.275416 1.30514,0.275416 0.428026,0 0.986052,-0.0508698 1.6823,-0.152096z"/>
    <g>
     <rect id="_205961816" class="fil4 str0" x="455.287" y="57.8762" width="616.426" height="140.613"/>
     <polygon id="_205961552" class="fil5" points="526.341,167.629 536.612,167.629 536.612,188.226 533.188,188.226 533.188,171.08 529.765,171.08 529.765,174.076 526.341,174.076 "/>
     <polygon id="_2059615521" class="fil5" points="546.311,167.629 546.311,176.216 542.887,176.216 542.887,167.629 539.464,167.629 539.464,188.226 542.887,188.226 542.887,179.639 546.311,179.639 546.311,188.226 549.734,188.226 549.734,167.629 "/>
     <path id="_20596155212" class="fil5" d="M562.857 174.504l0 -5.16354c0,-0.475812 -0.166483,-0.879688 -0.498935,-1.21265 -0.332966,-0.332966 -0.737355,-0.498935 -1.21265,-0.498935l-6.84687 0c-0.475299,0 -0.879688,0.165969 -1.21214,0.498935 -0.332966,0.332966 -0.499449,0.736841 -0.499449,1.21265l0 17.1739c0,0.475299 0.166483,0.879688 0.499449,1.21214 0.332452,0.332966 0.736841,0.499449 1.21214,0.499449l6.84687 0c0.475299,0 0.879688,-0.166483 1.21265,-0.499449 0.332452,-0.332452 0.498935,-0.736841 0.498935,-1.21214l0 -5.16354 -3.42318 0 0 3.42318 -3.42369 0 0 -5.33465 6.84687 0 0 -4.9354zm-3.42318 1.91147l-3.42369 0 0 -5.33516 3.42369 0 0 5.33516z"/>
     <path id="_205961552123" class="fil5" d="M582.598 167.629l-7.75944 0 0 20.5971 7.58833 0c0.932099,-0.323203 1.52147,-0.608382 1.76914,-0.856051 0.247155,-0.247155 0.532334,-0.836525 0.855537,-1.76862l0 -15.2913c-0.228143,-0.893561 -0.475299,-1.52147 -0.741466,-1.8827 -0.247669,-0.323203 -0.818027,-0.58937 -1.7121,-0.798501zm-4.33626 3.45144l3.42369 0 0 13.6937 -3.42369 0 0 -13.6937z"/>
     <path id="_2059615521234" class="fil5" d="M598.232 174.504l0 -5.16354c0,-0.475812 -0.166483,-0.879688 -0.498935,-1.21265 -0.332966,-0.332966 -0.737355,-0.498935 -1.21265,-0.498935l-6.84687 0c-0.475299,0 -0.879688,0.165969 -1.21214,0.498935 -0.332966,0.332966 -0.499449,0.736841 -0.499449,1.21265l0 17.1739c0,0.475299 0.166483,0.879688 0.499449,1.21214 0.332452,0.332966 0.736841,0.499449 1.21214,0.499449l6.84687 0c0.475299,0 0.879688,-0.166483 1.21265,-0.499449 0.332452,-0.332452 0.498935,-0.736841 0.498935,-1.21214l0 -5.16354 -3.42318 0 0 3.42318 -3.42369 0 0 -5.33465 6.84687 0 0 -4.9354zm-3.42318 1.91147l-3.42369 0 0 -5.33516 3.42369 0 0 5.33516z"/>
     <path id="_20596155212345" class="fil5" d="M712.515 169.34c0,-0.475812 -0.166483,-0.879688 -0.498935,-1.21265 -0.332966,-0.332966 -0.737355,-0.498935 -1.21265,-0.498935l-8.55846 0 0 20.5971 3.42318 0 0 -8.58723 5.13528 0c0.475299,0 0.879688,-0.165969 1.21265,-0.498935 0.332452,-0.332966 0.498935,-0.736841 0.498935,-1.21265l0 -8.58672zm-6.84687 1.73985l3.42369 0 0 5.13528 -3.42369 0 0 -5.13528z"/>
     <path id="_205961552123456" class="fil5" d="M722.157 170.196l0 12.4384 -3.42369 0 0 -12.4384 3.42369 0zm-6.84687 -2.62416l0 20.6542 3.42318 0 0 -2.16839 3.65183 0 0 2.16839 3.25207 0 0 -20.6542 -10.3271 0z"/>
     <path id="_2059615521234567" class="fil5" d="M731.913 179.639l-1.71159 0c-0.475299,0 -0.879688,-0.165969 -1.21214,-0.498935 -0.332966,-0.332966 -0.499449,-0.736841 -0.499449,-1.21265l0 -8.58672c0,-0.475812 0.166483,-0.879688 0.499449,-1.21265 0.332452,-0.332966 0.736841,-0.498935 1.21214,-0.498935l8.55846 0 0 20.5971 -3.42318 0 0 -8.58723 -3.42369 8.58723 -3.42318 0 3.42318 -8.58723zm0 -3.42318l3.42369 0 0 -5.13528 -3.42369 0 0 5.13528z"/>
     <polygon id="_20596155212345678" class="fil5" points="748.403,171.109 751.712,171.109 751.712,167.629 741.784,167.629 741.784,171.109 745.093,171.109 745.093,188.226 748.403,188.226 "/>
     <path id="_205961552123456789" class="fil5" d="M809.509 174.504l0 -5.16354c0,-0.475812 -0.166483,-0.879688 -0.498935,-1.21265 -0.332966,-0.332966 -0.737355,-0.498935 -1.21265,-0.498935l-6.84687 0c-0.475299,0 -0.879688,0.165969 -1.21214,0.498935 -0.332966,0.332966 -0.499449,0.736841 -0.499449,1.21265l0 17.1739c0,0.475299 0.166483,0.879688 0.499449,1.21214 0.332452,0.332966 0.736841,0.499449 1.21214,0.499449l6.84687 0c0.475299,0 0.879688,-0.166483 1.21265,-0.499449 0.332452,-0.332452 0.498935,-0.736841 0.498935,-1.21214l0 -5.16354 -3.42318 0 0 3.42318 -3.42369 0 0 -5.33465 3.08148 0 0 -3.02393 -3.08148 0 0 -5.33516 3.42369 0 0 3.42369 3.42318 0z"/>
     <path id="_20596155212345678910" class="fil5" d="M940.738 167.629l-7.75944 0 0 20.5971 7.58833 0c0.932099,-0.323203 1.52147,-0.608382 1.76914,-0.856051 0.247155,-0.247155 0.532334,-0.836525 0.855537,-1.76862l0 -15.2913c-0.228143,-0.893561 -0.475299,-1.52147 -0.741466,-1.8827 -0.247669,-0.323203 -0.818027,-0.58937 -1.7121,-0.798501zm-4.33626 3.45144l3.42369 0 0 13.6937 -3.42369 0 0 -13.6937z"/>
     <path id="_2059615521234567891011" class="fil5" d="M610.841 179.097c0.304191,-0.0760478 0.456287,-0.475812 0.456287,-1.19827 0,-0.722968 -0.114072,-1.19827 -0.342215,-1.42641l-2.39653 0 2.73875 -7.01798 0 -1.08419 -0.970123 -0.970123 -0.713205 0 -0.827276 -0.0570358 -0.798501 1.19827 -1.68333 4.3933 -2.11084 -5.53453 -1.91147 0 -0.970123 0.970123 0 1.08419 2.3395 7.01798 -1.88321 0c-0.228143,0.190119 -0.351464,0.637157 -0.370476,1.3406l0 0.256918c0,0.532334 0.0662849,0.913087 0.199368,1.14123l2.16839 0 -2.45357 6.73228 0 1.08419 0.970123 1.19827 1.91147 0 2.11084 -5.76267 2.11135 5.76267 1.91096 0 0.970123 -1.19827 0 -1.08419 -2.73875 -6.84635 2.28246 0z"/>
     <polygon id="_205961552123456789101112" class="fil5" points="621.168,171.109 624.477,171.109 624.477,167.629 614.55,167.629 614.55,171.109 617.859,171.109 617.859,188.226 621.168,188.226 "/>
     <path id="_20596155212345678910111213" class="fil5" d="M637.771 174.504l0 -5.16354c0,-0.475812 -0.166483,-0.879688 -0.498935,-1.21265 -0.332966,-0.332966 -0.737355,-0.498935 -1.21265,-0.498935l-6.84687 0c-0.475299,0 -0.879688,0.165969 -1.21214,0.498935 -0.332966,0.332966 -0.499449,0.736841 -0.499449,1.21265l0 17.1739c0,0.475299 0.166483,0.879688 0.499449,1.21214 0.332452,0.332966 0.736841,0.499449 1.21214,0.499449l6.84687 0c0.475299,0 0.879688,-0.166483 1.21265,-0.499449 0.332452,-0.332452 0.498935,-0.736841 0.498935,-1.21214l0 -5.16354 -3.42318 0 0 3.42318 -3.42369 0 0 -5.33465 3.08148 0 0 -3.02393 -3.08148 0 0 -5.33516 3.42369 0 0 3.42369 3.42318 0z"/>
     <path id="_2059615521234567891011121314" class="fil5" d="M644.047 179.639l-1.71159 0c-0.475299,0 -0.879688,-0.165969 -1.21214,-0.498935 -0.332966,-0.332966 -0.499449,-0.736841 -0.499449,-1.21265l0 -8.58672c0,-0.475812 0.166483,-0.879688 0.499449,-1.21265 0.332452,-0.332966 0.736841,-0.498935 1.21214,-0.498935l8.55846 0 0 20.5971 -3.42318 0 0 -8.58723 -3.42369 8.58723 -3.42318 0 3.42318 -8.58723zm0 -3.42318l3.42369 0 0 -5.13528 -3.42369 0 0 5.13528z"/>
     <path id="_205961552123456789101112131415" class="fil5" d="M661.792 171.565l-1.36937 0 0 -3.9365 -3.08096 0 0 3.9365 -1.48396 0c-0.304191,0.152096 -0.565734,0.299567 -0.784114,0.442413 -0.218894,0.142333 -0.394626,0.280555 -0.52771,0.413638 -0.247669,0.247155 -0.532848,0.722454 -0.856051,1.42641l0 7.87351c0.228143,0.4568 0.475299,0.818027 0.741466,1.08419 0.266681,0.266167 0.665932,0.589884 1.19827,0.970123l1.59752 0 0 4.45034 3.30962 0 0 -4.45034 1.59752 0c0.304191,-0.152096 0.556485,-0.294942 0.755853,-0.428026 0.199882,-0.133084 0.366365,-0.27593 0.499449,-0.428026 0.133084,-0.152096 0.242531,-0.323203 0.327828,-0.513322 0.0858106,-0.190119 0.166483,-0.418263 0.242531,-0.684944l0 -8.10166c-0.323203,-0.608896 -0.608382,-1.02716 -0.855537,-1.2553 -0.133597,-0.114072 -0.309329,-0.237906 -0.528224,-0.37099 -0.21838,-0.133084 -0.479923,-0.27593 -0.784114,-0.428026zm-4.67899 9.35747l0 -6.50465 3.42369 0 0 6.50465 -3.42369 0z"/>
     <path id="_20596155212345678910111213141516" class="fil5" d="M677.14 186.6l0 -18.9708 -3.42318 0 0 17.1452 -3.42369 0 0 -17.1452 -3.42318 0 0 18.8855c0,0.475299 0.166483,0.879688 0.499449,1.21214 0.332452,0.332966 0.736841,0.499449 1.21214,0.499449l6.84687 0c0.456287,0 0.856051,-0.15672 1.19827,-0.470674 0.342215,-0.313954 0.513322,-0.698817 0.513322,-1.15562z"/>
     <polygon id="_2059615521234567891011121314151617" class="fil5" points="679.993,167.629 690.263,167.629 690.263,174.504 686.84,174.504 686.84,171.08 683.416,171.08 690.263,184.774 690.263,188.226 679.993,188.226 679.993,181.351 683.416,181.351 683.416,184.774 686.84,184.774 679.993,171.08 "/>
     <path id="_205961552123456789101112131415161718" class="fil5" d="M771.91 171.565l-1.36937 0 0 -3.9365 -3.08096 0 0 3.9365 -1.48396 0c-0.304191,0.152096 -0.565734,0.299567 -0.784114,0.442413 -0.218894,0.142333 -0.394626,0.280555 -0.52771,0.413638 -0.247669,0.247155 -0.532848,0.722454 -0.856051,1.42641l0 7.87351c0.228143,0.4568 0.475299,0.818027 0.741466,1.08419 0.266681,0.266167 0.665932,0.589884 1.19827,0.970123l1.59752 0 0 4.45034 3.30962 0 0 -4.45034 1.59752 0c0.304191,-0.152096 0.556485,-0.294942 0.755853,-0.428026 0.199882,-0.133084 0.366365,-0.27593 0.499449,-0.428026 0.133084,-0.152096 0.242531,-0.323203 0.327828,-0.513322 0.0858106,-0.190119 0.166483,-0.418263 0.242531,-0.684944l0 -8.10166c-0.323203,-0.608896 -0.608382,-1.02716 -0.855537,-1.2553 -0.133597,-0.114072 -0.309329,-0.237906 -0.528224,-0.37099 -0.21838,-0.133084 -0.479923,-0.27593 -0.784114,-0.428026zm-4.67899 9.35747l0 -6.50465 3.42369 0 0 6.50465 -3.42369 0z"/>
     <path id="_20596155212345678910111213141516171819" class="fil5" d="M787.258 174.504l0 -5.16354c0,-0.475812 -0.166483,-0.879688 -0.498935,-1.21265 -0.332966,-0.332966 -0.737355,-0.498935 -1.21265,-0.498935l-6.84687 0c-0.475299,0 -0.879688,0.165969 -1.21214,0.498935 -0.332966,0.332966 -0.499449,0.736841 -0.499449,1.21265l0 18.8855 3.42318 0 0 -8.81537 3.08148 0 0 -2.99515 -3.08148 0 0 -5.33516 3.42369 0 0 3.42369 3.42318 0z"/>
     <path id="_2059615521234567891011121314151617181920" class="fil5" d="M822.119 179.097c0.304191,-0.0760478 0.456287,-0.475812 0.456287,-1.19827 0,-0.722968 -0.114072,-1.19827 -0.342215,-1.42641l-2.39653 0 2.73875 -7.01798 0 -1.08419 -0.970123 -0.970123 -0.713205 0 -0.827276 -0.0570358 -0.798501 1.19827 -1.68333 4.3933 -2.11084 -5.53453 -1.91147 0 -0.970123 0.970123 0 1.08419 2.3395 7.01798 -1.88321 0c-0.228143,0.190119 -0.351464,0.637157 -0.370476,1.3406l0 0.256918c0,0.532334 0.0662849,0.913087 0.199368,1.14123l2.16839 0 -2.45357 6.73228 0 1.08419 0.970123 1.19827 1.91147 0 2.11084 -5.76267 2.11135 5.76267 1.91096 0 0.970123 -1.19827 0 -1.08419 -2.73875 -6.84635 2.28246 0z"/>
     <path id="_205961552123456789101112131415161718192021" class="fil5" d="M835.926 169.34c0,-0.475812 -0.166483,-0.879688 -0.498935,-1.21265 -0.332966,-0.332966 -0.737355,-0.498935 -1.21265,-0.498935l-8.55846 0 0 20.5971 3.42318 0 0 -8.58723 5.13528 0c0.475299,0 0.879688,-0.165969 1.21265,-0.498935 0.332452,-0.332966 0.498935,-0.736841 0.498935,-1.21265l0 -8.58672zm-6.84687 1.73985l3.42369 0 0 5.13528 -3.42369 0 0 -5.13528z"/>
     <path id="_20596155212345678910111213141516171819202122" class="fil5" d="M849.049 174.504l0 -5.16354c0,-0.475812 -0.166483,-0.879688 -0.498935,-1.21265 -0.332966,-0.332966 -0.737355,-0.498935 -1.21265,-0.498935l-6.84687 0c-0.475299,0 -0.879688,0.165969 -1.21214,0.498935 -0.332966,0.332966 -0.499449,0.736841 -0.499449,1.21265l0 17.1739c0,0.475299 0.166483,0.879688 0.499449,1.21214 0.332452,0.332966 0.736841,0.499449 1.21214,0.499449l6.84687 0c0.475299,0 0.879688,-0.166483 1.21265,-0.499449 0.332452,-0.332452 0.498935,-0.736841 0.498935,-1.21214l0 -5.16354 -3.42318 0 0 3.42318 -3.42369 0 0 -5.33465 6.84687 0 0 -4.9354zm-3.42318 1.91147l-3.42369 0 0 -5.33516 3.42369 0 0 5.33516z"/>
     <path id="_2059615521234567891011121314151617181920212223" class="fil5" d="M855.325 179.639l-1.71159 0c-0.475299,0 -0.879688,-0.165969 -1.21214,-0.498935 -0.332966,-0.332966 -0.499449,-0.736841 -0.499449,-1.21265l0 -8.58672c0,-0.475812 0.166483,-0.879688 0.499449,-1.21265 0.332452,-0.332966 0.736841,-0.498935 1.21214,-0.498935l8.55846 0 0 20.5971 -3.42318 0 0 -8.58723 -3.42369 8.58723 -3.42318 0 3.42318 -8.58723zm0 -3.42318l3.42369 0 0 -5.13528 -3.42369 0 0 5.13528z"/>
     <polygon id="_205961552123456789101112131415161718192021222324" class="fil5" points="868.505,167.629 865.082,167.629 865.082,188.226 868.505,188.226 "/>
     <polygon id="_20596155212345678910111213141516171819202122232425" class="fil5" points="878.205,167.629 881.628,167.629 881.628,188.226 878.205,188.226 878.205,177.927 876.493,179.639 874.781,177.927 874.781,188.226 871.358,188.226 871.358,167.629 874.781,167.629 876.493,174.504 "/>
     <path id="_2059615521234567891011121314151617181920212223242526" class="fil5" d="M894.751 174.504l0 -5.16354c0,-0.475812 -0.166483,-0.879688 -0.498935,-1.21265 -0.332966,-0.332966 -0.737355,-0.498935 -1.21265,-0.498935l-6.84687 0c-0.475299,0 -0.879688,0.165969 -1.21214,0.498935 -0.332966,0.332966 -0.499449,0.736841 -0.499449,1.21265l0 17.1739c0,0.475299 0.166483,0.879688 0.499449,1.21214 0.332452,0.332966 0.736841,0.499449 1.21214,0.499449l6.84687 0c0.475299,0 0.879688,-0.166483 1.21265,-0.499449 0.332452,-0.332452 0.498935,-0.736841 0.498935,-1.21214l0 -5.16354 -3.42318 0 0 3.42318 -3.42369 0 0 -5.33465 6.84687 0 0 -4.9354zm-3.42318 1.91147l-3.42369 0 0 -5.33516 3.42369 0 0 5.33516z"/>
     <path id="_205961552123456789101112131415161718192021222324252627" class="fil5" d="M899.315 167.629l6.84687 0c0.475299,0 0.879688,0.165969 1.21265,0.498935 0.332452,0.332966 0.498935,0.736841 0.498935,1.21265l0 18.8855 -3.42318 0 0 -17.1739 -3.36665 0 0 17.1739 -3.48021 0 0 -18.8855c0,-0.475812 0.166483,-0.879688 0.499449,-1.21265 0.332452,-0.332966 0.736841,-0.498935 1.21214,-0.498935z"/>
     <polygon id="_20596155212345678910111213141516171819202122232425262728" class="fil5" points="917.516,171.109 920.825,171.109 920.825,167.629 910.898,167.629 910.898,171.109 914.207,171.109 914.207,188.226 917.516,188.226 "/>
     <path id="_2059615521234567891011121314151617181920212223242526272829" class="fil5" d="M956.371 174.504l0 -5.16354c0,-0.475812 -0.166483,-0.879688 -0.498935,-1.21265 -0.332966,-0.332966 -0.737355,-0.498935 -1.21265,-0.498935l-6.84687 0c-0.475299,0 -0.879688,0.165969 -1.21214,0.498935 -0.332966,0.332966 -0.499449,0.736841 -0.499449,1.21265l0 17.1739c0,0.475299 0.166483,0.879688 0.499449,1.21214 0.332452,0.332966 0.736841,0.499449 1.21214,0.499449l6.84687 0c0.475299,0 0.879688,-0.166483 1.21265,-0.499449 0.332452,-0.332452 0.498935,-0.736841 0.498935,-1.21214l0 -5.16354 -3.42318 0 0 3.42318 -3.42369 0 0 -5.33465 6.84687 0 0 -4.9354zm-3.42318 1.91147l-3.42369 0 0 -5.33516 3.42369 0 0 5.33516z"/>
     <polygon id="_205961552123456789101112131415161718192021222324252627282930" class="fil5" points="959.224,167.629 969.494,167.629 969.494,174.504 966.071,174.504 966.071,171.08 962.647,171.08 969.494,184.774 969.494,188.226 959.224,188.226 959.224,181.351 962.647,181.351 962.647,184.774 966.071,184.774 959.224,171.08 "/>
     <polygon id="_20596155212345678910111213141516171819202122232425262728293031" class="fil5" points="975.827,167.629 972.404,167.629 972.404,188.226 975.827,188.226 "/>
     <path id="_2059615521234567891011121314151617181920212223242526272829303132" class="fil5" d="M988.95 169.34c0,-0.475812 -0.166483,-0.879688 -0.498935,-1.21265 -0.332966,-0.332966 -0.737355,-0.498935 -1.21265,-0.498935l-6.84687 0c-0.475299,0 -0.879688,0.165969 -1.21214,0.498935 -0.332966,0.332966 -0.499449,0.736841 -0.499449,1.21265l0 8.58672c0,0.475812 0.166483,0.879688 0.499449,1.21265 0.332452,0.332966 0.736841,0.498935 1.21214,0.498935l5.13528 0 0 5.13528 -3.42369 0 0 -3.42318 -3.42318 0 0 6.87513 8.55846 0c0.475299,0 0.879688,-0.166483 1.21265,-0.499449 0.332452,-0.332452 0.498935,-0.736841 0.498935,-1.21214l0 -17.1739zm-6.84687 6.87513l0 -5.13528 3.42369 0 0 5.13528 -3.42369 0z"/>
     <path id="_205961552123456789101112131415161718192021222324252627282930313233" class="fil5" d="M993.514 167.629l6.84687 0c0.475299,0 0.879688,0.165969 1.21265,0.498935 0.332452,0.332966 0.498935,0.736841 0.498935,1.21265l0 18.8855 -3.42318 0 0 -17.1739 -3.36665 0 0 17.1739 -3.48021 0 0 -18.8855c0,-0.475812 0.166483,-0.879688 0.499449,-1.21265 0.332452,-0.332966 0.736841,-0.498935 1.21214,-0.498935z"/>
     <path id="_20596155212345678910111213141516171819202122232425262728293031323334" class="fil1" d="M524.915 190.819l39.3686 0 0 1.29692 -39.3686 0 0 -1.29692zm48.4974 0l26.2457 0 0 1.29692 -26.2457 0 0 -1.29692zm127.406 0l52.4915 0 0 1.29692 -52.4915 0 0 -1.29692zm96.9948 0l13.1229 0 0 1.29692 -13.1229 0 0 -1.29692zm133.739 0l13.1229 0 0 1.29692 -13.1229 0 0 -1.29692z"/>
     <rect id="_205961840" class="fil1 str0" x="455.287" y="57.8762" width="616.426" height="103.186"/>
     <path id="_205961672" class="fil3" d="M499.493 92.62l-23.322 0 0 32.2165c0,2.0425 0.246641,3.4093 0.740952,4.10144 0.49431,0.691624 1.66329,1.03744 3.50796,1.03744l11.4637 0c3.95294,0 7.28003,-0.296484 9.98127,-0.889451l-0.691624 5.43536 -21.2471 0c-4.67797,0 -7.873,-0.856565 -9.58613,-2.56918 -1.71262,-1.71313 -2.56918,-4.87528 -2.56918,-9.48747l0 -29.8446 -7.31292 0 0 -4.54591 7.31292 0 0 -9.19047 8.40019 -1.58107 0 10.7715 23.322 0 0 4.54591z"/>
     <path id="_2059616721" class="fil3" d="M507.399 124.639l0 -43.4824c0,-3.82089 -0.296484,-7.11509 -0.889451,-9.8821l9.28965 0 0 19.9625c0.460911,-0.856565 1.15305,-1.68024 2.07538,-2.47052 0.592967,-0.197827 1.18593,-0.362768 1.7789,-0.49431 0.592967,-0.132056 1.25171,-0.197827 1.97621,-0.197827l25.793 0c4.67745,0 7.88944,0.856565 9.63546,2.56969 1.7455,1.71262 2.61851,4.87528 2.61851,9.48696l0 24.5079c0,3.8214 0.296484,7.1156 0.889451,9.88261l-10.1786 0c0.592967,-2.37187 0.889451,-5.66607 0.889451,-9.88261l0 -26.8798c0,-1.97621 -0.21427,-3.32709 -0.642809,-4.0516 -0.428026,-0.725023 -1.66329,-1.08728 -3.70579,-1.08728l-26.7811 0c-1.84467,0 -3.03061,0.345812 -3.55729,1.03795 -0.527196,0.691624 -0.790794,2.05843 -0.790794,4.10093l0 26.8798c0,3.8214 0.296484,7.1156 0.889451,9.88261l-10.1791 0c0.592967,-2.37187 0.889451,-5.66607 0.889451,-9.88261z"/>
     <path id="_20596167212" class="fil3" d="M620.552 114.164l-44.2732 0 0 10.6729c0,2.0425 0.247155,3.4093 0.741466,4.10144 0.493797,0.691624 1.69617,1.03744 3.60713,1.03744l29.9433 0c3.75512,0 7.0822,-0.296484 9.98127,-0.889451l-1.18593 5.43536 -39.2329 0c-4.67745,0 -7.88944,-0.856565 -9.63546,-2.56918 -1.7455,-1.71313 -2.61851,-4.87528 -2.61851,-9.48747l0 -22.3339c0,-4.34808 0.889451,-7.44497 2.68479,-9.28965 1.77839,-1.84467 4.99038,-2.76701 9.6185,-2.76701l28.2636 0c4.69441,0 7.90588,0.823679 9.61901,2.47052 0.60941,0.592967 1.26815,1.91096 1.99266,3.95294l0.49431 2.66835 0 2.96484 0 14.0329zm-44.2732 -4.54591l35.873 0 0 -11.8588c0,-1.97621 -0.213756,-3.32709 -0.642295,-4.0516 -0.428026,-0.725023 -1.66329,-1.08728 -3.70579,-1.08728l-27.1763 0c-1.84467,0 -3.03061,0.345812 -3.5578,1.03795 -0.527196,0.691624 -0.790794,2.05843 -0.790794,4.10093l0 11.8588z"/>
     <path id="_205961672123" class="fil3" d="M629.743 124.639l0 -43.4824c0,-3.55729 -0.329883,-6.85149 -0.988621,-9.8821l44.1247 0c5.41892,0 9.09182,0.856565 11.0028,2.56918 0.740952,0.527196 1.49886,1.71313 2.28914,3.5578l0.592967 2.66835 0 3.45863 0 38.7391c0,4.54591 -1.00455,7.7245 -3.01416,9.53629 -2.0091,1.81179 -5.68251,2.71768 -11.0187,2.71768l-43.9767 0 0.625853 -2.56918 0.362768 -2.17455 0 -5.13888zm10.1786 -48.2256l0 52.9693 32.4143 0c1.71262,0 2.84922,-0.362255 3.4093,-1.08676 0.560081,-0.725023 0.840122,-2.07538 0.840122,-4.05211l0 -42.6916c0,-1.97673 -0.21427,-3.32709 -0.642809,-4.05211 -0.428026,-0.724509 -1.6304,-1.08676 -3.60662,-1.08676l-32.4143 0z"/>
     <path id="_2059616721234" class="fil3" d="M747.639 114.164l-44.2732 0 0 10.6729c0,2.0425 0.247155,3.4093 0.741466,4.10144 0.493797,0.691624 1.69617,1.03744 3.60713,1.03744l29.9433 0c3.75512,0 7.0822,-0.296484 9.98127,-0.889451l-1.18593 5.43536 -39.2329 0c-4.67745,0 -7.88944,-0.856565 -9.63546,-2.56918 -1.7455,-1.71313 -2.61851,-4.87528 -2.61851,-9.48747l0 -22.3339c0,-4.34808 0.889451,-7.44497 2.68479,-9.28965 1.77839,-1.84467 4.99038,-2.76701 9.6185,-2.76701l28.2636 0c4.69441,0 7.90588,0.823679 9.61901,2.47052 0.60941,0.592967 1.26815,1.91096 1.99266,3.95294l0.49431 2.66835 0 2.96484 0 14.0329zm-44.2732 -4.54591l35.873 0 0 -11.8588c0,-1.97621 -0.213756,-3.32709 -0.642295,-4.0516 -0.428026,-0.725023 -1.66329,-1.08728 -3.70579,-1.08728l-27.1763 0c-1.84467,0 -3.03061,0.345812 -3.5578,1.03795 -0.527196,0.691624 -0.790794,2.05843 -0.790794,4.10093l0 11.8588z"/>
     <path id="_20596167212345" class="fil3" d="M755.841 142.229l0 -44.2726c0,-3.8214 -0.296484,-7.1156 -0.889451,-9.88261l8.30154 0 0.493797 4.05211c0.527196,-2.70124 2.76701,-4.05211 6.71995,-4.05211l24.4098 0c4.80899,0 8.07031,0.856565 9.78344,2.56969 1.84467,1.6304 2.76701,4.79255 2.76701,9.45407l0 22.301c0,4.59524 -0.807237,7.7579 -2.4212,9.45407 -1.61396,1.71313 -4.79306,2.56969 -9.53629,2.56969l-24.5084 0 -2.37187 0 -2.07538 -0.592967c-0.79028,-0.395654 -1.4819,-1.21882 -2.07487,-2.47052l-0.197827 10.8702c0,3.8214 0.296484,7.1156 0.889451,9.88261l-10.1791 0c0.592967,-2.37187 0.889451,-5.66607 0.889451,-9.88261zm8.40019 -44.4705l0 27.0776c0,2.0425 0.247155,3.4093 0.740952,4.10144 0.49431,0.691624 1.69669,1.03744 3.60713,1.03744l26.0895 0c1.7789,0 2.94839,-0.362255 3.50847,-1.08728 0.559568,-0.724509 0.839608,-2.07487 0.839608,-4.0516l0 -27.0776c0,-1.97621 -0.213756,-3.32709 -0.642295,-4.0516 -0.428026,-0.725023 -1.66329,-1.08728 -3.70579,-1.08728l-26.0895 0c-1.84467,0 -3.03061,0.345812 -3.55729,1.03795 -0.527196,0.691624 -0.790794,2.05843 -0.790794,4.10093z"/>
     <path id="_205961672123456" class="fil3" d="M866.03 100.131l0 24.5079c0,4.41437 0.329369,7.70857 0.988107,9.88261l-8.1032 0 -0.790794 -2.96484c-0.592967,1.15305 -1.28459,2.00961 -2.07538,2.55325l-1.58107 0.411583 -2.76701 0 -24.9036 0c-4.67745,0 -7.88944,-0.856565 -9.63546,-2.56918 -1.7455,-1.71313 -2.61851,-4.87528 -2.61851,-9.48747l0 -7.11509c0,-4.34808 0.889451,-7.44497 2.66835,-9.28965 1.77839,-1.84467 4.97393,-2.76701 9.58561,-2.76701l26.5833 0c1.58159,0 2.73412,-0.362255 3.45915,-1.08676 0.592967,-0.790794 0.889451,-2.14116 0.889451,-4.05211l0 -0.592967c0,-1.91044 -0.362255,-3.19503 -1.08728,-3.85377 -0.592967,-0.725023 -1.67973,-1.08728 -3.26132,-1.08728l-27.9671 0c-3.75512,0 -7.0822,0.296484 -9.98075,0.889451l0.691624 -5.43536 37.7505 0c4.67745,0 7.873,0.807237 9.58613,2.4212 1.71262,1.61447 2.56918,4.82595 2.56918,9.63546zm-8.30102 24.788l0 -17.0799 -30.4376 0c-1.84467,0 -3.03061,0.345812 -3.5578,1.03795 -0.527196,0.691624 -0.790794,2.07487 -0.790794,4.11737l0 11.9246c0,2.0425 0.247155,3.42626 0.741466,4.11788 0.493797,0.691624 1.69617,1.03744 3.60713,1.03744l26.089 0c1.58159,0 2.73412,-0.362255 3.45915,-1.08676 0.592967,-0.807237 0.889451,-2.1576 0.889451,-4.06856z"/>
     <path id="_2059616721234567" class="fil3" d="M889.649 88.0741l18.4801 0 -0.49431 7.01643 -6.62129 -0.79028 -5.92916 -0.296484 -6.91778 0c-1.84467,0 -3.03061,0.345812 -3.55729,1.03744 -0.527196,0.691624 -0.790794,2.05894 -0.790794,4.10144l0 25.496c0,3.8214 0.296484,7.1156 0.889451,9.88261l-10.1791 0c0.592967,-2.37187 0.889451,-5.66607 0.889451,-9.88261l0 -26.682c0,-3.8214 -0.296484,-7.1156 -0.889451,-9.88261l8.40019 0 0.39514 4.3486c0.658738,-1.5153 1.43309,-2.61902 2.32254,-3.31065 0.889451,-0.692137 2.22337,-1.03795 4.00227,-1.03795z"/>
     <path id="_20596167212345678" class="fil3" d="M949.536 92.62l-23.322 0 0 32.2165c0,2.0425 0.246641,3.4093 0.740952,4.10144 0.49431,0.691624 1.66329,1.03744 3.50796,1.03744l11.4637 0c3.95294,0 7.28003,-0.296484 9.98127,-0.889451l-0.691624 5.43536 -21.2471 0c-4.67797,0 -7.873,-0.856565 -9.58613,-2.56918 -1.71262,-1.71313 -2.56918,-4.87528 -2.56918,-9.48747l0 -29.8446 -7.31292 0 0 -4.54591 7.31292 0 0 -9.19047 8.40019 -1.58107 0 10.7715 23.322 0 0 4.54591z"/>
     <path id="_205961672123456789" class="fil3" d="M1009.03 114.164l-44.2732 0 0 10.6729c0,2.0425 0.247155,3.4093 0.741466,4.10144 0.493797,0.691624 1.69617,1.03744 3.60713,1.03744l29.9433 0c3.75512,0 7.0822,-0.296484 9.98127,-0.889451l-1.18593 5.43536 -39.2329 0c-4.67745,0 -7.88944,-0.856565 -9.63546,-2.56918 -1.7455,-1.71313 -2.61851,-4.87528 -2.61851,-9.48747l0 -22.3339c0,-4.34808 0.889451,-7.44497 2.68479,-9.28965 1.77839,-1.84467 4.99038,-2.76701 9.6185,-2.76701l28.2636 0c4.69441,0 7.90588,0.823679 9.61901,2.47052 0.60941,0.592967 1.26815,1.91096 1.99266,3.95294l0.49431 2.66835 0 2.96484 0 14.0329zm-44.2732 -4.54591l35.873 0 0 -11.8588c0,-1.97621 -0.213756,-3.32709 -0.642295,-4.0516 -0.428026,-0.725023 -1.66329,-1.08728 -3.70579,-1.08728l-27.1763 0c-1.84467,0 -3.03061,0.345812 -3.5578,1.03795 -0.527196,0.691624 -0.790794,2.05843 -0.790794,4.10093l0 11.8588z"/>
     <path id="_20596167212345678910" class="fil3" d="M1058.64 71.2742l8.99316 0 0 53.3645c0,4.41437 0.329369,7.70857 0.988107,9.88261l-8.20237 0 -0.592967 -4.0516c-0.526682,2.70124 -2.76701,4.0516 -6.71995,4.0516l-24.7058 0c-4.67745,0 -7.88944,-0.856565 -9.63546,-2.56918 -1.7455,-1.71313 -2.61851,-4.87528 -2.61851,-9.48747l0 -22.3339c0,-4.34808 0.889451,-7.44497 2.66835,-9.28965 1.77839,-1.84467 4.97393,-2.76701 9.58561,-2.76701l24.212 0c2.10827,0 3.42575,0.115613 3.95294,0.345812 0.526682,0.230712 1.08676,0.741466 1.67973,1.53175l1.08728 3.06349 0.197313 -11.8588c0,-3.82089 -0.296484,-7.11509 -0.889451,-9.8821zm0.889451 53.5623l0 -27.0776c0,-1.97621 -0.263084,-3.32709 -0.79028,-4.0516 -0.527196,-0.725023 -1.72957,-1.08728 -3.57424,-1.08728l-26.2375 0c-1.86111,0 -3.06349,0.345812 -3.59069,1.03795 -0.527196,0.691624 -0.790794,2.05843 -0.790794,4.10093l0 27.0776c0,2.0425 0.247155,3.4093 0.741466,4.10144 0.493797,0.691624 1.71262,1.03744 3.64002,1.03744l26.2375 0c1.58107,0 2.73412,-0.362255 3.47507,-1.08728 0.592967,-0.79028 0.889451,-2.14116 0.889451,-4.0516z"/>
    </g>
   </g>
  </g>
  <polygon class="fil6 str0" points="0.453204,0.453204 1526.55,0.453204 1526.55,1079.51 0.453204,1079.51 "/>
 </g>
</svg>
